<?xml version="1.0" standalone="no"?>
<!DOCTYPE svg PUBLIC "-//W3C//DTD SVG 20010904//EN"
 "http://www.w3.org/TR/2001/REC-SVG-20010904/DTD/svg10.dtd">
<svg version="1.0" xmlns="http://www.w3.org/2000/svg"
 width="2880.000000pt" height="1800.000000pt" viewBox="0 0 2880.000000 1800.000000"
 preserveAspectRatio="xMidYMid meet">

<g transform="translate(0.000000,1800.000000) scale(0.100000,-0.100000)"
fill="#000000" stroke="none">
<path d="M0 17475 l0 -525 14400 0 14400 0 0 525 0 525 -14400 0 -14400 0 0
-525z m26834 176 c24 -27 13 -40 -14 -16 -20 18 -20 18 -20 -78 0 -53 -4 -99
-10 -102 -6 -4 -10 30 -10 94 0 100 -6 115 -30 86 -7 -8 -17 -15 -23 -15 -6 0
4 16 23 35 35 37 48 36 84 -4z m-18659 -24 l60 -22 3 -87 c2 -51 -2 -97 -8
-108 -6 -12 -36 -37 -66 -56 l-55 -36 -56 34 c-30 18 -61 45 -69 60 -15 28
-19 164 -6 184 7 11 108 53 127 53 6 0 37 -10 70 -22z m17946 0 c58 -39 81
-83 77 -148 -7 -102 -88 -169 -186 -154 -65 10 -127 72 -137 137 -11 75 35
154 105 181 38 14 108 6 141 -16z m-25333 1 c8 -8 12 -54 12 -140 0 -116 -2
-128 -19 -138 -11 -6 -87 -10 -175 -10 -127 0 -157 3 -170 16 -23 23 -23 245
0 268 13 13 44 16 178 16 113 0 166 -4 174 -12z m27456 -4 c9 -23 7 -87 -3
-102 -5 -9 -26 -12 -67 -10 l-59 3 -3 39 c-2 22 -1 50 2 63 6 21 12 23 65 23
44 0 60 -4 65 -16z m161 -49 l0 -60 -62 -3 -63 -3 0 59 c0 32 3 62 7 66 4 4
32 6 63 4 l55 -3 0 -60z m-26515 48 c0 -4 -28 -36 -62 -70 l-62 -63 64 -59
c45 -41 62 -62 55 -70 -7 -7 -33 10 -85 58 l-75 69 70 71 c62 63 95 85 95 64z
m25640 -58 l0 -54 55 -3 c71 -4 72 -22 1 -26 l-55 -3 -3 -55 c-2 -30 -7 -54
-13 -54 -5 0 -11 24 -13 54 l-3 55 -55 3 c-71 4 -70 22 1 26 l55 3 0 53 c0 29
3 56 6 59 15 15 24 -7 24 -58z m-7517 17 l27 -28 -30 -29 c-16 -16 -32 -26
-35 -23 -3 3 1 11 10 18 21 17 19 30 -6 30 -32 0 -79 -53 -79 -90 0 -74 86
-105 141 -51 16 16 29 37 29 45 0 9 5 16 10 16 30 0 -18 -86 -56 -100 -46 -18
-74 -12 -111 25 -32 32 -35 40 -30 76 6 49 21 67 70 89 22 10 34 21 28 24 -13
8 -15 26 -3 26 5 0 20 -13 35 -28z m6717 -11 c0 -5 -12 -11 -27 -13 l-28 -3
-3 -103 -3 -103 118 3 118 3 3 80 c4 109 -1 125 -38 125 -17 0 -30 5 -30 10 0
14 64 12 78 -2 8 -8 12 -48 12 -114 0 -135 2 -134 -145 -134 -146 0 -145 0
-145 126 0 115 8 134 55 134 19 0 35 -4 35 -9z m-12730 -106 c0 -78 -3 -95
-15 -95 -12 0 -15 15 -15 75 0 72 -1 75 -20 63 -32 -20 -37 2 -7 28 50 43 57
35 57 -71z m148 83 c23 -23 13 -66 -24 -107 l-35 -40 37 -3 c21 -2 39 -9 42
-15 3 -10 -14 -13 -62 -13 -80 0 -83 9 -21 70 46 45 58 83 30 94 -9 3 -24 -3
-35 -14 -36 -36 -53 -23 -24 18 17 25 71 31 92 10z m172 2 c0 -22 -85 -180
-97 -180 -20 0 -16 19 22 87 19 35 35 66 35 68 0 3 -20 5 -45 5 -33 0 -45 4
-45 15 0 12 14 15 65 15 36 0 65 -4 65 -10z m176 -15 c20 -31 20 -109 -1 -141
-22 -35 -83 -31 -103 6 -16 30 -11 122 7 144 21 26 78 20 97 -9z m220 0 c20
-31 20 -109 -1 -141 -22 -35 -83 -31 -103 6 -16 30 -11 122 7 144 21 26 78 20
97 -9z m184 -70 c0 -78 -3 -95 -15 -95 -12 0 -15 15 -15 75 0 41 -3 75 -7 75
-3 0 -15 -7 -25 -17 -17 -15 -18 -15 -18 4 0 23 35 52 63 52 15 1 17 -10 17
-94z m-13731 39 c45 43 52 12 7 -32 l-36 -37 -36 37 c-45 44 -38 75 7 32 l29
-28 29 28z m27065 -40 c18 -18 21 -76 6 -105 -8 -15 -21 -19 -58 -19 -27 0
-53 5 -60 12 -19 19 -15 105 6 117 26 16 89 13 106 -5z m160 10 c12 -5 16 -21
16 -65 0 -53 -2 -59 -23 -65 -13 -3 -41 -4 -63 -2 l-39 3 -3 59 c-2 41 1 62
10 67 15 10 79 12 102 3z m-14039 -85 c0 -7 -8 -15 -17 -17 -18 -3 -25 18 -11
32 10 10 28 1 28 -15z m220 0 c0 -7 -8 -15 -17 -17 -18 -3 -25 18 -11 32 10
10 28 1 28 -15z m213 -2 c2 -10 -3 -17 -12 -17 -18 0 -29 16 -21 31 9 14 29 6
33 -14z"/>
<path d="M8110 17484 l0 -135 31 18 c62 36 79 67 79 144 l0 70 -42 19 c-70 32
-68 35 -68 -116z"/>
<path d="M25985 17616 c-50 -22 -77 -60 -83 -114 -8 -90 48 -152 140 -152 38
0 54 6 82 30 81 71 67 189 -28 234 -41 19 -71 20 -111 2z m65 -108 c0 -61 0
-61 20 -43 34 31 36 6 2 -27 l-32 -32 -35 34 c-19 18 -33 36 -30 39 3 2 16 -6
30 -19 l25 -23 0 66 c0 38 4 67 10 67 6 0 10 -27 10 -62z"/>
<path d="M457 17613 c-4 -3 -7 -60 -7 -125 l0 -118 50 0 50 0 0 125 0 125 -43
0 c-24 0 -47 -3 -50 -7z m56 -50 c-7 -2 -21 -2 -30 0 -10 3 -4 5 12 5 17 0 24
-2 18 -5z m7 -43 c0 -5 -9 -10 -20 -10 -11 0 -20 5 -20 10 0 6 9 10 20 10 11
0 20 -4 20 -10z m-7 -47 c-7 -2 -21 -2 -30 0 -10 3 -4 5 12 5 17 0 24 -2 18
-5z"/>
<path d="M577 17613 c-4 -3 -7 -60 -7 -125 l0 -119 103 3 102 3 3 114 c2 85
-1 117 -10 123 -16 9 -182 11 -191 1z"/>
<path d="M28130 17576 l0 -46 51 0 50 0 -3 43 -3 42 -47 3 -48 3 0 -45z"/>
<path d="M28300 17575 l0 -45 45 0 45 0 0 45 0 45 -45 0 -45 0 0 -45z"/>
<path d="M14426 17518 c-22 -31 -20 -81 4 -109 20 -24 20 -24 35 -5 20 26 19
100 -1 120 -20 20 -20 20 -38 -6z"/>
<path d="M14646 17518 c-22 -31 -20 -81 4 -109 20 -24 20 -24 35 -5 20 26 19
100 -1 120 -20 20 -20 20 -38 -6z"/>
<path d="M28134 17447 c-3 -9 -4 -30 -2 -49 3 -32 4 -33 48 -33 l45 0 0 45 0
45 -43 3 c-30 2 -44 -1 -48 -11z"/>
<path d="M28300 17411 l0 -51 46 0 45 0 -3 48 -3 47 -42 3 -43 3 0 -50z"/>
<path d="M26704 16530 c-53 -21 -54 -30 -54 -372 l0 -317 24 -28 24 -28 717 0
717 0 24 28 24 28 0 319 0 319 -24 28 -24 28 -704 2 c-386 1 -713 -2 -724 -7z
m266 -360 l0 -100 55 0 c42 0 55 -3 55 -15 0 -12 -15 -15 -75 -15 l-75 0 0
115 c0 108 1 115 20 115 19 0 20 -7 20 -100z m910 71 c0 -10 9 -21 20 -24 11
-3 20 -10 20 -17 0 -7 -9 -14 -20 -17 -17 -4 -20 -14 -20 -55 0 -41 3 -51 20
-55 31 -8 25 -33 -8 -33 -41 0 -52 17 -52 78 0 40 -5 58 -17 68 -17 13 -17 15
0 28 9 7 17 21 17 30 0 9 8 16 20 16 13 0 20 -7 20 -19z m-655 -46 c19 -18 25
-35 25 -65 0 -53 -12 -75 -48 -88 -68 -23 -112 12 -112 89 0 39 5 51 26 68 36
28 79 27 109 -4z m205 -76 c0 -86 -3 -102 -20 -119 -28 -28 -93 -27 -121 1
-31 31 -10 47 33 26 34 -16 68 -8 68 16 0 8 -14 11 -44 9 -36 -3 -46 0 -60 19
-23 34 -21 98 5 125 18 19 31 23 80 22 l59 -1 0 -98z m165 76 c19 -18 25 -35
25 -65 0 -53 -12 -75 -48 -88 -68 -23 -112 12 -112 89 0 39 5 51 26 68 36 28
79 27 109 -4z m85 -39 c0 -46 4 -67 16 -77 29 -24 48 1 54 72 4 50 9 65 23 67
15 3 17 -6 17 -86 l0 -90 -39 -4 c-85 -8 -111 18 -111 113 0 58 4 69 27 69 9
0 13 -17 13 -64z"/>
<path d="M27142 16168 c-20 -20 -15 -76 8 -88 32 -17 60 4 60 43 0 36 -15 57
-40 57 -9 0 -21 -5 -28 -12z"/>
<path d="M27316 16165 c-18 -49 9 -94 48 -79 21 8 32 52 19 73 -14 22 -59 26
-67 6z"/>
<path d="M27512 16168 c-20 -20 -15 -76 8 -88 32 -17 60 4 60 43 0 36 -15 57
-40 57 -9 0 -21 -5 -28 -12z"/>
<path d="M5450 16505 c0 -8 5 -15 10 -15 6 0 10 7 10 15 0 8 -4 15 -10 15 -5
0 -10 -7 -10 -15z"/>
<path d="M4313 16486 c-25 -22 -28 -30 -28 -91 0 -61 3 -69 28 -91 35 -30 85
-31 121 -3 29 23 34 39 11 39 -8 0 -15 -5 -15 -10 0 -6 -11 -15 -24 -21 -73
-34 -133 59 -91 141 24 47 92 53 115 10 6 -11 15 -20 20 -20 18 0 10 21 -16
45 -35 33 -84 33 -121 1z"/>
<path d="M7630 16395 c0 -96 3 -115 15 -115 12 0 15 19 15 115 0 96 -3 115
-15 115 -12 0 -15 -19 -15 -115z"/>
<path d="M9200 16495 c0 -11 11 -15 40 -15 l40 0 0 -100 c0 -82 3 -100 15
-100 12 0 15 18 15 100 l0 100 35 0 c24 0 35 5 35 15 0 12 -17 15 -90 15 -73
0 -90 -3 -90 -15z"/>
<path d="M6530 16390 c0 -67 4 -110 10 -110 6 0 10 35 10 85 0 47 3 85 8 85 4
-1 33 -39 65 -85 32 -47 62 -85 67 -85 6 0 10 47 10 110 0 67 -4 110 -10 110
-6 0 -10 -33 -10 -80 0 -44 -4 -80 -8 -80 -5 0 -33 36 -63 80 -30 44 -60 80
-66 80 -10 0 -13 -29 -13 -110z"/>
<path d="M7260 16390 c0 -67 4 -110 10 -110 6 0 10 20 10 45 0 44 1 45 33 45
28 0 36 -6 57 -45 14 -25 31 -45 38 -45 10 0 6 13 -12 47 l-26 46 20 19 c11
10 20 31 20 47 0 43 -28 61 -93 61 l-57 0 0 -110z m118 76 c25 -25 7 -64 -33
-72 -52 -9 -65 -1 -65 44 0 21 3 42 8 46 11 11 73 -1 90 -18z"/>
<path d="M4680 16471 c0 -11 -6 -22 -12 -25 -10 -5 -10 -7 0 -12 7 -3 12 -25
12 -52 0 -66 9 -89 33 -96 27 -7 37 3 14 15 -23 13 -25 129 -2 129 8 0 15 5
15 10 0 6 -7 10 -15 10 -8 0 -15 9 -15 20 0 11 -7 20 -15 20 -8 0 -15 -9 -15
-19z"/>
<path d="M6048 16418 l42 -43 42 43 43 42 -85 0 -85 0 43 -42z"/>
<path d="M8738 16418 l42 -43 42 43 43 42 -85 0 -85 0 43 -42z"/>
<path d="M4515 16430 c-16 -18 -16 -20 -2 -20 10 0 17 5 17 11 0 6 14 9 33 7
24 -2 33 -8 35 -25 3 -19 -1 -23 -22 -23 -36 0 -72 -16 -80 -35 -15 -41 47
-82 81 -54 13 11 17 11 20 2 12 -35 23 -5 23 62 0 63 -3 76 -19 85 -31 16 -66
12 -86 -10z m85 -88 c0 -10 -5 -23 -12 -30 -17 -17 -57 -15 -64 3 -11 28 4 45
41 45 27 0 35 -4 35 -18z"/>
<path d="M4807 16437 c-23 -16 -36 -65 -26 -101 16 -55 68 -72 110 -35 21 18
21 20 4 14 -47 -17 -57 -17 -75 0 -36 33 -25 45 40 45 52 0 60 3 60 19 0 53
-71 89 -113 58z m71 -19 c25 -25 13 -38 -33 -38 -30 0 -45 4 -45 13 0 19 21
37 45 37 12 0 26 -5 33 -12z"/>
<path d="M4971 16424 c-28 -36 -27 -79 4 -109 28 -29 42 -31 73 -9 29 20 39
12 26 -23 -12 -34 -44 -45 -79 -27 -32 16 -44 11 -25 -11 8 -9 29 -15 56 -15
62 0 74 22 74 132 0 49 -4 88 -9 88 -5 0 -11 -5 -13 -11 -3 -9 -9 -9 -25 0
-34 18 -60 13 -82 -15z m95 -22 c16 -33 6 -72 -23 -83 -51 -19 -90 39 -58 88
21 31 64 28 81 -5z"/>
<path d="M5165 16425 c-50 -49 -17 -145 50 -145 38 0 75 42 75 85 0 43 -37 85
-75 85 -14 0 -37 -11 -50 -25z m93 -27 c16 -33 6 -75 -20 -89 -57 -31 -100 53
-55 109 17 22 60 10 75 -20z"/>
<path d="M5330 16365 c0 -50 4 -85 10 -85 6 0 10 24 10 53 0 59 20 97 51 97
10 0 19 5 19 10 0 14 -33 12 -49 -2 -11 -10 -14 -10 -18 0 -13 35 -23 3 -23
-73z"/>
<path d="M5450 16365 c0 -50 4 -85 10 -85 6 0 10 35 10 85 0 50 -4 85 -10 85
-6 0 -10 -35 -10 -85z"/>
<path d="M5535 16425 c-71 -70 20 -189 96 -125 20 16 21 19 7 20 -9 0 -20 -4
-23 -10 -10 -17 -44 -11 -65 10 -29 29 -17 40 46 40 51 0 54 1 54 25 0 32 -33
65 -65 65 -14 0 -37 -11 -50 -25z m85 -14 c15 -30 14 -31 -35 -31 -30 0 -45 4
-45 13 0 37 62 51 80 18z"/>
<path d="M5710 16430 c-28 -28 -12 -56 41 -71 32 -10 39 -17 37 -33 -4 -25
-33 -32 -64 -15 -33 17 -41 4 -10 -16 17 -11 35 -15 55 -10 66 14 65 65 -2 88
-30 10 -42 19 -42 33 0 23 39 31 61 13 8 -6 18 -9 22 -5 10 11 -28 36 -55 36
-13 0 -32 -9 -43 -20z"/>
<path d="M6777 16438 c-43 -32 -37 -126 8 -146 36 -17 49 -15 76 9 21 18 21
20 4 14 -47 -17 -57 -17 -75 0 -36 33 -25 45 40 45 54 0 60 2 60 20 0 28 -44
70 -73 70 -13 0 -31 -6 -40 -12z m71 -20 c25 -25 13 -38 -33 -38 -30 0 -45 4
-45 13 0 19 21 37 45 37 12 0 26 -5 33 -12z"/>
<path d="M6923 16438 c2 -7 13 -46 23 -85 10 -40 24 -73 30 -73 7 0 20 29 29
65 10 35 21 62 25 60 4 -2 15 -32 24 -65 10 -34 22 -60 28 -58 11 4 60 159 53
166 -11 11 -23 -14 -35 -68 -7 -33 -17 -60 -21 -60 -5 0 -9 5 -9 11 0 29 -33
120 -43 116 -6 -2 -18 -28 -26 -59 -19 -69 -27 -77 -35 -41 -20 82 -28 103
-37 103 -6 0 -9 -6 -6 -12z"/>
<path d="M7477 16438 c-43 -32 -37 -126 8 -146 36 -17 49 -15 76 9 21 18 21
20 4 14 -47 -17 -57 -17 -75 0 -36 33 -25 45 40 45 54 0 60 2 60 20 0 28 -44
70 -73 70 -13 0 -31 -6 -40 -12z m71 -20 c25 -25 13 -38 -33 -38 -30 0 -45 4
-45 13 0 19 21 37 45 37 12 0 26 -5 33 -12z"/>
<path d="M7725 16425 c-71 -70 20 -189 96 -125 26 21 11 27 -20 8 -26 -16 -71
4 -71 32 0 18 6 20 55 20 52 0 55 1 55 25 0 32 -33 65 -65 65 -14 0 -37 -11
-50 -25z m85 -14 c15 -30 14 -31 -35 -31 -30 0 -45 4 -45 13 0 37 62 51 80 18z"/>
<path d="M7895 16430 c-16 -18 -16 -20 -2 -20 10 0 17 5 17 11 0 6 14 9 33 7
24 -2 33 -8 35 -25 3 -19 -1 -23 -22 -23 -36 0 -72 -16 -80 -35 -15 -41 47
-82 81 -54 13 11 17 11 20 2 12 -35 23 -5 23 62 0 63 -3 76 -19 85 -31 16 -66
12 -86 -10z m85 -88 c0 -10 -5 -23 -12 -30 -17 -17 -57 -15 -64 3 -11 28 4 45
41 45 27 0 35 -4 35 -18z"/>
<path d="M8066 16431 c-27 -30 -16 -54 34 -71 53 -18 65 -46 24 -56 -16 -4
-35 -2 -46 5 -11 7 -22 10 -25 7 -10 -10 8 -25 38 -31 54 -12 104 43 67 72 -7
6 -30 16 -51 23 -48 15 -48 43 1 48 18 2 32 -1 32 -7 0 -6 7 -11 17 -11 14 0
14 2 -2 20 -23 25 -67 26 -89 1z"/>
<path d="M8237 16438 c-43 -32 -37 -126 8 -146 36 -17 49 -15 76 9 21 18 21
20 4 14 -47 -17 -57 -17 -75 0 -36 33 -25 45 40 45 54 0 60 2 60 20 0 28 -44
70 -73 70 -13 0 -31 -6 -40 -12z m71 -20 c25 -25 13 -38 -33 -38 -30 0 -45 4
-45 13 0 19 21 37 45 37 12 0 26 -5 33 -12z"/>
<path d="M8400 16430 c-28 -28 -12 -56 41 -71 32 -10 39 -17 37 -33 -4 -25
-33 -32 -64 -15 -33 17 -41 4 -10 -16 17 -11 35 -15 55 -10 66 14 65 65 -2 88
-30 10 -42 19 -42 33 0 23 39 31 61 13 8 -6 18 -9 22 -5 10 11 -28 36 -55 36
-13 0 -32 -9 -43 -20z"/>
<path d="M9391 16424 c-46 -59 -11 -144 58 -144 47 0 71 24 78 77 7 55 -24 93
-77 93 -30 0 -43 -6 -59 -26z m79 -4 c23 -12 33 -52 20 -84 -14 -37 -66 -37
-80 0 -14 37 -12 52 10 74 23 23 25 23 50 10z"/>
<path d="M9560 16335 c0 -96 3 -115 15 -115 11 0 15 11 15 42 0 33 3 39 12 30
19 -19 66 -14 88 8 25 25 27 95 4 128 -17 25 -71 31 -92 10 -9 -9 -12 -9 -12
0 0 7 -7 12 -15 12 -12 0 -15 -19 -15 -115z m118 36 c4 -38 -12 -61 -42 -61
-31 0 -46 19 -46 56 0 44 34 70 65 50 11 -8 21 -27 23 -45z"/>
<path d="M2102 16358 c-8 -8 -12 -56 -12 -150 l0 -138 200 0 200 0 0 138 c0
94 -4 142 -12 150 -17 17 -359 17 -376 0z m338 -138 l0 -100 -150 0 -150 0 0
100 0 100 150 0 150 0 0 -100z"/>
<path d="M2214 16249 l-28 -29 32 -32 c24 -25 34 -30 44 -20 9 9 7 16 -7 32
-17 19 -17 21 -2 38 21 23 21 28 3 35 -7 3 -26 -8 -42 -24z"/>
<path d="M2315 16269 c-4 -5 1 -19 11 -30 16 -18 16 -20 -1 -39 -14 -16 -16
-23 -7 -32 10 -10 20 -5 44 20 l32 32 -29 30 c-31 32 -40 36 -50 19z"/>
<path d="M658 16304 c-5 -4 -8 -70 -8 -146 0 -131 1 -138 20 -138 17 0 20 7
20 50 l0 50 51 0 c43 0 55 5 80 29 37 37 39 88 6 127 -20 23 -33 27 -93 31
-38 3 -72 2 -76 -3z m134 -51 c10 -9 18 -26 18 -39 0 -35 -26 -54 -76 -54
l-44 0 0 55 0 55 42 0 c24 0 49 -7 60 -17z"/>
<path d="M2972 16293 c-10 -18 -102 -263 -102 -271 0 -2 10 -2 22 0 14 2 25
14 33 38 11 34 14 35 68 38 l56 3 12 -41 c10 -32 17 -40 35 -40 l23 0 -25 68
c-15 37 -39 101 -54 142 -28 76 -50 97 -68 63z m57 -150 c1 -14 -65 -19 -72
-5 -3 4 5 31 16 61 l21 54 17 -49 c10 -27 18 -55 18 -61z"/>
<path d="M1290 16260 c0 -20 -5 -30 -15 -30 -8 0 -15 -7 -15 -15 0 -8 7 -15
15 -15 12 0 15 -15 15 -71 0 -86 11 -109 50 -109 34 0 42 25 10 33 -18 5 -20
14 -20 76 0 64 2 71 20 71 11 0 20 7 20 15 0 8 -9 15 -20 15 -16 0 -20 7 -20
30 0 23 -4 30 -20 30 -16 0 -20 -7 -20 -30z"/>
<path d="M11430 16160 c0 -73 4 -120 10 -120 6 0 10 24 10 53 0 57 20 97 49
97 30 0 41 -22 41 -87 0 -35 4 -63 10 -63 15 0 13 143 -2 158 -14 14 -78 16
-78 2 0 -5 -4 -10 -10 -10 -5 0 -10 20 -10 45 0 25 -4 45 -10 45 -6 0 -10 -47
-10 -120z"/>
<path d="M10617 16252 c-22 -24 -22 -65 1 -84 9 -8 36 -20 58 -26 51 -15 64
-40 33 -65 -25 -20 -66 -16 -85 9 -13 16 -34 19 -34 4 0 -22 45 -50 80 -50 51
0 80 23 80 66 0 30 -4 36 -37 50 -96 41 -106 50 -78 78 22 22 51 20 75 -4 11
-11 25 -20 30 -20 16 0 12 18 -10 40 -26 26 -90 27 -113 2z"/>
<path d="M25967 16254 c-4 -4 -7 -15 -7 -25 0 -9 -6 -20 -12 -22 -10 -4 -10
-8 -2 -14 6 -4 13 -36 16 -71 4 -64 15 -82 51 -82 9 0 17 7 17 15 0 8 -7 15
-15 15 -12 0 -15 13 -15 60 0 47 3 60 15 60 8 0 15 5 15 10 0 6 -6 10 -14 10
-8 0 -16 10 -18 22 -3 22 -19 33 -31 22z"/>
<path d="M26410 16235 c0 -16 -6 -25 -15 -25 -8 0 -15 -4 -15 -10 0 -5 7 -10
15 -10 12 0 15 -14 15 -63 0 -68 10 -87 47 -87 28 0 30 16 3 30 -16 9 -20 21
-20 65 0 48 2 55 20 55 11 0 20 5 20 10 0 6 -9 10 -20 10 -15 0 -20 7 -20 25
0 16 -6 25 -15 25 -9 0 -15 -9 -15 -25z"/>
<path d="M1123 16225 c-65 -28 -48 -94 31 -114 51 -12 63 -25 46 -46 -16 -19
-54 -19 -74 0 -19 19 -46 19 -46 0 0 -25 45 -46 91 -43 32 2 47 9 62 30 19 25
19 28 4 52 -9 13 -33 30 -54 36 -48 16 -63 28 -56 46 6 16 59 19 68 4 7 -12
45 -13 45 -2 0 14 -33 39 -60 45 -14 3 -39 0 -57 -8z"/>
<path d="M1453 16226 c-39 -18 -53 -43 -53 -96 0 -44 13 -77 39 -97 17 -13 79
-17 106 -7 25 10 45 58 45 108 0 78 -66 123 -137 92z m81 -42 c35 -35 11 -134
-33 -134 -36 0 -61 30 -61 72 0 67 54 103 94 62z"/>
<path d="M1692 16231 c-7 -4 -24 -6 -38 -3 l-24 4 0 -106 c0 -99 1 -106 20
-106 18 0 20 7 20 78 0 83 9 102 47 102 16 0 23 6 23 20 0 21 -24 27 -48 11z"/>
<path d="M1802 16225 c-50 -22 -69 -103 -37 -164 17 -33 33 -41 86 -41 38 0
79 26 79 50 0 15 -36 12 -50 -5 -7 -8 -20 -15 -29 -15 -26 0 -61 29 -61 51 0
19 6 21 58 19 94 -4 92 -4 86 33 -13 65 -73 98 -132 72z m86 -52 c14 -23 14
-23 -42 -23 -61 0 -65 4 -39 32 22 24 61 20 81 -9z"/>
<path d="M3218 16226 c-16 -8 -28 -11 -28 -5 0 5 -9 9 -20 9 -19 0 -20 -7 -20
-141 0 -128 2 -140 18 -137 12 2 18 16 22 45 4 35 8 41 20 33 17 -11 61 -13
85 -4 8 4 22 19 30 35 31 59 9 150 -41 169 -32 13 -34 13 -66 -4z m64 -43 c25
-23 24 -87 -2 -113 -41 -41 -90 -12 -90 53 0 67 49 99 92 60z"/>
<path d="M3448 16226 c-16 -8 -28 -11 -28 -5 0 5 -9 9 -20 9 -19 0 -20 -7 -20
-141 0 -128 2 -140 18 -137 12 2 18 16 22 45 4 35 8 41 20 33 17 -11 61 -13
85 -4 8 4 22 19 30 35 31 59 9 150 -41 169 -32 13 -34 13 -66 -4z m64 -43 c25
-23 24 -87 -2 -113 -41 -41 -90 -12 -90 53 0 67 49 99 92 60z"/>
<path d="M3643 16225 c-65 -28 -48 -94 31 -114 51 -12 63 -25 46 -46 -16 -19
-54 -19 -74 0 -19 19 -46 19 -46 0 0 -25 45 -46 91 -43 32 2 47 9 62 30 19 25
19 28 4 52 -9 13 -33 30 -54 36 -48 16 -63 28 -56 46 6 16 59 19 68 4 7 -12
45 -13 45 -2 0 14 -33 39 -60 45 -14 3 -39 0 -57 -8z"/>
<path d="M875 16213 c40 -101 65 -180 63 -197 -2 -12 -13 -25 -25 -31 -30 -13
-29 -35 0 -35 40 0 55 22 102 148 25 68 45 125 45 127 0 3 -9 5 -19 5 -15 0
-25 -17 -47 -82 l-27 -83 -27 80 c-22 66 -31 81 -50 83 -19 3 -21 0 -15 -15z"/>
<path d="M10810 16190 c-29 -29 -27 -94 5 -125 30 -30 65 -32 96 -4 l24 21
-25 -7 c-39 -11 -72 -8 -81 7 -19 30 -10 38 46 38 54 0 55 1 55 28 0 57 -78
84 -120 42z m83 -18 c22 -24 13 -32 -35 -32 -39 0 -49 15 -26 38 17 17 42 15
61 -6z"/>
<path d="M10985 16196 c-27 -19 -11 -33 19 -17 32 18 60 10 64 -17 3 -19 -1
-22 -32 -22 -35 0 -76 -27 -76 -50 0 -16 38 -50 56 -50 8 0 24 5 35 10 13 7
19 7 19 0 0 -5 7 -10 15 -10 19 0 21 103 2 140 -15 30 -71 39 -102 16z m85
-91 c0 -20 -43 -47 -64 -39 -19 7 -22 40 -3 47 27 12 67 7 67 -8z"/>
<path d="M11140 16125 c0 -69 3 -85 15 -85 12 0 15 14 15 63 0 65 11 87 42 87
10 0 18 5 18 10 0 14 -33 13 -48 -2 -9 -9 -12 -9 -12 0 0 7 -7 12 -15 12 -12
0 -15 -16 -15 -85z"/>
<path d="M11267 16193 c-40 -45 -23 -136 28 -149 29 -7 81 11 89 32 7 18 -14
17 -38 -1 -26 -19 -32 -19 -56 5 -25 25 -26 72 -2 93 23 21 41 21 63 1 26 -23
43 -14 24 14 -20 28 -84 31 -108 5z"/>
<path d="M26076 16188 c-23 -33 -21 -103 4 -128 33 -33 120 -21 120 15 0 17
-26 20 -35 5 -9 -14 -48 -13 -63 2 -27 27 -13 38 49 38 l61 0 -7 28 c-11 43
-34 62 -76 62 -28 0 -42 -6 -53 -22z m75 -8 c34 -19 23 -40 -21 -40 -43 0 -49
9 -24 34 18 19 20 19 45 6z"/>
<path d="M26252 16198 c-16 -16 -15 -53 1 -65 6 -6 26 -15 42 -20 17 -5 31
-17 33 -25 5 -24 -27 -30 -59 -11 -35 21 -49 11 -24 -17 27 -30 90 -27 110 4
23 34 6 62 -45 76 -23 6 -40 17 -40 25 0 22 19 28 51 15 34 -15 48 -7 29 15
-15 18 -81 20 -98 3z"/>
<path d="M2040 16022 c0 -11 8 -26 18 -35 16 -15 48 -17 234 -17 195 0 216 2
231 18 10 10 17 26 17 35 0 15 -14 17 -105 17 -63 0 -105 -4 -105 -10 0 -5
-18 -10 -39 -10 -22 0 -43 5 -46 10 -3 6 -50 10 -106 10 -90 0 -99 -2 -99 -18z"/>
<path d="M9440 15921 c0 -101 2 -121 15 -121 12 0 15 14 15 65 0 53 3 66 19
75 42 22 61 -7 61 -92 0 -36 4 -48 15 -48 12 0 15 13 15 58 0 82 -16 107 -65
107 -38 0 -40 2 -45 34 -3 19 -11 36 -17 39 -10 3 -13 -25 -13 -117z"/>
<path d="M9243 16006 c-25 -22 -28 -30 -28 -89 0 -55 4 -69 24 -91 34 -36 107
-37 139 -3 12 13 22 29 22 35 0 19 -28 14 -40 -7 -20 -39 -89 -29 -109 16 -20
43 -9 104 23 125 21 14 63 8 81 -12 19 -21 45 -27 45 -10 0 6 -11 22 -25 35
-33 34 -93 34 -132 1z"/>
<path d="M9920 15995 c0 -16 -6 -25 -15 -25 -8 0 -15 -4 -15 -10 0 -5 7 -10
15 -10 12 0 15 -14 15 -63 0 -68 10 -87 47 -87 28 0 30 16 3 30 -16 9 -20 21
-20 65 0 48 2 55 20 55 11 0 20 5 20 10 0 6 -9 10 -20 10 -15 0 -20 7 -20 25
0 16 -6 25 -15 25 -9 0 -15 -9 -15 -25z"/>
<path d="M9630 15955 c-19 -23 -5 -29 30 -15 24 10 33 10 45 0 28 -23 18 -40
-23 -40 -52 0 -80 -29 -66 -68 7 -21 17 -28 42 -30 18 -2 40 2 48 9 10 8 14 8
14 0 0 -6 7 -11 15 -11 21 0 21 117 -1 148 -18 27 -84 31 -104 7z m90 -88 c0
-20 -21 -37 -46 -37 -31 0 -41 20 -19 37 24 17 65 17 65 0z"/>
<path d="M9790 15884 c0 -68 3 -84 15 -84 12 0 15 13 15 58 0 65 8 82 38 85
12 1 22 7 22 14 0 8 -15 12 -45 11 l-45 -1 0 -83z"/>
<path d="M10026 15954 c-34 -33 -15 -69 43 -80 40 -8 49 -23 26 -40 -16 -12
-22 -12 -41 1 -29 19 -44 19 -44 0 0 -32 78 -47 113 -21 35 27 5 86 -44 86
-27 0 -42 25 -24 40 13 11 20 11 39 0 33 -17 54 -9 32 13 -22 21 -79 22 -100
1z"/>
<path d="M15025 15048 c-3 -7 -4 -600 -3 -1318 l3 -1305 1625 0 1625 0 0 1315
0 1315 -1623 3 c-1293 2 -1624 0 -1627 -10z m1629 -374 c17 -16 21 -61 8 -82
-5 -7 -28 -16 -53 -20 -38 -6 -44 -11 -44 -32 0 -18 -6 -26 -21 -28 -20 -3
-21 3 -27 80 -3 45 -3 86 -1 90 10 15 122 9 138 -8z m187 6 c11 0 19 -7 19
-15 0 -11 -12 -15 -45 -15 -38 0 -45 -3 -45 -20 0 -17 7 -20 41 -20 55 0 47
-24 -9 -28 -33 -3 -42 -7 -42 -22 0 -14 9 -20 37 -22 20 -2 38 -9 41 -15 5
-16 -114 -18 -123 -2 -4 6 -1 47 6 91 l13 80 44 -6 c25 -3 53 -6 63 -6z m-397
-52 c26 -92 24 -111 -9 -126 -36 -16 -100 -15 -114 2 -7 8 -20 44 -31 80 l-19
66 23 0 c19 0 25 -8 35 -47 17 -67 24 -78 55 -81 36 -4 41 15 21 83 -16 58
-14 75 10 75 9 0 20 -21 29 -52z m571 21 c79 -20 93 -62 38 -113 -21 -20 -23
-27 -14 -44 15 -28 14 -32 -10 -32 -13 0 -25 11 -34 34 -20 48 -35 54 -60 23
-22 -28 -45 -36 -45 -15 0 28 56 158 68 158 7 0 33 -5 57 -11z m-817 -41 c-3
-7 -19 -17 -37 -22 -21 -6 -31 -14 -29 -25 3 -12 16 -16 56 -17 55 -1 81 -19
82 -56 0 -23 -43 -51 -83 -52 -45 -1 -49 14 -7 28 55 17 45 40 -18 44 -42 2
-55 8 -67 26 -9 13 -12 31 -9 41 12 31 122 64 112 33z m1089 -75 c2 -6 -17
-35 -42 -63 l-47 -53 31 -19 c17 -11 31 -24 31 -28 0 -20 -28 -14 -72 13 l-49
30 28 31 c97 109 111 118 120 89z m-1298 -95 c65 -55 71 -63 57 -77 -14 -13
-23 -13 -68 -3 -113 27 -107 28 -65 -12 59 -58 45 -92 -17 -40 -101 85 -109
95 -92 112 15 15 21 15 80 -1 91 -24 97 -22 47 21 -27 24 -42 43 -37 50 11 19
18 16 95 -50z m1484 -23 c20 -20 37 -40 37 -45 0 -17 -36 -11 -55 10 -20 23
-24 23 -45 10 -12 -7 -11 -13 10 -35 18 -19 21 -28 12 -37 -9 -9 -17 -7 -35
10 -27 25 -40 27 -56 9 -8 -11 -5 -19 14 -37 51 -48 14 -56 -40 -9 -19 17 -35
36 -35 43 1 10 137 116 149 116 3 0 23 -16 44 -35z m-1665 -134 c45 -10 85
-21 88 -24 11 -11 -7 -27 -30 -27 -33 0 -63 -36 -50 -58 13 -20 7 -42 -10 -42
-6 0 -40 29 -75 64 -50 51 -62 68 -56 85 8 26 23 26 133 2z m1802 -16 c18 -22
9 -35 -64 -100 -46 -40 -70 -55 -77 -48 -7 7 -7 17 2 31 11 18 10 24 -5 41
-11 12 -32 21 -48 21 -22 0 -29 4 -26 17 2 11 22 20 67 29 35 8 69 15 75 18
24 10 64 5 76 -9z m-1950 -116 c30 -11 69 -25 87 -30 36 -11 50 -26 36 -40 -6
-6 -41 2 -94 21 -91 34 -105 42 -95 59 9 14 2 15 66 -10z m2051 -40 c31 -33
38 -69 14 -69 -8 0 -21 14 -30 30 -17 33 -33 36 -86 19 -45 -15 -61 -32 -53
-53 5 -12 16 -16 42 -14 45 4 52 -16 11 -31 -49 -17 -63 -14 -82 18 -28 49
-23 76 21 93 20 9 48 20 62 26 44 19 71 13 101 -19z m-2058 -46 c34 -9 68 -21
75 -26 15 -12 15 -41 0 -84 -12 -33 -14 -34 -53 -27 -22 3 -47 10 -55 14 -8 4
-34 11 -57 15 -24 4 -45 10 -47 13 -15 25 35 112 64 112 6 0 38 -8 73 -17z
m2127 -97 c0 -9 -30 -20 -80 -32 -71 -16 -80 -20 -80 -40 0 -31 25 -36 90 -19
30 8 65 15 78 15 32 0 28 -28 -5 -36 -16 -3 -44 -10 -63 -15 -89 -23 -140 -2
-140 56 0 43 12 51 106 74 82 19 94 19 94 -3z m-2195 -71 c113 -14 116 -15
113 -37 -3 -22 -9 -25 -102 -49 -39 -10 -45 -14 -30 -20 10 -4 35 -8 54 -8 44
-2 69 -16 54 -31 -16 -16 -204 9 -211 27 -9 23 16 38 92 59 l70 18 -65 9 c-36
4 -69 12 -74 17 -14 14 5 32 28 27 11 -3 44 -8 71 -12z m2254 -141 c8 -30 9
-50 2 -57 -14 -14 -29 -1 -36 33 -5 23 -12 30 -30 30 -22 0 -23 -3 -18 -35 5
-30 3 -35 -14 -35 -15 0 -22 9 -27 31 -5 25 -10 30 -28 27 -19 -2 -23 -9 -23
-37 0 -19 -6 -36 -12 -38 -15 -5 -33 37 -33 77 0 31 7 34 100 43 108 11 107
11 119 -39z m-2175 -64 c23 -22 -9 -29 -102 -23 -97 6 -120 12 -108 31 7 12
196 4 210 -8z m40 -200 l31 0 -24 -19 c-19 -14 -22 -24 -17 -45 7 -27 6 -27
-22 -12 -26 13 -31 13 -51 0 -22 -16 -25 -13 -21 19 1 10 -6 27 -16 38 -16 18
-16 19 9 19 17 0 31 8 38 22 l12 22 15 -22 c10 -15 25 -22 46 -22z m1996 20
c6 -12 21 -20 35 -20 30 0 32 -11 5 -28 -16 -10 -18 -16 -10 -32 16 -29 12
-32 -19 -16 -25 13 -31 13 -50 0 -22 -16 -25 -13 -21 19 1 10 -6 27 -16 38
-16 18 -16 19 10 19 19 0 29 6 33 20 3 11 9 20 14 20 4 0 13 -9 19 -20z
m-1880 -262 c0 -18 -110 -62 -123 -49 -7 7 8 18 44 35 62 28 79 31 79 14z
m1733 -18 c14 -11 32 -20 41 -20 9 0 16 -4 16 -10 0 -5 -13 -10 -30 -10 -30 0
-42 -21 -20 -35 6 -4 8 -11 5 -16 -3 -5 -33 5 -66 21 l-60 31 21 29 c25 35 56
39 93 10z m-1693 -31 c0 -6 -10 -25 -22 -41 l-21 -31 39 7 c21 4 43 8 48 9 5
1 10 -3 13 -9 4 -13 -73 -74 -94 -74 -19 0 -16 19 5 28 13 5 11 8 -13 12 -24
5 -29 10 -28 28 3 19 0 21 -16 12 -26 -13 -31 -13 -31 3 0 14 85 66 108 67 6
0 12 -5 12 -11z m1623 -82 c32 -13 44 -23 36 -28 -7 -4 -17 -5 -21 -2 -13 8
-38 -17 -38 -38 0 -33 -27 -20 -58 28 -23 35 -28 51 -20 60 12 15 27 12 101
-20z m-1492 -34 c16 -10 29 -21 29 -25 0 -12 -28 -10 -35 2 -11 17 -41 11 -63
-13 -27 -28 -12 -53 20 -36 29 16 35 2 11 -23 -21 -20 -23 -20 -48 -4 -42 28
-42 45 -2 83 42 38 48 39 88 16z m1334 -14 c-5 -16 1 -30 25 -54 44 -46 20
-58 -26 -14 -24 24 -43 33 -60 31 -34 -5 -30 4 14 32 46 31 55 32 47 5z m-105
-58 c0 -5 -7 -11 -15 -15 -29 -11 -15 -25 27 -28 33 -2 44 -7 47 -22 4 -23
-24 -46 -53 -46 -20 0 -20 1 3 19 27 21 15 35 -21 26 -17 -4 -30 0 -43 15 -20
22 -20 22 4 41 24 20 51 25 51 10z m-1075 -15 c41 -17 48 -53 15 -74 -11 -7
-20 -21 -20 -32 0 -11 -7 -20 -15 -20 -8 0 -15 8 -15 19 0 10 -7 24 -15 31
-12 10 -16 9 -21 -4 -7 -17 -34 -22 -34 -6 0 9 61 100 67 100 2 0 19 -7 38
-14z m148 -53 c30 -9 19 -25 -13 -18 -23 5 -30 3 -30 -8 0 -8 9 -17 21 -20 29
-8 15 -25 -16 -19 -30 5 -34 -14 -5 -23 34 -11 23 -28 -12 -21 -46 9 -51 19
-33 61 21 52 35 67 54 59 9 -3 24 -9 34 -11z m762 7 c3 -6 -6 -15 -20 -20 -32
-12 -23 -32 11 -24 29 7 33 -12 4 -21 -32 -10 -23 -25 15 -25 19 0 35 -4 35
-9 0 -9 -79 -27 -83 -19 -12 18 -37 81 -37 91 0 7 12 18 28 24 36 14 40 15 47
3z m-685 -64 c-15 -41 -12 -53 15 -60 14 -4 25 -11 25 -16 0 -13 -32 -13 -65
0 -20 8 -25 15 -20 28 4 9 10 28 13 42 6 33 23 53 34 42 5 -5 4 -20 -2 -36z
m568 32 c-3 -7 -14 -14 -26 -16 -14 -2 -22 -11 -22 -22 0 -36 12 -50 41 -50
35 0 38 -17 5 -26 -35 -8 -62 10 -70 47 -10 50 -7 59 17 69 33 13 59 12 55 -2z
m-444 -74 c-11 -58 -34 -72 -34 -20 0 49 18 92 32 78 7 -7 8 -26 2 -58z m147
1 c20 -52 13 -77 -14 -51 -18 19 -39 20 -54 5 -6 -6 -18 -9 -26 -7 -12 2 -10
12 10 56 32 70 57 69 84 -3z m113 30 c9 -14 21 -25 26 -25 6 0 10 11 10 25 0
16 6 25 15 25 12 0 15 -13 15 -55 0 -65 -14 -71 -53 -25 -14 17 -28 30 -31 30
-3 0 -6 -13 -6 -30 0 -16 -4 -30 -9 -30 -11 0 -21 36 -21 78 0 40 30 44 54 7z"/>
<path d="M16564 14646 c-10 -26 4 -48 28 -44 17 2 23 10 23 28 0 18 -6 26 -23
28 -13 2 -25 -3 -28 -12z"/>
<path d="M16970 14599 c-14 -25 -12 -27 27 -35 26 -5 32 -3 38 16 13 40 -45
57 -65 19z"/>
<path d="M15743 14240 c30 -24 43 -25 50 -6 4 9 -4 16 -25 20 -48 10 -52 7
-25 -14z"/>
<path d="M17511 14229 c-18 -7 -22 -12 -13 -21 9 -9 18 -8 37 2 45 24 26 39
-24 19z"/>
<path d="M15572 14028 c-23 -23 -11 -36 47 -50 63 -16 85 -11 79 18 -2 12 -19
22 -53 31 -62 16 -58 16 -73 1z"/>
<path d="M17492 13217 c-14 -16 -6 -27 20 -27 13 0 18 6 16 17 -4 22 -22 27
-36 10z"/>
<path d="M17420 13100 c0 -5 7 -10 16 -10 8 0 12 5 9 10 -3 6 -10 10 -16 10
-5 0 -9 -4 -9 -10z"/>
<path d="M16106 12965 c-7 -20 21 -32 37 -16 9 9 8 14 -3 21 -21 13 -27 12
-34 -5z"/>
<path d="M16590 12853 c0 -13 5 -23 10 -23 13 0 13 11 0 30 -8 12 -10 11 -10
-7z"/>
<path d="M4190 15003 c0 -37 -3 -44 -12 -35 -21 21 -75 15 -92 -10 -23 -33
-21 -103 4 -128 22 -22 69 -27 88 -8 9 9 12 9 12 0 0 -7 7 -12 15 -12 13 0 15
20 15 120 0 100 -2 120 -15 120 -11 0 -15 -12 -15 -47z m-22 -59 c15 -10 22
-25 22 -48 0 -37 -15 -56 -45 -56 -12 0 -26 5 -33 12 -17 17 -15 74 4 92 19
20 24 20 52 0z"/>
<path d="M4352 15034 c4 -21 22 -23 26 -1 2 10 -3 17 -13 17 -10 0 -15 -6 -13
-16z"/>
<path d="M9890 15003 c0 -37 -3 -44 -12 -35 -21 21 -75 15 -92 -10 -23 -33
-21 -103 4 -128 22 -22 69 -27 88 -8 9 9 12 9 12 0 0 -7 7 -12 15 -12 13 0 15
20 15 120 0 100 -2 120 -15 120 -11 0 -15 -12 -15 -47z m-22 -59 c15 -10 22
-25 22 -48 0 -37 -15 -56 -45 -56 -12 0 -26 5 -33 12 -17 17 -15 74 4 92 19
20 24 20 52 0z"/>
<path d="M10052 15034 c4 -21 22 -23 26 -1 2 10 -3 17 -13 17 -10 0 -15 -6
-13 -16z"/>
<path d="M3603 15016 c-25 -22 -28 -30 -28 -91 0 -61 3 -69 28 -91 38 -33 105
-33 135 -1 12 13 22 29 22 35 0 18 -30 15 -37 -4 -8 -20 -45 -34 -72 -27 -25
7 -51 51 -51 88 0 28 16 66 34 77 21 15 66 8 83 -12 19 -21 43 -27 43 -10 0 6
-11 22 -25 35 -33 34 -93 34 -132 1z"/>
<path d="M9303 15016 c-25 -22 -28 -30 -28 -91 0 -61 3 -69 28 -91 38 -33 105
-33 135 -1 12 13 22 29 22 35 0 18 -30 15 -37 -4 -8 -20 -45 -34 -72 -27 -25
7 -51 51 -51 88 0 28 16 66 34 77 21 15 66 8 83 -12 19 -21 43 -27 43 -10 0 6
-11 22 -25 35 -33 34 -93 34 -132 1z"/>
<path d="M3804 14963 c-17 -17 -17 -18 0 -21 9 -2 23 2 31 8 19 16 55 3 55
-21 0 -15 -7 -19 -31 -19 -46 0 -69 -16 -69 -49 0 -39 17 -50 78 -49 l52 1 0
72 c0 42 -5 76 -12 83 -18 18 -84 15 -104 -5z m86 -93 c0 -12 -9 -24 -22 -29
-30 -11 -48 -3 -48 19 0 20 13 28 48 29 16 1 22 -5 22 -19z"/>
<path d="M3960 14895 c0 -69 3 -85 15 -85 12 0 15 13 15 55 0 42 5 60 20 75
11 11 25 20 30 20 6 0 10 5 10 10 0 14 -33 13 -48 -2 -9 -9 -12 -9 -12 0 0 7
-7 12 -15 12 -12 0 -15 -16 -15 -85z"/>
<path d="M4350 14895 c0 -69 3 -85 15 -85 12 0 15 16 15 85 0 69 -3 85 -15 85
-12 0 -15 -16 -15 -85z"/>
<path d="M4420 14895 c0 -69 3 -85 15 -85 11 0 15 13 15 54 0 60 23 102 52 91
20 -8 28 -35 28 -97 0 -27 5 -48 10 -48 6 0 10 24 10 53 0 55 20 97 45 97 22
0 35 -34 35 -94 0 -43 3 -56 15 -56 19 0 21 103 2 140 -14 28 -59 39 -83 19
-11 -9 -18 -9 -26 -1 -16 16 -61 15 -76 0 -9 -9 -12 -9 -12 0 0 7 -7 12 -15
12 -12 0 -15 -16 -15 -85z"/>
<path d="M4704 14963 c-17 -17 -17 -18 0 -21 9 -2 23 2 31 8 19 16 55 3 55
-21 0 -15 -7 -19 -31 -19 -46 0 -69 -16 -69 -49 0 -39 17 -50 78 -49 l52 1 0
72 c0 42 -5 76 -12 83 -18 18 -84 15 -104 -5z m86 -93 c0 -12 -9 -24 -22 -29
-30 -11 -48 -3 -48 19 0 20 13 28 48 29 16 1 22 -5 22 -19z"/>
<path d="M4877 14962 c-24 -26 -22 -93 3 -120 23 -24 50 -28 81 -12 16 9 19 7
19 -8 0 -10 -5 -23 -12 -30 -15 -15 -54 -16 -63 -2 -10 16 -45 12 -39 -4 14
-37 95 -44 128 -10 23 22 23 204 1 204 -8 0 -15 -5 -15 -12 0 -9 -3 -9 -12 0
-18 18 -73 14 -91 -6z m81 -18 c40 -28 24 -94 -23 -94 -29 0 -45 19 -45 51 0
26 22 59 38 59 4 0 18 -7 30 -16z"/>
<path d="M5066 14958 c-23 -33 -21 -103 4 -128 33 -33 120 -21 120 15 0 17
-16 20 -25 5 -9 -14 -58 -13 -73 2 -27 27 -13 38 49 38 l61 0 -7 28 c-11 43
-34 62 -76 62 -28 0 -42 -6 -53 -22z m75 -8 c34 -19 23 -40 -21 -40 -43 0 -49
9 -24 34 18 19 20 19 45 6z"/>
<path d="M9504 14963 c-17 -17 -17 -18 0 -21 9 -2 23 2 31 8 19 16 55 3 55
-21 0 -15 -7 -19 -31 -19 -46 0 -69 -16 -69 -49 0 -39 17 -50 78 -49 l52 1 0
72 c0 42 -5 76 -12 83 -18 18 -84 15 -104 -5z m86 -93 c0 -12 -9 -24 -22 -29
-30 -11 -48 -3 -48 19 0 20 13 28 48 29 16 1 22 -5 22 -19z"/>
<path d="M9660 14895 c0 -69 3 -85 15 -85 12 0 15 13 15 55 0 42 5 60 20 75
11 11 25 20 30 20 6 0 10 5 10 10 0 14 -33 13 -48 -2 -9 -9 -12 -9 -12 0 0 7
-7 12 -15 12 -12 0 -15 -16 -15 -85z"/>
<path d="M10050 14895 c0 -69 3 -85 15 -85 12 0 15 16 15 85 0 69 -3 85 -15
85 -12 0 -15 -16 -15 -85z"/>
<path d="M10120 14895 c0 -69 3 -85 15 -85 11 0 15 13 15 54 0 60 23 102 52
91 20 -8 28 -35 28 -97 0 -27 5 -48 10 -48 6 0 10 24 10 53 0 55 20 97 45 97
22 0 35 -34 35 -94 0 -43 3 -56 15 -56 19 0 21 103 2 140 -14 28 -59 39 -83
19 -11 -9 -18 -9 -26 -1 -16 16 -61 15 -76 0 -9 -9 -12 -9 -12 0 0 7 -7 12
-15 12 -12 0 -15 -16 -15 -85z"/>
<path d="M10404 14963 c-17 -17 -17 -18 0 -21 9 -2 23 2 31 8 19 16 55 3 55
-21 0 -15 -7 -19 -31 -19 -46 0 -69 -16 -69 -49 0 -39 17 -50 78 -49 l52 1 0
72 c0 42 -5 76 -12 83 -18 18 -84 15 -104 -5z m86 -93 c0 -12 -9 -24 -22 -29
-30 -11 -48 -3 -48 19 0 20 13 28 48 29 16 1 22 -5 22 -19z"/>
<path d="M10577 14962 c-24 -26 -22 -93 3 -120 23 -24 50 -28 81 -12 16 9 19
7 19 -8 0 -10 -5 -23 -12 -30 -15 -15 -54 -16 -63 -2 -10 16 -45 12 -39 -4 14
-37 95 -44 128 -10 23 22 23 204 1 204 -8 0 -15 -5 -15 -12 0 -9 -3 -9 -12 0
-18 18 -73 14 -91 -6z m81 -18 c40 -28 24 -94 -23 -94 -29 0 -45 19 -45 51 0
26 22 59 38 59 4 0 18 -7 30 -16z"/>
<path d="M10766 14958 c-23 -33 -21 -103 4 -128 33 -33 120 -21 120 15 0 17
-16 20 -25 5 -9 -14 -58 -13 -73 2 -27 27 -13 38 49 38 l61 0 -7 28 c-11 43
-34 62 -76 62 -28 0 -42 -6 -53 -22z m75 -8 c34 -19 23 -40 -21 -40 -43 0 -49
9 -24 34 18 19 20 19 45 6z"/>
<path d="M5256 13773 c-6 -14 -5 -15 5 -6 7 7 10 15 7 18 -3 3 -9 -2 -12 -12z"/>
<path d="M10956 13773 c-6 -14 -5 -15 5 -6 7 7 10 15 7 18 -3 3 -9 -2 -12 -12z"/>
<path d="M5272 13735 c-23 -29 -39 -32 -45 -7 -4 13 -5 11 -6 -5 -1 -20 -6
-23 -46 -23 l-45 0 0 -40 0 -40 121 0 120 0 -3 42 -3 43 -47 -2 c-52 -2 -59 8
-31 39 9 10 13 18 10 18 -3 0 -14 -11 -25 -25z m-13 -71 c-9 -11 -15 -12 -25
-3 -11 9 -12 15 -3 25 9 11 15 12 25 3 11 -9 12 -15 3 -25z"/>
<path d="M10972 13735 c-23 -29 -39 -32 -45 -7 -4 13 -5 12 -6 -5 -1 -19 -7
-22 -33 -21 -56 1 -58 0 -58 -42 l0 -40 120 0 120 0 0 43 0 42 -50 -3 c-54 -4
-63 7 -33 40 9 10 13 18 10 18 -3 0 -14 -11 -25 -25z m-13 -71 c-9 -11 -15
-12 -25 -3 -11 9 -12 15 -3 25 9 11 15 12 25 3 11 -9 12 -15 3 -25z"/>
<path d="M4008 11834 c-76 -41 -87 -185 -18 -246 42 -39 115 -39 159 -2 33 27
42 64 16 64 -9 0 -26 -12 -38 -26 -31 -36 -83 -36 -114 0 -34 40 -33 127 2
161 32 33 78 33 109 0 24 -25 56 -34 56 -14 0 61 -105 100 -172 63z"/>
<path d="M4440 11705 c0 -138 1 -145 20 -145 19 0 20 7 20 145 0 138 -1 145
-20 145 -19 0 -20 -7 -20 -145z"/>
<path d="M4970 11705 c0 -138 1 -145 20 -145 19 0 20 7 20 145 0 138 -1 145
-20 145 -19 0 -20 -7 -20 -145z"/>
<path d="M16270 11705 c0 -138 1 -145 20 -145 18 0 20 7 20 68 0 77 17 112 55
112 34 0 45 -27 45 -109 0 -64 2 -71 20 -71 18 0 20 7 20 83 0 92 -12 120 -56
131 -17 5 -35 1 -50 -9 -13 -8 -26 -15 -29 -15 -3 0 -5 23 -5 50 0 43 -3 50
-20 50 -19 0 -20 -7 -20 -145z"/>
<path d="M17043 11842 c-11 -7 -31 -58 -99 -244 -13 -37 -12 -38 10 -38 18 0
25 8 35 40 l12 41 56 -3 c54 -3 57 -4 68 -38 8 -24 19 -36 33 -38 12 -2 22 -1
22 1 0 12 -94 264 -102 275 -12 14 -18 15 -35 4z m40 -114 c8 -25 13 -49 9
-52 -12 -12 -72 -6 -72 7 0 27 33 108 40 100 4 -4 14 -29 23 -55z"/>
<path d="M9650 11700 c0 -133 1 -140 20 -140 19 0 20 7 20 100 0 55 4 100 8
100 4 0 39 -45 77 -100 98 -140 105 -138 105 40 0 133 -1 140 -20 140 -19 0
-20 -7 -20 -96 0 -59 -4 -93 -10 -89 -5 3 -37 46 -71 95 -48 70 -68 90 -86 90
-23 0 -23 0 -23 -140z"/>
<path d="M15340 11834 c0 -4 17 -67 37 -141 32 -118 39 -134 56 -131 16 2 26
21 46 95 14 50 29 94 33 98 4 4 16 -26 28 -67 12 -40 25 -84 29 -98 4 -14 16
-26 28 -28 17 -3 23 11 52 120 18 68 35 131 38 141 4 15 0 18 -18 15 -20 -3
-26 -14 -45 -96 -11 -51 -24 -95 -27 -98 -6 -6 -22 44 -47 144 -11 43 -18 52
-35 52 -19 0 -25 -11 -45 -87 -13 -49 -27 -95 -31 -103 -9 -18 -11 -14 -29 65
-26 114 -30 125 -50 125 -11 0 -20 -3 -20 -6z"/>
<path d="M5280 11800 c0 -20 -5 -30 -15 -30 -8 0 -15 -7 -15 -15 0 -8 7 -15
15 -15 12 0 15 -14 15 -70 0 -57 4 -74 20 -90 24 -24 70 -27 70 -5 0 8 -4 15
-9 15 -26 0 -41 34 -41 91 0 56 1 59 25 59 32 0 34 27 3 32 -17 2 -24 11 -26
31 -2 19 -9 27 -23 27 -14 0 -19 -7 -19 -30z"/>
<path d="M10170 11800 c0 -20 -5 -30 -15 -30 -8 0 -15 -7 -15 -15 0 -8 7 -15
15 -15 12 0 15 -14 15 -70 0 -57 4 -74 20 -90 24 -24 70 -27 70 -5 0 8 -4 15
-9 15 -26 0 -41 34 -41 91 0 56 1 59 25 59 32 0 34 27 3 32 -17 2 -24 11 -26
31 -2 19 -9 27 -23 27 -14 0 -19 -7 -19 -30z"/>
<path d="M16140 11800 c0 -20 -5 -30 -15 -30 -8 0 -15 -7 -15 -15 0 -8 7 -15
15 -15 12 0 15 -14 15 -70 0 -57 4 -74 20 -90 24 -24 70 -27 70 -5 0 8 -4 15
-9 15 -26 0 -41 34 -41 91 0 56 1 59 25 59 32 0 34 27 3 32 -17 2 -24 11 -26
31 -2 19 -9 27 -23 27 -14 0 -19 -7 -19 -30z"/>
<path d="M4275 11773 c-23 -6 -55 -32 -55 -45 0 -12 34 -10 47 3 19 19 68 7
71 -18 3 -19 -3 -22 -45 -29 -58 -8 -83 -28 -83 -65 0 -51 72 -78 112 -42 17
15 18 15 18 0 0 -10 8 -17 20 -17 18 0 20 7 20 88 0 48 -4 92 -8 99 -4 6 -20
17 -35 22 -30 12 -30 12 -62 4z m65 -133 c0 -23 -44 -55 -65 -46 -46 17 -18
66 37 66 21 0 28 -5 28 -20z"/>
<path d="M4574 11766 c-39 -17 -58 -63 -51 -119 7 -52 44 -87 91 -87 36 0 86
33 86 56 0 20 -27 17 -50 -6 -27 -27 -44 -25 -69 6 -40 51 -17 124 40 124 17
0 32 -6 35 -15 8 -19 44 -20 44 -2 0 39 -76 65 -126 43z"/>
<path d="M5115 11773 c-23 -6 -55 -32 -55 -45 0 -12 34 -10 47 3 19 19 68 7
71 -18 3 -19 -3 -22 -45 -29 -58 -8 -83 -28 -83 -65 0 -51 72 -78 112 -42 17
15 18 15 18 0 0 -10 8 -17 20 -17 18 0 20 7 20 88 0 48 -4 92 -8 99 -4 6 -20
17 -35 22 -30 12 -30 12 -62 4z m65 -133 c0 -23 -44 -55 -65 -46 -46 17 -18
66 37 66 21 0 28 -5 28 -20z"/>
<path d="M5454 11766 c-88 -39 -59 -206 36 -206 69 0 104 39 102 116 0 35 -6
52 -24 69 -30 30 -75 38 -114 21z m82 -43 c21 -28 17 -90 -6 -113 -26 -26 -36
-25 -65 5 -29 28 -32 70 -9 103 18 27 61 29 80 5z"/>
<path d="M5698 11766 c-16 -8 -28 -11 -28 -5 0 5 -9 9 -20 9 -19 0 -20 -7 -20
-105 0 -98 1 -105 20 -105 18 0 20 7 20 73 0 77 15 107 53 107 10 0 17 8 17
20 0 24 -6 25 -42 6z"/>
<path d="M9974 11766 c-88 -39 -59 -206 36 -206 69 0 104 39 102 116 0 35 -6
52 -24 69 -30 30 -75 38 -114 21z m82 -43 c7 -10 14 -37 14 -60 0 -34 -5 -46
-24 -58 -58 -38 -113 52 -70 113 18 27 61 29 80 5z"/>
<path d="M10334 11766 c-89 -39 -59 -206 37 -206 38 0 89 26 89 45 0 19 -24
19 -54 0 -27 -18 -69 -7 -80 20 -11 29 3 35 75 35 75 0 78 2 58 60 -8 22 -22
37 -45 46 -40 17 -41 17 -80 0z m84 -53 c14 -23 14 -23 -42 -23 -58 0 -60 3
-33 38 15 19 58 10 75 -15z"/>
<path d="M10542 11765 c-30 -13 -33 -18 -30 -52 3 -36 6 -39 51 -54 61 -20 74
-33 57 -54 -16 -19 -41 -19 -66 0 -33 25 -66 18 -46 -11 33 -50 145 -40 159
14 9 36 -7 55 -63 73 -36 11 -49 21 -49 35 0 14 8 20 33 22 18 2 32 -1 32 -7
0 -6 11 -11 25 -11 22 0 24 3 16 19 -6 10 -25 24 -42 30 -39 13 -36 14 -77 -4z"/>
<path d="M15744 11766 c-89 -39 -59 -206 37 -206 44 0 88 26 89 53 0 12 -29 8
-54 -8 -27 -18 -69 -7 -80 20 -11 29 3 35 75 35 75 0 78 2 58 60 -8 22 -22 37
-45 46 -40 17 -41 17 -80 0z m84 -53 c14 -23 14 -23 -42 -23 -58 0 -60 3 -33
38 15 19 58 10 75 -15z"/>
<path d="M15975 11773 c-23 -6 -55 -32 -55 -45 0 -12 34 -10 47 3 19 19 68 7
71 -18 3 -19 -3 -22 -45 -29 -58 -8 -83 -28 -83 -65 0 -51 72 -78 112 -42 17
15 18 15 18 0 0 -10 8 -17 20 -17 18 0 20 7 20 88 0 48 -4 92 -8 99 -4 6 -20
17 -35 22 -30 12 -30 12 -62 4z m65 -133 c0 -23 -44 -55 -65 -46 -46 17 -18
66 37 66 21 0 28 -5 28 -20z"/>
<path d="M16544 11766 c-89 -39 -59 -206 37 -206 38 0 89 26 89 45 0 19 -24
19 -54 0 -27 -18 -69 -7 -80 20 -11 29 3 35 75 35 75 0 78 2 58 60 -8 22 -22
37 -45 46 -40 17 -41 17 -80 0z m84 -53 c14 -23 14 -23 -42 -23 -58 0 -60 3
-33 38 15 19 58 10 75 -15z"/>
<path d="M16788 11766 c-16 -8 -28 -11 -28 -5 0 5 -9 9 -20 9 -19 0 -20 -7
-20 -105 0 -98 1 -105 20 -105 18 0 20 7 20 73 0 77 15 107 53 107 10 0 17 8
17 20 0 24 -6 25 -42 6z"/>
<path d="M17293 11765 c-18 -8 -33 -10 -33 -5 0 6 -9 10 -20 10 -19 0 -20 -7
-20 -140 0 -133 1 -140 20 -140 17 0 20 7 20 51 0 50 0 50 22 35 33 -23 75
-20 103 9 21 20 25 34 25 79 0 86 -51 130 -117 101z m59 -42 c21 -19 24 -79 4
-105 -30 -41 -96 -9 -96 46 0 64 51 97 92 59z"/>
<path d="M17523 11765 c-18 -8 -33 -10 -33 -5 0 6 -9 10 -20 10 -19 0 -20 -7
-20 -140 0 -133 1 -140 20 -140 17 0 20 7 20 51 0 50 0 50 22 35 33 -23 75
-20 103 9 21 20 25 34 25 79 0 86 -51 130 -117 101z m59 -42 c21 -19 24 -79 4
-105 -30 -41 -96 -9 -96 46 0 64 51 97 92 59z"/>
<path d="M4740 11685 c0 -72 3 -88 20 -105 24 -24 72 -26 94 -4 15 14 17 14
22 0 3 -9 12 -16 20 -16 11 0 14 22 14 105 0 83 -3 105 -14 105 -10 0 -15 -19
-18 -71 -3 -59 -8 -75 -26 -90 -23 -18 -50 -16 -64 5 -4 6 -8 44 -8 84 0 65
-2 72 -20 72 -18 0 -20 -7 -20 -85z"/>
</g>
</svg>
