<?xml version="1.0" standalone="no"?>
<!DOCTYPE svg PUBLIC "-//W3C//DTD SVG 20010904//EN"
 "http://www.w3.org/TR/2001/REC-SVG-20010904/DTD/svg10.dtd">
<svg version="1.0" xmlns="http://www.w3.org/2000/svg"
 width="2880.000000pt" height="1800.000000pt" viewBox="0 0 2880.000000 1800.000000"
 preserveAspectRatio="xMidYMid meet">

<g transform="translate(0.000000,1800.000000) scale(0.100000,-0.100000)"
fill="#000000" stroke="none">
<path d="M0 17475 l0 -525 14400 0 14400 0 0 525 0 525 -14400 0 -14400 0 0
-525z m26834 176 c24 -27 13 -40 -14 -16 -20 18 -20 18 -20 -78 0 -53 -4 -99
-10 -102 -6 -4 -10 30 -10 94 0 100 -6 115 -30 86 -7 -8 -17 -15 -23 -15 -6 0
4 16 23 35 35 37 48 36 84 -4z m-18659 -24 l60 -22 3 -87 c2 -51 -2 -97 -8
-108 -6 -12 -36 -37 -66 -56 l-55 -36 -56 34 c-30 18 -61 45 -69 60 -15 28
-19 164 -6 184 7 11 108 53 127 53 6 0 37 -10 70 -22z m17946 0 c58 -39 81
-83 77 -148 -7 -102 -88 -169 -186 -154 -65 10 -127 72 -137 137 -11 75 35
154 105 181 38 14 108 6 141 -16z m-25333 1 c8 -8 12 -54 12 -140 0 -116 -2
-128 -19 -138 -11 -6 -87 -10 -175 -10 -127 0 -157 3 -170 16 -23 23 -23 245
0 268 13 13 44 16 178 16 113 0 166 -4 174 -12z m27456 -4 c9 -23 7 -87 -3
-102 -5 -9 -26 -12 -67 -10 l-59 3 -3 39 c-2 22 -1 50 2 63 6 21 12 23 65 23
44 0 60 -4 65 -16z m161 -49 l0 -60 -62 -3 -63 -3 0 59 c0 32 3 62 7 66 4 4
32 6 63 4 l55 -3 0 -60z m-26515 48 c0 -4 -28 -36 -62 -70 l-62 -63 64 -59
c45 -41 62 -62 55 -70 -7 -7 -33 10 -85 58 l-75 69 70 71 c62 63 95 85 95 64z
m25640 -58 l0 -54 55 -3 c71 -4 72 -22 1 -26 l-55 -3 -3 -55 c-2 -30 -7 -54
-13 -54 -5 0 -11 24 -13 54 l-3 55 -55 3 c-71 4 -70 22 1 26 l55 3 0 53 c0 29
3 56 6 59 15 15 24 -7 24 -58z m-7517 17 l27 -28 -30 -29 c-16 -16 -32 -26
-35 -23 -3 3 1 11 10 18 21 17 19 30 -6 30 -32 0 -79 -53 -79 -90 0 -74 86
-105 141 -51 16 16 29 37 29 45 0 9 5 16 10 16 30 0 -18 -86 -56 -100 -46 -18
-74 -12 -111 25 -32 32 -35 40 -30 76 6 49 21 67 70 89 22 10 34 21 28 24 -13
8 -15 26 -3 26 5 0 20 -13 35 -28z m6717 -11 c0 -5 -12 -11 -27 -13 l-28 -3
-3 -103 -3 -103 118 3 118 3 3 80 c4 109 -1 125 -38 125 -17 0 -30 5 -30 10 0
14 64 12 78 -2 8 -8 12 -48 12 -114 0 -135 2 -134 -145 -134 -146 0 -145 0
-145 126 0 115 8 134 55 134 19 0 35 -4 35 -9z m-12730 -106 c0 -78 -3 -95
-15 -95 -12 0 -15 15 -15 75 0 72 -1 75 -20 63 -32 -20 -37 2 -7 28 50 43 57
35 57 -71z m148 83 c23 -23 13 -66 -24 -107 l-35 -40 37 -3 c21 -2 39 -9 42
-15 3 -10 -14 -13 -62 -13 -80 0 -83 9 -21 70 46 45 58 83 30 94 -9 3 -24 -3
-35 -14 -36 -36 -53 -23 -24 18 17 25 71 31 92 10z m172 2 c0 -22 -85 -180
-97 -180 -20 0 -16 19 22 87 19 35 35 66 35 68 0 3 -20 5 -45 5 -33 0 -45 4
-45 15 0 12 14 15 65 15 36 0 65 -4 65 -10z m176 -15 c20 -31 20 -109 -1 -141
-22 -35 -83 -31 -103 6 -16 30 -11 122 7 144 21 26 78 20 97 -9z m220 0 c20
-31 20 -109 -1 -141 -22 -35 -83 -31 -103 6 -16 30 -11 122 7 144 21 26 78 20
97 -9z m184 -70 c0 -78 -3 -95 -15 -95 -12 0 -15 15 -15 75 0 41 -3 75 -7 75
-3 0 -15 -7 -25 -17 -17 -15 -18 -15 -18 4 0 23 35 52 63 52 15 1 17 -10 17
-94z m-13731 39 c45 43 52 12 7 -32 l-36 -37 -36 37 c-45 44 -38 75 7 32 l29
-28 29 28z m27065 -40 c18 -18 21 -76 6 -105 -8 -15 -21 -19 -58 -19 -27 0
-53 5 -60 12 -19 19 -15 105 6 117 26 16 89 13 106 -5z m160 10 c12 -5 16 -21
16 -65 0 -53 -2 -59 -23 -65 -13 -3 -41 -4 -63 -2 l-39 3 -3 59 c-2 41 1 62
10 67 15 10 79 12 102 3z m-14039 -85 c0 -7 -8 -15 -17 -17 -18 -3 -25 18 -11
32 10 10 28 1 28 -15z m220 0 c0 -7 -8 -15 -17 -17 -18 -3 -25 18 -11 32 10
10 28 1 28 -15z m213 -2 c2 -10 -3 -17 -12 -17 -18 0 -29 16 -21 31 9 14 29 6
33 -14z"/>
<path d="M8110 17484 l0 -135 31 18 c62 36 79 67 79 144 l0 70 -42 19 c-70 32
-68 35 -68 -116z"/>
<path d="M25985 17616 c-50 -22 -77 -60 -83 -114 -8 -90 48 -152 140 -152 38
0 54 6 82 30 81 71 67 189 -28 234 -41 19 -71 20 -111 2z m65 -108 c0 -61 0
-61 20 -43 34 31 36 6 2 -27 l-32 -32 -35 34 c-19 18 -33 36 -30 39 3 2 16 -6
30 -19 l25 -23 0 66 c0 38 4 67 10 67 6 0 10 -27 10 -62z"/>
<path d="M457 17613 c-4 -3 -7 -60 -7 -125 l0 -118 50 0 50 0 0 125 0 125 -43
0 c-24 0 -47 -3 -50 -7z m56 -50 c-7 -2 -21 -2 -30 0 -10 3 -4 5 12 5 17 0 24
-2 18 -5z m7 -43 c0 -5 -9 -10 -20 -10 -11 0 -20 5 -20 10 0 6 9 10 20 10 11
0 20 -4 20 -10z m-7 -47 c-7 -2 -21 -2 -30 0 -10 3 -4 5 12 5 17 0 24 -2 18
-5z"/>
<path d="M577 17613 c-4 -3 -7 -60 -7 -125 l0 -119 103 3 102 3 3 114 c2 85
-1 117 -10 123 -16 9 -182 11 -191 1z"/>
<path d="M28130 17576 l0 -46 51 0 50 0 -3 43 -3 42 -47 3 -48 3 0 -45z"/>
<path d="M28300 17575 l0 -45 45 0 45 0 0 45 0 45 -45 0 -45 0 0 -45z"/>
<path d="M14426 17518 c-22 -31 -20 -81 4 -109 20 -24 20 -24 35 -5 20 26 19
100 -1 120 -20 20 -20 20 -38 -6z"/>
<path d="M14646 17518 c-22 -31 -20 -81 4 -109 20 -24 20 -24 35 -5 20 26 19
100 -1 120 -20 20 -20 20 -38 -6z"/>
<path d="M28134 17447 c-3 -9 -4 -30 -2 -49 3 -32 4 -33 48 -33 l45 0 0 45 0
45 -43 3 c-30 2 -44 -1 -48 -11z"/>
<path d="M28300 17411 l0 -51 46 0 45 0 -3 48 -3 47 -42 3 -43 3 0 -50z"/>
<path d="M26693 16590 c-12 -5 -26 -18 -32 -29 -7 -13 -11 -121 -11 -299 0
-261 1 -281 19 -303 l19 -24 622 0 622 0 19 24 c18 22 19 42 19 306 0 264 -1
284 -19 306 l-19 24 -609 2 c-338 1 -618 -2 -630 -7z m227 -295 l0 -85 50 0
c38 0 50 -4 50 -15 0 -12 -14 -15 -65 -15 l-65 0 0 100 c0 82 3 100 15 100 12
0 15 -16 15 -85z m790 55 c0 -11 7 -20 15 -20 8 0 15 -7 15 -15 0 -8 -7 -15
-15 -15 -11 0 -15 -12 -15 -45 0 -33 4 -45 15 -45 8 0 15 -7 15 -15 0 -22 -47
-19 -60 4 -5 11 -10 38 -10 60 0 23 -4 41 -10 41 -5 0 -10 7 -10 15 0 8 4 15
9 15 5 0 11 9 14 20 3 11 12 20 21 20 9 0 16 -8 16 -20z m-561 -46 c25 -32 26
-57 4 -95 -16 -27 -34 -34 -73 -30 -23 3 -60 49 -60 75 0 39 37 76 75 76 24 0
39 -7 54 -26z m171 -59 c0 -68 -3 -85 -19 -99 -24 -22 -90 -18 -105 6 -14 23
0 35 24 20 28 -17 48 -15 60 8 9 18 8 19 -12 11 -65 -24 -115 56 -72 117 13
18 24 22 70 21 l54 -2 0 -82z m149 59 c25 -32 26 -57 4 -95 -16 -27 -34 -34
-73 -30 -23 3 -60 49 -60 75 0 39 37 76 75 76 24 0 39 -7 54 -26z m71 -11 c0
-62 10 -84 34 -81 18 3 21 11 24 61 3 49 6 57 22 57 18 0 20 -7 20 -74 l0 -74
-41 -4 c-70 -6 -84 7 -87 85 -2 55 0 67 13 67 11 0 15 -10 15 -37z"/>
<path d="M27072 16288 c-6 -6 -12 -21 -12 -33 0 -47 55 -63 66 -18 11 44 -26
79 -54 51z"/>
<path d="M27224 16286 c-3 -8 -4 -25 -2 -38 2 -17 9 -23 28 -23 22 0 25 4 25
35 0 29 -4 36 -23 38 -13 2 -24 -3 -28 -12z"/>
<path d="M27392 16288 c-6 -6 -12 -21 -12 -33 0 -47 55 -63 66 -18 11 44 -26
79 -54 51z"/>
<path d="M4700 16580 c0 -5 5 -10 10 -10 6 0 10 5 10 10 0 6 -4 10 -10 10 -5
0 -10 -4 -10 -10z"/>
<path d="M6590 16490 c0 -60 4 -100 10 -100 6 0 10 40 10 100 0 60 -4 100 -10
100 -6 0 -10 -40 -10 -100z"/>
<path d="M3710 16560 c-31 -31 -28 -113 5 -145 13 -14 33 -25 44 -25 28 0 69
20 75 36 7 19 -8 18 -24 -1 -18 -21 -64 -19 -85 5 -27 29 -24 99 5 122 29 23
41 23 74 -3 33 -26 45 -18 17 10 -28 28 -84 28 -111 1z"/>
<path d="M5630 16485 c0 -114 18 -128 22 -17 l3 77 54 -77 c30 -43 58 -78 63
-78 4 0 8 43 8 95 0 57 -4 95 -10 95 -6 0 -10 -31 -10 -72 l-1 -73 -22 26
c-12 14 -37 47 -54 72 -18 26 -37 47 -43 47 -6 0 -10 -37 -10 -95z"/>
<path d="M6270 16485 c0 -57 4 -95 10 -95 6 0 10 18 10 40 0 36 3 40 25 40 19
0 29 -10 45 -40 11 -22 25 -40 30 -40 6 0 1 18 -10 41 -20 38 -20 42 -4 53 22
17 21 66 -2 83 -10 7 -37 13 -61 13 l-43 0 0 -95z m100 60 c22 -23 1 -49 -44
-53 l-36 -3 0 42 c0 41 0 41 32 35 18 -4 39 -13 48 -21z"/>
<path d="M7950 16570 c0 -5 14 -10 30 -10 l30 0 0 -85 c0 -69 3 -85 15 -85 12
0 15 16 15 85 l0 85 30 0 c17 0 30 5 30 10 0 6 -32 10 -75 10 -43 0 -75 -4
-75 -10z"/>
<path d="M4040 16551 c0 -11 -6 -22 -12 -24 -10 -4 -10 -6 0 -6 8 -1 12 -19
12 -56 0 -43 4 -56 19 -65 25 -13 31 -13 31 0 0 6 -7 10 -15 10 -24 0 -21 107
3 113 16 4 16 5 0 6 -11 1 -18 9 -18 21 0 11 -4 20 -10 20 -5 0 -10 -9 -10
-19z"/>
<path d="M8120 16518 c-43 -46 -15 -128 44 -128 42 0 66 26 66 73 0 68 -66
101 -110 55z m79 -30 c16 -44 -22 -94 -52 -70 -20 17 -26 43 -16 70 11 30 57
30 68 0z"/>
<path d="M8270 16440 c0 -60 4 -100 10 -100 6 0 10 17 10 37 0 29 3 34 12 25
7 -7 25 -12 41 -12 23 0 31 7 43 35 17 41 11 76 -17 101 -17 15 -25 16 -50 7
-16 -6 -29 -7 -29 -2 0 5 -4 9 -10 9 -6 0 -10 -40 -10 -100z m94 54 c12 -31 6
-63 -13 -74 -25 -13 -27 -13 -45 6 -19 18 -21 55 -4 72 17 17 55 15 62 -4z"/>
<path d="M3890 16520 c-8 -5 -12 -12 -8 -15 3 -4 15 -1 26 6 25 16 52 5 52
-21 0 -16 -6 -20 -34 -20 -39 0 -60 -20 -51 -49 8 -25 38 -35 65 -21 13 7 20
7 20 0 0 -5 5 -10 10 -10 14 0 12 114 -2 128 -14 14 -57 16 -78 2z m68 -82
c-3 -25 -43 -37 -60 -20 -19 19 0 42 32 42 27 0 31 -3 28 -22z"/>
<path d="M4129 16514 c-19 -23 -16 -80 6 -104 23 -26 57 -26 80 0 10 11 13 20
7 20 -6 0 -14 -4 -17 -10 -9 -15 -51 -12 -65 5 -19 22 -3 35 46 35 35 0 44 3
44 18 -1 46 -71 72 -101 36z m69 -6 c22 -22 13 -38 -22 -38 -41 0 -52 12 -30
34 18 19 36 20 52 4z"/>
<path d="M4282 16510 c-35 -56 9 -126 64 -101 24 11 25 10 22 -16 -2 -22 -9
-29 -31 -31 -16 -2 -35 3 -44 10 -14 11 -15 11 -11 -2 6 -19 74 -26 94 -9 17
14 21 169 4 169 -5 0 -10 -5 -10 -12 0 -9 -3 -9 -12 0 -19 19 -62 14 -76 -8z
m76 -2 c13 -13 16 -47 6 -72 -4 -9 -18 -16 -34 -16 -29 0 -40 15 -40 54 0 26
17 46 40 46 9 0 21 -5 28 -12z"/>
<path d="M4446 16508 c-23 -32 -20 -65 9 -93 31 -32 58 -32 84 1 40 51 16 114
-44 114 -24 0 -39 -7 -49 -22z m78 -4 c19 -18 21 -65 4 -82 -7 -7 -21 -12 -33
-12 -29 0 -45 19 -45 51 0 29 23 59 45 59 7 0 21 -7 29 -16z"/>
<path d="M4590 16458 c0 -39 4 -68 10 -68 6 0 10 21 10 48 0 52 5 63 35 79 16
10 14 11 -18 10 l-37 -1 0 -68z"/>
<path d="M4700 16460 c0 -40 4 -70 10 -70 6 0 10 30 10 70 0 40 -4 70 -10 70
-6 0 -10 -30 -10 -70z"/>
<path d="M4777 16512 c-35 -38 -8 -122 39 -122 22 0 54 19 54 32 0 9 -3 9 -12
0 -17 -17 -65 -15 -72 4 -11 30 -6 34 45 34 48 0 50 1 43 23 -3 12 -11 28 -16
35 -15 18 -63 15 -81 -6z m73 -7 c17 -21 3 -35 -36 -35 -35 0 -44 16 -22 38
16 16 43 15 58 -3z"/>
<path d="M4919 16514 c-18 -22 -2 -44 41 -58 52 -16 46 -41 -9 -40 -39 1 -42
-1 -26 -13 33 -23 85 -8 85 26 0 22 -16 36 -52 45 -31 7 -37 33 -12 43 9 3 25
1 36 -6 11 -7 23 -10 26 -6 10 10 -20 25 -49 25 -15 0 -32 -7 -40 -16z"/>
<path d="M5223 16493 l37 -38 37 38 38 37 -75 0 -75 0 38 -37z"/>
<path d="M5839 16514 c-19 -23 -16 -80 6 -104 23 -26 57 -26 80 0 10 11 13 20
7 20 -6 0 -14 -4 -17 -10 -9 -15 -51 -12 -65 5 -19 22 -3 35 46 35 35 0 44 3
44 18 -1 46 -71 72 -101 36z m69 -6 c22 -22 13 -38 -22 -38 -41 0 -52 12 -30
34 18 19 36 20 52 4z"/>
<path d="M5993 16460 c11 -38 24 -70 28 -70 4 0 15 25 24 55 8 30 18 55 20 55
2 0 12 -25 20 -55 9 -30 20 -55 24 -55 4 0 17 32 28 70 12 39 17 70 12 70 -4
0 -13 -19 -19 -42 -19 -74 -22 -75 -38 -15 -9 31 -21 57 -27 57 -7 0 -17 -25
-24 -55 -7 -30 -17 -53 -22 -50 -5 4 -9 12 -9 18 0 24 -21 87 -29 87 -5 0 0
-31 12 -70z"/>
<path d="M6449 16514 c-19 -23 -16 -80 6 -104 23 -26 57 -26 80 0 10 11 13 20
7 20 -6 0 -14 -4 -17 -10 -9 -15 -51 -12 -65 5 -19 22 -3 35 46 35 35 0 44 3
44 18 -1 46 -71 72 -101 36z m69 -6 c22 -22 13 -38 -22 -38 -41 0 -52 12 -30
34 18 19 36 20 52 4z"/>
<path d="M6667 16512 c-35 -38 -8 -122 39 -122 22 0 54 19 54 32 0 9 -3 9 -12
0 -17 -17 -65 -15 -72 4 -11 30 -6 34 45 34 48 0 50 1 43 23 -3 12 -11 28 -16
35 -15 18 -63 15 -81 -6z m73 -7 c17 -21 3 -35 -36 -35 -35 0 -44 16 -22 38
16 16 43 15 58 -3z"/>
<path d="M6820 16520 c-8 -5 -12 -12 -8 -15 3 -4 15 -1 26 6 25 16 52 5 52
-21 0 -16 -6 -20 -34 -20 -39 0 -60 -20 -51 -49 8 -25 38 -35 65 -21 13 7 20
7 20 0 0 -5 5 -10 10 -10 14 0 12 114 -2 128 -14 14 -57 16 -78 2z m68 -82
c-3 -25 -43 -37 -60 -20 -19 19 0 42 32 42 27 0 31 -3 28 -22z"/>
<path d="M6973 16524 c-7 -3 -13 -16 -13 -29 0 -20 8 -27 40 -36 55 -17 51
-45 -5 -43 -35 2 -37 0 -20 -12 24 -18 35 -18 63 2 33 23 27 44 -18 61 -41 17
-52 39 -24 50 9 3 26 1 36 -6 16 -10 19 -10 16 1 -5 13 -53 21 -75 12z"/>
<path d="M7109 16514 c-19 -23 -16 -80 6 -104 23 -26 57 -26 80 0 10 11 13 20
7 20 -6 0 -14 -4 -17 -10 -9 -15 -51 -12 -65 5 -19 22 -3 35 46 35 35 0 44 3
44 18 -1 46 -71 72 -101 36z m69 -6 c22 -22 13 -38 -22 -38 -41 0 -52 12 -30
34 18 19 36 20 52 4z"/>
<path d="M7263 16524 c-7 -3 -13 -16 -13 -29 0 -19 8 -27 40 -36 41 -13 53
-35 24 -46 -10 -3 -31 -1 -48 5 l-31 11 24 -19 c28 -24 40 -25 69 -4 33 23 27
44 -18 61 -41 17 -52 39 -24 50 9 3 26 1 36 -6 16 -10 19 -10 16 1 -5 13 -53
21 -75 12z"/>
<path d="M7553 16493 l37 -38 37 38 38 37 -75 0 -75 0 38 -37z"/>
<path d="M1822 16448 c-8 -8 -12 -52 -12 -130 l0 -118 170 0 170 0 0 118 c0
78 -4 122 -12 130 -17 17 -299 17 -316 0z m288 -118 l0 -91 -127 3 -128 3 -3
74 c-2 41 -1 80 2 88 4 10 35 13 131 13 l125 0 0 -90z"/>
<path d="M1920 16355 l-23 -25 23 -25 c26 -28 54 -19 30 10 -10 12 -10 19 -2
27 14 14 16 38 4 38 -5 0 -19 -11 -32 -25z"/>
<path d="M2005 16370 c-4 -6 -1 -17 5 -25 10 -12 10 -18 0 -30 -22 -26 4 -43
30 -20 25 23 26 47 2 68 -22 20 -28 21 -37 7z"/>
<path d="M555 16402 c-3 -3 -5 -59 -5 -124 0 -96 3 -118 14 -118 10 0 16 14
18 43 l3 42 47 3 c79 5 114 73 66 126 -18 19 -35 25 -81 28 -31 3 -59 2 -62 0z
m113 -44 c17 -17 15 -65 -4 -72 -9 -3 -31 -6 -50 -6 -34 0 -34 0 -34 45 l0 45
38 0 c21 0 43 -5 50 -12z"/>
<path d="M2562 16397 c-6 -7 -27 -56 -46 -108 -19 -52 -37 -102 -41 -111 -5
-14 -2 -18 12 -18 14 0 23 10 29 33 9 31 12 32 59 32 47 0 50 -1 59 -32 6 -23
15 -33 29 -33 14 0 17 4 12 18 -4 9 -23 60 -42 112 -38 107 -53 129 -71 107z
m31 -92 l16 -45 -36 0 c-29 0 -34 3 -28 18 4 9 12 29 17 45 5 15 11 27 13 27
2 0 10 -20 18 -45z"/>
<path d="M1110 16370 c0 -10 -8 -24 -17 -30 -17 -10 -17 -10 0 -20 13 -9 17
-25 17 -73 0 -68 10 -87 47 -87 28 0 31 26 3 33 -17 4 -20 14 -20 66 0 54 2
61 20 61 11 0 20 5 20 10 0 6 -9 10 -20 10 -15 0 -20 7 -20 25 0 16 -6 25 -15
25 -8 0 -15 -9 -15 -20z"/>
<path d="M9190 16357 c-28 -14 -38 -51 -20 -72 7 -8 30 -20 52 -25 43 -12 57
-32 38 -55 -17 -20 -67 -19 -78 1 -5 9 -15 15 -22 12 -23 -7 26 -48 58 -48 37
0 72 26 72 54 0 28 -13 39 -63 56 -45 14 -58 37 -32 56 24 18 40 18 59 -1 19
-19 37 -19 30 -1 -4 11 -56 38 -68 36 -1 0 -12 -6 -26 -13z"/>
<path d="M9880 16270 c0 -60 4 -100 10 -100 6 0 10 24 10 54 0 59 16 82 50 71
17 -5 20 -15 20 -66 0 -33 4 -59 10 -59 6 0 10 28 10 65 0 59 -2 67 -22 74
-13 5 -33 5 -45 0 -21 -8 -23 -6 -23 26 0 19 -4 35 -10 35 -6 0 -10 -40 -10
-100z"/>
<path d="M26043 16335 c-6 -14 -7 -27 -2 -31 5 -3 9 -23 9 -45 0 -50 15 -79
40 -79 23 0 27 15 5 24 -10 4 -15 20 -15 51 0 33 4 45 15 45 8 0 15 7 15 15 0
8 -7 15 -15 15 -8 0 -15 7 -15 15 0 24 -24 17 -37 -10z"/>
<path d="M26440 16345 c0 -8 -4 -15 -10 -15 -5 0 -10 -7 -10 -15 0 -8 5 -15
10 -15 6 0 10 -25 10 -55 0 -50 2 -55 25 -61 32 -8 46 4 22 17 -24 14 -24 94
1 104 16 6 16 7 0 19 -10 7 -18 18 -18 25 0 6 -7 11 -15 11 -8 0 -15 -7 -15
-15z"/>
<path d="M971 16337 c-61 -31 -52 -72 20 -97 25 -9 44 -22 44 -30 0 -18 -53
-26 -68 -11 -16 16 -37 13 -37 -4 0 -36 95 -48 124 -16 30 33 17 63 -34 82
-46 17 -64 44 -36 55 9 3 27 -1 41 -10 28 -18 47 -14 39 9 -4 10 -56 37 -68
35 -1 0 -12 -6 -25 -13z"/>
<path d="M1254 16336 c-36 -16 -44 -32 -44 -90 0 -54 30 -86 81 -86 51 0 79
33 79 93 0 45 -24 87 -49 87 -5 0 -15 2 -23 5 -7 2 -27 -2 -44 -9z m84 -74 c5
-49 -13 -74 -51 -70 -36 3 -54 37 -43 82 14 58 88 48 94 -12z"/>
<path d="M1477 16343 c-4 -3 -20 -6 -37 -5 l-30 1 0 -90 c0 -72 3 -89 15 -89
12 0 15 14 15 63 0 65 11 87 42 87 11 0 18 7 18 20 0 20 -11 26 -23 13z"/>
<path d="M1564 16336 c-36 -16 -44 -32 -44 -90 0 -32 6 -48 23 -64 30 -29 87
-29 112 -2 22 24 12 39 -15 22 -30 -18 -68 -15 -80 7 -5 11 -10 22 -10 25 0 3
30 6 66 6 l67 0 -7 32 c-12 60 -59 86 -112 64z m71 -43 c8 -22 3 -25 -46 -21
l-44 3 22 22 c24 24 58 21 68 -4z"/>
<path d="M2776 16335 c-14 -8 -26 -10 -26 -4 0 5 -7 9 -15 9 -12 0 -15 -20
-15 -120 0 -100 3 -120 15 -120 11 0 15 11 15 42 0 33 3 39 12 30 22 -22 75
-14 97 14 57 73 -7 188 -83 149z m48 -30 c37 -38 23 -107 -24 -113 -49 -7 -71
82 -28 112 28 20 33 20 52 1z"/>
<path d="M2966 16335 c-14 -8 -26 -10 -26 -4 0 5 -7 9 -15 9 -12 0 -15 -20
-15 -120 0 -100 3 -120 15 -120 11 0 15 11 15 42 0 33 3 39 12 30 22 -22 75
-14 97 14 57 73 -7 188 -83 149z m48 -30 c37 -38 23 -107 -24 -113 -49 -7 -71
82 -28 112 28 20 33 20 52 1z"/>
<path d="M3141 16337 c-61 -31 -52 -72 20 -97 25 -9 44 -22 44 -30 0 -18 -53
-26 -68 -11 -16 16 -37 13 -37 -4 0 -36 95 -48 124 -16 30 33 17 63 -34 82
-46 17 -64 44 -36 55 9 3 27 -1 41 -10 28 -18 47 -14 39 9 -4 10 -56 37 -68
35 -1 0 -12 -6 -25 -13z"/>
<path d="M750 16337 c0 -1 14 -38 30 -80 35 -92 37 -117 10 -124 -23 -6 -27
-33 -6 -33 34 0 48 18 86 116 45 117 46 124 26 124 -9 0 -24 -28 -39 -72 l-24
-73 -23 73 c-18 54 -28 72 -42 72 -10 0 -18 -1 -18 -3z"/>
<path d="M26160 16312 c-28 -23 -31 -83 -5 -112 21 -23 63 -26 91 -6 26 19 10
33 -20 17 -18 -10 -28 -10 -45 -1 -31 16 -21 35 20 37 19 1 40 2 47 2 19 1 14
39 -8 61 -25 25 -51 25 -80 2z m68 -29 c2 -9 -8 -13 -33 -13 -33 0 -36 2 -25
15 15 18 51 16 58 -2z"/>
<path d="M26309 16311 c-30 -25 -18 -51 32 -67 18 -6 35 -16 37 -23 6 -18 -27
-25 -54 -11 -28 16 -42 7 -24 -15 15 -18 71 -20 88 -3 25 25 14 56 -23 68 -19
6 -38 16 -41 22 -11 17 17 27 43 15 30 -13 44 0 19 19 -27 19 -49 18 -77 -5z"/>
<path d="M9351 16303 c-68 -57 3 -171 75 -119 10 8 16 18 11 22 -4 4 -13 2
-19 -4 -18 -18 -56 -14 -67 7 -14 25 -5 31 46 31 39 0 43 2 43 24 0 43 -55 67
-89 39z m57 -15 c22 -22 13 -38 -21 -38 -43 0 -51 9 -30 32 19 21 34 23 51 6z"/>
<path d="M9514 16309 c-12 -4 -25 -12 -29 -18 -8 -14 -2 -14 29 0 20 9 29 9
41 -1 24 -20 13 -34 -31 -40 -33 -4 -39 -9 -42 -31 -4 -37 22 -56 59 -42 16 6
29 7 29 2 0 -5 5 -9 10 -9 14 0 12 103 -2 122 -18 21 -39 27 -64 17z m49 -75
c11 -12 -13 -44 -33 -44 -22 0 -34 15 -26 35 5 15 47 21 59 9z"/>
<path d="M9680 16310 c-8 -5 -23 -7 -32 -4 -16 5 -18 -3 -18 -65 0 -41 4 -71
10 -71 6 0 10 22 10 49 0 48 13 73 42 84 7 2 11 7 8 10 -3 3 -12 2 -20 -3z"/>
<path d="M9745 16296 c-14 -14 -25 -36 -25 -49 0 -31 36 -77 60 -77 20 0 72
39 53 40 -6 0 -15 -4 -18 -10 -10 -17 -41 -11 -60 10 -15 16 -17 26 -9 47 14
40 39 51 63 28 24 -21 43 -12 20 9 -29 28 -57 29 -84 2z"/>
<path d="M1770 16162 c0 -38 18 -42 206 -42 100 0 189 3 198 6 9 3 16 17 16
30 0 23 -2 24 -84 24 -47 0 -88 -4 -91 -10 -3 -5 -19 -10 -35 -10 -16 0 -32 5
-35 10 -3 6 -44 10 -91 10 -74 0 -84 -2 -84 -18z"/>
<path d="M7985 16145 c-20 -19 -25 -34 -25 -73 0 -68 27 -102 81 -102 38 0 79
26 79 50 0 16 -18 12 -40 -10 -53 -53 -117 19 -85 97 11 26 20 33 41 33 15 0
38 -10 51 -22 27 -25 40 -19 23 12 -23 44 -89 52 -125 15z"/>
<path d="M8160 16070 c0 -60 4 -100 10 -100 6 0 10 21 10 48 0 58 10 75 41 70
22 -3 24 -9 27 -60 2 -43 7 -58 17 -58 11 0 15 12 15 44 0 83 -32 122 -80 96
-18 -10 -20 -8 -20 25 0 19 -4 35 -10 35 -6 0 -10 -40 -10 -100z"/>
<path d="M8570 16136 c0 -8 -6 -16 -12 -19 -10 -4 -10 -7 0 -18 6 -7 12 -30
12 -52 0 -48 15 -77 40 -77 23 0 27 15 5 24 -10 4 -15 20 -15 51 0 33 4 45 15
45 8 0 15 7 15 15 0 8 -7 15 -15 15 -8 0 -15 7 -15 15 0 8 -7 15 -15 15 -8 0
-15 -6 -15 -14z"/>
<path d="M8328 16109 c-31 -18 -20 -30 21 -23 29 5 39 2 44 -9 4 -11 -4 -16
-33 -21 -46 -7 -67 -35 -50 -66 9 -16 20 -20 60 -18 l50 2 0 58 c0 47 -4 59
-22 72 -26 18 -46 20 -70 5z m62 -88 c0 -20 -32 -37 -50 -26 -5 3 -10 12 -10
20 0 12 9 16 53 24 4 0 7 -8 7 -18z"/>
<path d="M8460 16043 c0 -57 3 -73 15 -73 10 0 15 15 17 58 3 50 6 57 26 60
40 6 25 30 -18 28 l-40 -1 0 -72z"/>
<path d="M8669 16101 c-30 -25 -18 -51 32 -67 18 -6 35 -16 37 -23 6 -18 -27
-25 -54 -11 -28 16 -42 7 -24 -15 15 -18 71 -20 88 -3 25 25 14 56 -23 68 -19
6 -38 16 -41 22 -11 17 17 27 43 15 30 -13 44 0 19 19 -27 19 -49 18 -77 -5z"/>
<path d="M7820 13585 l0 -1195 1195 0 1195 0 0 1195 0 1195 -1195 0 -1195 0 0
-1195z m1199 851 c7 -8 11 -30 9 -48 -3 -28 -8 -35 -38 -44 -23 -8 -36 -19
-38 -33 -2 -11 -9 -21 -17 -21 -10 0 -14 20 -17 73 -2 39 -2 75 0 80 6 13 89
8 101 -7z m138 4 c8 0 13 -6 10 -12 -2 -7 -17 -13 -33 -13 -39 0 -47 -32 -8
-37 39 -4 43 -28 5 -28 -24 0 -31 -4 -31 -20 0 -16 7 -20 30 -20 30 0 40 -13
20 -25 -6 -4 -29 -4 -52 0 l-40 7 7 71 c4 40 9 76 12 80 3 5 19 6 35 3 17 -3
37 -6 45 -6z m-290 -56 c17 -64 16 -79 -3 -98 -18 -19 -77 -21 -92 -3 -13 16
-34 116 -26 128 12 20 23 6 36 -48 12 -51 17 -58 38 -58 27 0 27 -2 14 89 -9
66 15 59 33 -10z m460 4 c16 -18 16 -21 -5 -61 -14 -27 -19 -50 -15 -66 5 -19
2 -22 -12 -19 -11 2 -22 16 -27 36 -10 36 -33 43 -43 12 -7 -23 -35 -27 -35
-5 0 8 8 36 18 62 11 26 22 56 25 65 5 14 11 15 41 6 20 -6 44 -20 53 -30z
m-647 -13 c0 -8 -11 -17 -26 -21 -41 -10 -27 -40 18 -36 28 2 39 -2 47 -17 21
-38 13 -61 -25 -77 -49 -20 -69 -3 -25 21 40 20 35 41 -8 37 -40 -4 -61 12
-61 49 0 21 7 32 28 43 35 19 52 20 52 1z m810 -63 c0 -4 -16 -31 -35 -59 -33
-49 -34 -53 -17 -65 10 -7 22 -19 26 -25 13 -22 -27 -14 -58 11 l-28 24 41 61
c23 33 48 61 56 61 8 0 15 -3 15 -8z m-958 -96 c42 -48 46 -55 32 -67 -13 -11
-24 -10 -62 3 -26 10 -48 15 -51 12 -3 -2 10 -20 29 -39 29 -30 31 -35 16 -41
-9 -4 -18 -5 -20 -3 -1 2 -24 28 -51 57 -46 51 -48 55 -31 67 15 12 25 11 67
-5 54 -22 62 -15 24 20 -14 13 -25 29 -25 37 0 26 26 12 72 -41z m1092 -20
c14 -19 26 -37 26 -40 0 -13 -31 -5 -36 9 -8 19 -44 20 -44 1 0 -7 7 -19 15
-26 8 -7 15 -16 15 -21 0 -14 -22 -10 -42 8 -27 24 -49 2 -25 -25 19 -21 22
-42 7 -42 -13 0 -59 51 -60 65 0 10 99 104 111 105 4 0 18 -15 33 -34z m-1211
-125 c54 -16 68 -41 24 -41 -30 0 -53 -36 -36 -56 9 -11 9 -18 1 -26 -7 -7
-13 -10 -15 -7 -2 2 -24 29 -50 60 -50 60 -54 68 -35 87 12 12 24 10 111 -17z
m1311 -13 c8 -13 -1 -29 -39 -75 -27 -32 -50 -60 -52 -62 -2 -3 -8 0 -14 6 -8
8 -8 17 0 31 13 24 -8 57 -36 57 -10 0 -18 7 -18 14 0 10 23 21 65 32 74 19
80 19 94 -3z m-1406 -115 c58 -26 82 -53 47 -53 -23 0 -135 59 -135 70 0 16
21 12 88 -17z m1482 -25 c24 -39 25 -58 5 -58 -8 0 -17 11 -21 25 -7 29 -31
32 -75 9 -38 -19 -36 -50 4 -47 36 2 36 -24 0 -38 -24 -9 -30 -7 -46 12 -11
14 -17 35 -15 53 2 26 11 35 48 53 61 30 77 29 100 -9z m-1486 -49 c14 -7 27
-17 30 -24 7 -20 -15 -95 -29 -95 -16 0 -128 39 -137 48 -4 4 2 27 13 51 19
43 20 43 59 37 22 -3 50 -11 64 -17z m1531 -79 c0 -9 -22 -20 -57 -28 -52 -13
-58 -17 -58 -39 0 -24 3 -25 35 -19 19 3 51 9 70 12 27 5 35 3 35 -8 0 -11
-20 -21 -62 -31 -56 -14 -66 -14 -85 -1 -27 17 -32 74 -8 94 16 13 104 40 120
36 6 -2 10 -9 10 -16z m-1605 -64 c53 -10 66 -16 68 -33 3 -17 -6 -24 -53 -38
-30 -10 -54 -20 -52 -22 3 -2 24 -7 47 -11 24 -4 46 -14 48 -21 4 -12 -8 -13
-69 -7 -40 3 -78 11 -84 17 -17 17 10 43 60 57 35 10 44 16 34 23 -8 5 -24 9
-36 9 -34 0 -52 10 -46 26 3 8 8 14 12 13 3 0 35 -6 71 -13z m1652 -116 c1
-16 2 -37 2 -47 2 -30 -20 -24 -29 9 -13 42 -29 42 -33 1 -3 -34 -19 -44 -27
-18 -3 8 -7 22 -10 30 -2 9 -11 12 -20 9 -12 -5 -14 -14 -10 -35 8 -36 -19
-42 -29 -6 -16 62 -9 70 69 80 80 10 85 9 87 -23z m-1604 -77 c-2 -14 -14 -16
-73 -14 -72 3 -85 6 -85 22 0 5 36 9 81 9 70 0 80 -2 77 -17z m26 -173 c20 0
21 -19 1 -26 -11 -4 -13 -14 -8 -33 6 -23 4 -24 -10 -13 -12 11 -20 11 -38 2
-20 -11 -21 -10 -17 13 3 16 0 28 -8 31 -21 8 -17 26 5 26 10 0 22 8 26 18 6
16 7 16 19 0 7 -10 21 -18 30 -18z m1500 0 c18 0 22 -15 5 -26 -6 -3 -9 -17
-6 -30 5 -26 -2 -31 -20 -13 -8 8 -17 8 -33 -1 -21 -11 -22 -11 -16 14 5 19 2
28 -9 32 -22 9 -18 24 5 24 11 0 23 7 27 16 6 16 7 16 18 0 7 -9 20 -16 29
-16z m-1409 -220 c5 -9 -63 -50 -85 -50 -22 0 -8 17 33 37 23 12 43 22 44 22
1 1 4 -3 8 -9z m1275 -20 c11 -11 27 -20 36 -20 8 0 12 -4 9 -10 -3 -5 -15
-10 -26 -10 -16 0 -18 -5 -13 -25 8 -31 3 -31 -46 1 -45 30 -46 31 -24 62 19
27 38 28 64 2z m-1253 -37 c-2 -10 -8 -26 -12 -36 -7 -16 -4 -18 29 -12 47 9
46 -5 -3 -44 -37 -29 -63 -32 -40 -4 9 10 8 13 -5 13 -16 0 -20 11 -16 39 1
13 -1 13 -14 2 -9 -8 -20 -11 -24 -7 -8 9 57 65 77 66 8 0 11 -7 8 -17z m1222
-76 c11 -10 9 -13 -10 -17 -15 -4 -25 -14 -27 -28 -5 -33 -19 -27 -42 19 -30
58 -22 73 27 53 21 -9 44 -21 52 -27z m-1117 -24 c26 -24 22 -38 -6 -20 -22
15 -25 15 -40 -2 -28 -31 -17 -68 12 -39 9 9 12 8 12 -5 0 -26 -28 -32 -50
-12 -26 24 -25 33 7 67 31 32 40 34 65 11z m984 -9 c-3 -9 3 -29 15 -45 29
-41 14 -52 -19 -14 -16 19 -33 29 -46 27 -19 -2 -18 0 7 23 32 28 52 33 43 9z
m-76 -53 c0 -5 -7 -12 -16 -15 -8 -3 -13 -10 -9 -15 3 -6 12 -8 20 -4 19 7 45
-14 45 -37 0 -10 -7 -21 -16 -24 -30 -11 -37 -6 -19 14 10 11 14 20 9 21 -5 1
-20 2 -34 2 -28 2 -38 30 -20 52 14 16 40 20 40 6z m-770 -50 c0 -10 -7 -24
-15 -31 -8 -7 -15 -21 -15 -31 0 -11 -4 -19 -10 -19 -5 0 -10 6 -10 13 0 6 -5
19 -10 27 -9 13 -11 13 -19 0 -21 -32 -23 3 -3 45 l22 46 30 -16 c17 -9 30
-24 30 -34z m81 -11 c5 0 9 -4 9 -10 0 -5 -9 -10 -20 -10 -11 0 -20 -4 -20
-10 0 -5 7 -10 15 -10 8 0 15 -5 15 -11 0 -5 -10 -9 -22 -7 -28 4 -35 -18 -7
-25 11 -3 18 -10 15 -16 -9 -14 -56 8 -56 26 0 7 7 30 15 49 11 26 19 34 31
30 8 -3 20 -6 25 -6z m550 -9 c-16 -12 -20 -21 -12 -25 6 -4 15 -5 20 -1 5 3
12 1 16 -5 3 -5 -1 -10 -9 -10 -9 0 -16 -7 -16 -16 0 -11 6 -15 20 -11 33 8
33 -10 0 -21 -34 -12 -43 -3 -55 60 -6 30 -4 37 12 41 40 10 48 6 24 -12z
m-495 -48 c-5 -32 -2 -41 17 -56 l22 -19 -34 6 c-19 4 -36 7 -37 9 -1 1 3 23
9 50 12 56 32 64 23 10z m424 27 c0 -5 -9 -10 -20 -10 -11 0 -20 -7 -20 -16 0
-26 20 -54 34 -48 8 3 17 1 20 -5 8 -12 -38 -26 -53 -17 -12 8 -25 82 -16 96
8 13 55 13 55 0z m-335 -87 c-9 -37 -24 -17 -18 25 2 20 7 44 11 52 8 21 15
-46 7 -77z m108 48 c3 -16 9 -42 13 -57 7 -28 6 -29 -13 -11 -22 19 -43 23
-43 7 0 -5 -7 -10 -15 -10 -18 0 -18 -3 1 53 19 56 48 65 57 18z m94 2 l22
-28 1 28 c0 15 5 27 10 27 6 0 10 -22 10 -50 0 -57 -18 -67 -40 -22 l-14 27
-4 -27 c-4 -34 -17 -36 -26 -5 -10 37 -7 77 6 77 7 0 22 -12 35 -27z"/>
<path d="M8950 14395 c0 -22 4 -26 23 -23 14 2 22 10 22 23 0 13 -8 21 -22 23
-19 3 -23 -1 -23 -23z"/>
<path d="M9257 14383 c-21 -21 9 -63 34 -47 15 9 10 41 -7 48 -19 7 -19 7 -27
-1z"/>
<path d="M8348 14038 c19 -20 24 -21 32 -8 7 11 4 17 -8 22 -37 15 -47 9 -24
-14z"/>
<path d="M9653 14033 c-14 -5 -18 -33 -5 -33 10 0 32 22 32 32 0 9 -8 9 -27 1z"/>
<path d="M8221 13846 c-18 -21 -7 -34 41 -46 31 -9 43 -9 49 1 11 18 0 36 -26
43 -13 3 -30 8 -37 11 -8 3 -20 -1 -27 -9z"/>
<path d="M9635 13110 c-7 -12 2 -30 16 -30 5 0 9 9 9 20 0 21 -15 27 -25 10z"/>
<path d="M9585 13000 c3 -5 8 -10 11 -10 2 0 4 5 4 10 0 6 -5 10 -11 10 -5 0
-7 -4 -4 -10z"/>
<path d="M8614 12879 c-3 -6 0 -15 7 -20 14 -8 32 9 23 23 -7 11 -22 10 -30
-3z"/>
<path d="M8970 12775 c0 -8 4 -15 10 -15 5 0 7 7 4 15 -4 8 -8 15 -10 15 -2 0
-4 -7 -4 -15z"/>
<path d="M11134 14743 c2 -10 21 -79 41 -153 20 -74 39 -143 41 -152 3 -12 15
-18 32 -18 26 0 28 5 61 120 18 67 35 119 38 117 2 -2 18 -56 36 -118 30 -106
35 -114 59 -117 18 -2 28 2 32 15 3 10 21 79 41 153 20 74 38 143 41 153 4 13
-1 17 -24 17 l-30 0 -28 -120 c-15 -66 -31 -117 -35 -113 -4 5 -20 58 -36 118
-29 107 -30 110 -58 110 -28 0 -29 -2 -59 -117 -17 -65 -33 -118 -36 -118 -4
0 -19 54 -34 120 l-27 120 -30 0 c-24 0 -29 -4 -25 -17z"/>
<path d="M12240 14590 l0 -170 25 0 c24 0 25 2 25 75 0 41 5 86 12 100 15 33
53 43 78 20 17 -15 20 -31 20 -107 0 -87 0 -88 25 -88 l25 0 0 103 c0 97 -2
105 -24 126 -30 28 -89 31 -117 5 -19 -17 -19 -16 -19 44 0 59 -1 62 -25 62
l-25 0 0 -170z"/>
<path d="M13119 14733 c-33 -87 -109 -298 -109 -305 0 -4 13 -8 29 -8 25 0 30
5 41 45 l13 46 65 -3 65 -3 15 -42 c12 -38 17 -43 44 -43 25 0 29 3 23 18 -4
9 -32 86 -62 170 -54 148 -56 152 -85 152 -22 0 -31 -6 -39 -27z m65 -107 c9
-27 16 -53 16 -58 0 -4 -20 -8 -44 -8 l-44 0 21 65 c12 36 24 62 28 57 3 -4
14 -29 23 -56z"/>
<path d="M12090 14700 c0 -23 -4 -30 -20 -30 -13 0 -20 -7 -20 -20 0 -13 7
-20 20 -20 18 0 20 -7 20 -88 0 -101 12 -122 68 -122 25 0 32 4 32 20 0 11 -7
20 -15 20 -24 0 -36 37 -33 103 3 56 5 62 26 65 14 2 22 10 22 22 0 12 -8 20
-22 22 -17 2 -24 11 -26 31 -3 21 -9 27 -28 27 -20 0 -24 -5 -24 -30z"/>
<path d="M11634 14669 c-60 -17 -91 -86 -74 -164 13 -58 49 -85 111 -85 43 0
55 5 80 30 46 46 14 71 -38 30 -14 -11 -34 -20 -44 -20 -23 0 -59 34 -59 55 0
12 16 15 85 15 l85 0 0 33 c0 44 -33 95 -67 103 -15 3 -32 7 -38 8 -5 2 -24
-1 -41 -5z m76 -59 c32 -32 24 -40 -40 -40 -33 0 -60 4 -60 10 0 17 39 50 60
50 11 0 29 -9 40 -20z"/>
<path d="M11890 14669 c-34 -7 -60 -31 -60 -56 0 -18 45 -16 60 2 25 30 80 12
80 -26 0 -12 -13 -18 -57 -22 -37 -4 -63 -13 -76 -26 -27 -27 -25 -80 4 -103
27 -22 92 -23 113 -2 15 14 16 14 16 0 0 -11 9 -16 31 -16 l31 0 -4 105 c-3
116 -11 131 -69 144 -19 4 -50 4 -69 0z m80 -159 c0 -23 -41 -53 -66 -48 -9 2
-22 11 -28 21 -15 24 15 47 61 47 26 0 33 -4 33 -20z"/>
<path d="M12574 14669 c-60 -17 -91 -86 -74 -164 13 -58 49 -85 111 -85 43 0
55 5 80 30 46 46 14 71 -38 30 -14 -11 -34 -20 -44 -20 -23 0 -59 34 -59 55 0
12 16 15 85 15 l85 0 0 33 c0 44 -33 95 -67 103 -15 3 -32 7 -38 8 -5 2 -24
-1 -41 -5z m76 -59 c32 -32 24 -40 -40 -40 -33 0 -60 4 -60 10 0 17 39 50 60
50 11 0 29 -9 40 -20z"/>
<path d="M12846 14665 c-14 -8 -26 -10 -26 -4 0 5 -11 9 -25 9 l-25 0 0 -125
0 -125 25 0 c25 0 25 1 25 89 0 96 8 114 55 114 19 0 25 5 25 22 0 29 -21 37
-54 20z"/>
<path d="M13455 14672 c-11 -2 -28 -11 -37 -20 -16 -14 -18 -14 -18 1 0 11 -8
17 -25 17 l-25 0 0 -165 0 -165 25 0 c24 0 25 3 25 56 0 55 0 55 22 40 26 -18
80 -21 110 -5 25 13 48 68 48 114 0 39 -21 98 -39 110 -21 12 -66 21 -86 17z
m45 -62 c42 -42 16 -150 -35 -150 -9 0 -27 11 -40 25 -31 30 -33 82 -4 119 24
31 52 33 79 6z"/>
<path d="M13735 14672 c-11 -2 -28 -11 -37 -20 -16 -14 -18 -14 -18 1 0 11 -8
17 -25 17 l-25 0 0 -165 0 -165 25 0 c24 0 25 3 25 56 0 55 0 55 22 40 26 -18
80 -21 110 -5 25 13 48 68 48 114 0 39 -21 98 -39 110 -21 12 -66 21 -86 17z
m45 -62 c42 -42 16 -150 -35 -150 -9 0 -27 11 -40 25 -31 30 -33 82 -4 119 24
31 52 33 79 6z"/>
<path d="M11780 13980 c0 -82 3 -100 15 -100 12 0 15 18 15 100 0 82 -3 100
-15 100 -12 0 -15 -18 -15 -100z"/>
<path d="M12420 14046 c0 -34 0 -34 -30 -23 -26 10 -33 9 -51 -10 -27 -27 -29
-85 -4 -113 20 -22 60 -27 71 -9 4 8 9 7 15 -2 4 -7 11 -11 14 -7 6 5 9 81 6
161 -1 46 -21 49 -21 3z m-7 -67 c25 -40 -24 -97 -58 -69 -18 15 -20 61 -3 78
16 16 48 11 61 -9z"/>
<path d="M12560 13982 l0 -99 48 -1 c60 -1 82 18 82 70 0 59 -54 100 -88 66
-9 -9 -12 -4 -12 25 0 26 -4 37 -15 37 -12 0 -15 -18 -15 -98z m102 -7 c9 -19
8 -29 -6 -50 -28 -43 -66 -26 -66 30 0 38 6 45 37 45 15 0 27 -9 35 -25z"/>
<path d="M11140 13975 l0 -95 45 0 c81 0 115 32 115 106 0 55 -36 84 -105 84
l-55 0 0 -95z m112 58 c21 -19 24 -80 4 -106 -8 -10 -30 -21 -50 -24 l-36 -6
0 77 0 76 32 0 c17 0 40 -7 50 -17z"/>
<path d="M12957 14003 c14 -38 30 -81 35 -96 6 -15 15 -26 21 -24 12 4 79 178
72 186 -10 9 -23 -15 -45 -82 -12 -37 -26 -65 -30 -62 -5 3 -19 37 -31 75 -13
39 -29 70 -36 70 -8 0 -4 -20 14 -67z"/>
<path d="M11352 14007 c-26 -27 -29 -73 -6 -105 18 -26 75 -30 94 -7 18 22 7
28 -23 14 -21 -9 -30 -9 -42 1 -28 23 -18 42 23 40 61 -3 64 -2 57 23 -8 27
-41 57 -64 57 -10 0 -27 -10 -39 -23z m76 -24 c2 -9 -8 -13 -32 -13 -34 0 -44
8 -29 24 11 11 56 2 61 -11z"/>
<path d="M11480 14018 c0 -7 10 -41 22 -76 15 -41 28 -62 37 -60 13 3 59 107
60 136 2 30 -24 3 -38 -40 -9 -26 -19 -49 -22 -52 -3 -3 -13 19 -23 49 -15 50
-36 74 -36 43z"/>
<path d="M11642 14007 c-26 -27 -29 -73 -6 -105 18 -26 75 -30 94 -7 18 22 7
28 -23 14 -21 -9 -30 -9 -42 1 -28 23 -18 42 23 40 61 -3 64 -2 57 23 -8 27
-41 57 -64 57 -10 0 -27 -10 -39 -23z m76 -24 c2 -9 -8 -13 -32 -13 -34 0 -44
8 -29 24 11 11 56 2 61 -11z"/>
<path d="M11862 14007 c-45 -47 -18 -127 42 -127 42 0 66 26 66 71 0 69 -65
102 -108 56z m79 -33 c17 -46 -31 -96 -58 -61 -30 38 -18 87 22 87 18 0 28 -7
36 -26z"/>
<path d="M12010 13930 c0 -60 4 -100 10 -100 6 0 10 16 10 35 0 32 2 34 18 24
69 -43 122 77 57 131 -13 11 -23 11 -46 3 -16 -6 -29 -7 -29 -2 0 5 -4 9 -10
9 -6 0 -10 -40 -10 -100z m94 54 c23 -59 -19 -108 -58 -68 -19 18 -21 55 -4
72 17 17 55 15 62 -4z"/>
<path d="M12190 14012 c-28 -23 -31 -83 -5 -112 22 -24 67 -26 90 -4 22 23 10
30 -21 14 -29 -16 -57 -5 -62 24 -3 15 3 17 35 16 58 -3 63 -1 63 20 0 25 -34
60 -59 60 -10 0 -29 -8 -41 -18z m68 -29 c2 -9 -8 -13 -32 -13 -28 0 -34 3
-29 16 7 18 54 16 61 -3z"/>
<path d="M12710 14026 c0 -2 12 -37 26 -77 l26 -73 -21 -17 c-11 -9 -21 -20
-21 -23 0 -11 39 -6 47 6 16 25 71 173 66 181 -9 14 -22 -4 -38 -54 -9 -28
-20 -47 -24 -44 -3 4 -13 27 -22 53 -8 25 -21 48 -27 50 -7 2 -12 1 -12 -2z"/>
<path d="M13133 14020 c-13 -5 -23 -14 -23 -20 0 -13 6 -13 29 2 24 15 53 3
49 -19 -2 -12 -14 -19 -33 -21 -17 -2 -36 -8 -42 -14 -37 -30 17 -86 58 -60
11 7 19 8 19 2 0 -5 5 -10 10 -10 6 0 10 28 10 65 0 61 -2 66 -26 75 -14 6
-26 10 -27 9 -1 0 -12 -4 -24 -9z m57 -83 c0 -18 -21 -37 -41 -37 -24 0 -33
18 -19 35 15 19 60 20 60 2z"/>
<path d="M13301 14021 c-8 -5 -20 -7 -28 -4 -10 4 -13 -11 -13 -66 0 -41 4
-71 10 -71 6 0 10 25 10 55 0 49 3 57 25 67 14 6 25 15 25 20 0 10 -11 10 -29
-1z"/>
<path d="M13560 14020 c-8 -5 -23 -7 -32 -4 -16 5 -18 -3 -18 -65 0 -41 4 -71
10 -71 6 0 10 22 10 49 0 32 6 55 16 65 36 37 64 7 64 -68 0 -25 5 -46 10 -46
6 0 10 25 10 55 0 42 -5 60 -20 75 -23 23 -29 24 -50 10z"/>
<path d="M13360 13960 c0 -55 2 -61 26 -72 20 -9 30 -9 45 0 11 7 19 8 19 2 0
-5 5 -10 10 -10 6 0 10 30 10 70 0 81 -17 95 -22 19 -3 -55 -21 -78 -52 -66
-12 5 -16 20 -16 62 0 30 -4 55 -10 55 -6 0 -10 -27 -10 -60z"/>
<path d="M13349 10845 c-62 -34 -41 -99 41 -126 30 -10 56 -19 58 -19 10 -1
-1 -49 -14 -54 -33 -13 -74 -6 -86 14 -15 23 -38 27 -38 5 0 -54 116 -77 158
-32 44 47 23 89 -58 114 -60 20 -77 46 -44 70 25 19 51 16 74 -7 23 -23 40
-26 40 -6 0 22 -49 56 -79 56 -14 -1 -38 -7 -52 -15z"/>
<path d="M14560 10735 c0 -104 2 -125 15 -125 12 0 15 14 15 65 0 58 3 66 25
81 38 25 54 6 57 -74 3 -56 6 -67 22 -70 17 -4 18 2 14 72 -3 41 -11 82 -18
91 -15 18 -71 20 -88 3 -9 -9 -12 -2 -12 35 0 35 -4 47 -15 47 -13 0 -15 -21
-15 -125z"/>
<path d="M14950 10815 c0 -16 -6 -25 -15 -25 -8 0 -15 -4 -15 -9 0 -5 7 -11
15 -15 11 -4 15 -22 15 -69 0 -68 10 -87 47 -87 28 0 31 26 3 33 -17 4 -20 14
-20 66 0 54 2 61 20 61 11 0 20 5 20 10 0 6 -9 10 -20 10 -15 0 -20 7 -20 25
0 16 -6 25 -15 25 -9 0 -15 -9 -15 -25z"/>
<path d="M13540 10768 c-27 -30 -27 -96 1 -132 16 -20 29 -26 58 -26 37 0 71
23 71 48 0 17 -27 15 -34 -3 -8 -21 -56 -19 -72 3 -25 32 -16 85 17 103 15 7
27 5 49 -8 35 -21 50 -11 25 17 -25 28 -88 27 -115 -2z"/>
<path d="M13710 10699 c0 -72 3 -89 15 -89 12 0 15 14 15 70 0 70 0 71 30 77
48 9 38 32 -15 31 l-45 -1 0 -88z"/>
<path d="M13840 10768 c-27 -30 -27 -96 1 -132 26 -33 86 -37 114 -6 22 24 12
39 -15 22 -30 -18 -68 -15 -80 7 -5 11 -10 22 -10 25 0 3 30 6 66 6 l67 0 -7
32 c-9 47 -33 68 -77 68 -26 0 -45 -7 -59 -22z m92 -22 c15 -21 8 -26 -37 -26
-49 0 -57 11 -24 34 22 15 48 11 61 -8z"/>
<path d="M14030 10768 c-27 -30 -27 -96 1 -132 26 -33 86 -37 114 -6 22 24 12
39 -15 22 -30 -18 -68 -15 -80 7 -5 11 -10 22 -10 25 0 3 30 6 66 6 l67 0 -7
32 c-9 47 -33 68 -77 68 -26 0 -45 -7 -59 -22z m92 -22 c15 -21 8 -26 -37 -26
-49 0 -57 11 -24 34 22 15 48 11 61 -8z"/>
<path d="M14200 10700 c0 -73 3 -90 15 -90 12 0 15 14 15 70 0 65 2 71 25 82
41 18 55 -3 55 -83 0 -55 3 -69 15 -69 12 0 15 15 15 78 0 47 -5 83 -12 90
-16 16 -85 15 -91 0 -4 -10 -6 -10 -6 0 -1 6 -8 12 -16 12 -12 0 -15 -17 -15
-90z"/>
<path d="M14395 10770 c-27 -30 -8 -64 47 -81 50 -16 58 -42 14 -47 -16 -2
-33 1 -39 7 -13 13 -37 14 -37 2 0 -40 93 -56 124 -22 30 33 17 63 -34 82 -46
17 -64 44 -36 55 9 3 27 -1 41 -10 33 -21 53 -11 29 15 -23 26 -85 25 -109 -1z"/>
<path d="M14760 10770 c-28 -28 -27 -98 1 -134 16 -20 29 -26 58 -26 53 0 81
32 81 93 0 61 -24 87 -80 87 -27 0 -47 -7 -60 -20z m88 -16 c43 -30 23 -114
-28 -114 -50 0 -69 71 -30 110 24 24 29 24 58 4z"/>
<path d="M15065 10770 c-27 -30 -8 -64 47 -81 50 -16 58 -42 14 -47 -16 -2
-33 1 -39 7 -13 13 -37 14 -37 2 0 -40 93 -56 124 -22 30 33 17 63 -34 82 -46
17 -64 44 -36 55 9 3 27 -1 41 -10 33 -21 53 -11 29 15 -23 26 -85 25 -109 -1z"/>
<path d="M7740 6130 l0 -4250 6510 0 6510 0 0 4250 0 4250 -6510 0 -6510 0 0
-4250z m4720 3905 c14 -16 6 -35 -16 -35 -8 0 -14 10 -14 25 0 28 12 32 30 10z
m-52 -59 c2 -36 0 -47 -10 -44 -8 3 -14 24 -16 52 -2 36 0 47 10 44 8 -3 14
-24 16 -52z m132 39 c0 -20 20 -19 36 3 13 16 13 16 14 -2 0 -19 0 -19 21 0
27 24 54 8 54 -32 0 -23 -5 -30 -23 -32 -14 -2 -29 4 -37 15 -13 17 -14 17
-15 1 0 -22 -20 -24 -20 -3 0 8 -7 15 -15 15 -8 0 -15 -7 -15 -15 0 -8 -4 -15
-10 -15 -5 0 -10 18 -10 40 0 22 5 40 10 40 6 0 10 -7 10 -15z m251 -2 c7 -7
9 -22 5 -37 -5 -19 -13 -26 -31 -26 -26 0 -46 26 -37 49 3 8 -1 12 -9 9 -8 -3
-15 -17 -17 -31 -2 -15 -8 -27 -13 -27 -13 0 -11 68 3 72 24 8 87 3 99 -9z
m-321 -48 c0 -8 -7 -15 -15 -15 -16 0 -20 12 -8 23 11 12 23 8 23 -8z m617
-71 c10 -17 12 -15 12 19 1 47 21 49 22 2 1 -19 2 -45 2 -57 2 -36 -21 -32
-45 9 l-23 38 -3 -38 c-2 -24 -8 -37 -15 -34 -14 4 -21 69 -12 106 l7 26 21
-26 c12 -14 27 -35 34 -45z m135 49 c21 -19 25 -82 6 -101 -7 -7 -27 -12 -45
-12 l-33 0 0 58 c0 32 3 62 7 65 12 12 46 7 65 -10z m285 -49 c10 -17 12 -15
12 19 1 20 6 37 11 37 6 0 10 -27 10 -60 0 -35 -4 -60 -10 -60 -6 0 -21 17
-33 38 l-22 37 -3 -38 c-5 -54 -26 -42 -30 18 -2 26 0 55 3 64 5 14 10 12 28
-10 12 -14 27 -35 34 -45z m-517 -4 c0 -33 -4 -60 -10 -60 -6 0 -10 27 -10 60
0 33 4 60 10 60 6 0 10 -27 10 -60z m310 0 c0 -47 -3 -60 -15 -60 -12 0 -15
13 -15 60 0 47 3 60 15 60 12 0 15 -13 15 -60z m104 4 c10 -31 15 -58 13 -61
-3 -2 -14 2 -26 9 -17 11 -25 11 -42 0 -34 -22 -33 -13 6 96 10 28 32 9 49
-44z m-805 -11 c6 -10 11 -12 11 -5 0 6 7 12 15 12 12 0 13 -4 6 -19 -6 -10
-7 -21 -4 -25 3 -3 2 -6 -3 -6 -6 0 -15 5 -22 12 -8 8 -15 8 -27 -2 -8 -7 -15
-9 -15 -5 0 4 -7 2 -15 -5 -9 -7 -18 -10 -22 -7 -3 4 -12 2 -19 -4 -19 -15
-52 17 -35 34 8 8 11 8 11 -1 0 -7 7 -12 16 -12 11 0 14 6 10 18 -6 16 -5 16
8 0 18 -25 29 -22 21 5 -6 20 -5 21 8 4 14 -17 15 -16 20 3 6 25 23 26 36 3z
m2728 11 c-3 -3 -12 -4 -19 -1 -8 3 -5 6 6 6 11 1 17 -2 13 -5z m1300 0 c-3
-3 -12 -4 -19 -1 -8 3 -5 6 6 6 11 1 17 -2 13 -5z m-1338 -8 c-2 -2 -15 -9
-29 -15 -24 -11 -24 -11 -6 3 16 13 49 24 35 12z m-2592 -21 c6 -19 -13 -34
-35 -29 -18 5 -20 10 -11 26 10 19 40 21 46 3z m4046 -45 c21 -22 37 -46 37
-53 0 -6 -9 2 -19 19 -10 17 -36 45 -57 63 -22 18 -30 28 -18 23 11 -6 37 -29
57 -52z m-1541 6 c-17 -19 -33 -44 -37 -56 -4 -12 -9 -19 -12 -17 -7 8 16 48
45 80 37 39 40 34 4 -7z m-2471 5 c-12 -22 -3 -35 15 -20 8 6 22 8 31 4 16 -6
15 -8 -6 -19 -27 -15 -13 -31 18 -21 21 6 38 -10 21 -20 -16 -10 -12 -26 6
-23 10 2 19 -3 21 -10 3 -7 -1 -10 -11 -6 -9 3 -16 1 -16 -5 0 -7 10 -16 23
-20 19 -8 20 -10 5 -16 -26 -10 -22 -24 5 -18 20 4 20 3 4 -7 -25 -16 -51 -5
-44 20 3 11 1 20 -4 20 -5 0 -9 10 -9 21 0 13 -18 38 -44 62 -39 34 -43 42
-33 58 15 25 31 25 18 0z m-277 -32 c-3 -5 -10 -7 -15 -4 -5 4 -9 -1 -9 -9 0
-8 -6 -19 -12 -23 -16 -10 -38 -48 -38 -65 0 -7 -6 -25 -14 -40 -11 -20 -11
-28 -3 -32 7 -2 0 -5 -15 -5 -28 -1 -37 12 -17 25 8 4 7 9 -2 15 -11 7 -9 9 6
9 15 0 16 3 7 12 -17 17 -15 38 3 38 9 0 12 6 9 15 -5 11 -2 13 10 9 17 -7 22
11 6 21 -17 10 -2 24 20 18 15 -4 19 -2 14 10 -3 9 0 23 8 31 11 12 15 12 30
-1 10 -9 15 -20 12 -24z m592 -23 c24 -18 12 -31 -15 -16 -24 13 -49 4 -33
-12 6 -6 21 -16 34 -22 47 -23 17 -75 -35 -62 -25 6 -39 36 -17 36 6 0 10 -4
10 -10 0 -13 37 -13 45 0 3 5 -10 17 -29 27 -39 18 -47 46 -18 62 23 14 35 13
58 -3z m64 -47 c0 -41 3 -49 19 -49 22 0 31 19 31 66 0 19 5 34 10 34 14 0 12
-94 -2 -108 -7 -7 -24 -12 -38 -12 -14 0 -31 5 -38 12 -12 12 -17 100 -6 111
15 14 24 -7 24 -54z m174 48 c29 -21 17 -60 -21 -72 -22 -6 -33 -15 -33 -27 0
-10 -4 -18 -10 -18 -11 0 -14 113 -3 123 11 11 48 8 67 -6z m121 4 c3 -5 -7
-11 -22 -13 -35 -4 -37 -30 -3 -39 24 -7 24 -7 2 -8 -12 -1 -25 -8 -29 -17 -7
-18 13 -35 33 -27 6 2 15 0 19 -6 4 -7 -8 -11 -34 -11 l-41 0 0 58 c0 32 3 62
7 65 10 10 61 8 68 -2z m94 -1 c14 -7 18 -22 19 -65 0 -54 -13 -77 -20 -32 -4
28 -43 31 -43 3 0 -11 -6 -21 -12 -23 -10 -4 -13 12 -13 55 0 32 3 62 7 65 9
10 42 8 62 -3z m2117 -86 c1 -34 4 -67 8 -73 9 -14 -18 -25 -41 -17 -12 5 -14
9 -5 18 15 15 16 118 1 118 -5 0 -7 5 -4 11 4 5 14 9 23 7 14 -3 17 -16 18
-64z m64 45 c0 -5 -7 -9 -15 -9 -15 0 -20 12 -9 23 8 8 24 -1 24 -14z m150 -5
c0 -21 4 -25 20 -21 25 6 50 -17 50 -46 0 -12 3 -32 6 -44 5 -20 2 -23 -20
-23 -25 0 -25 2 -19 46 5 42 4 46 -13 42 -22 -4 -31 -43 -14 -63 10 -12 9 -16
-4 -21 -25 -9 -52 4 -38 18 15 15 16 118 1 118 -5 0 -7 5 -4 10 13 20 35 10
35 -16z m-493 -4 c5 -17 13 -20 49 -19 25 2 48 -1 53 -7 5 -5 11 -31 15 -57 5
-46 5 -48 -16 -45 -20 3 -22 8 -20 46 3 34 0 42 -13 42 -13 0 -16 -8 -13 -42
l3 -43 -75 -3 c-85 -3 -110 2 -92 20 15 15 16 108 1 108 -5 0 -7 5 -4 10 3 6
29 10 57 10 42 0 51 -3 55 -20z m-190 -12 c-3 -8 -6 -5 -6 6 -1 11 2 17 5 13
3 -3 4 -12 1 -19z m413 -74 c0 -58 -2 -66 -22 -73 -25 -9 -58 -3 -58 10 0 5
11 9 25 9 14 0 25 4 25 10 0 5 -6 7 -14 4 -20 -8 -46 23 -46 54 0 45 22 63 67
54 21 -4 23 -10 23 -68z m226 55 c10 -17 -7 -31 -22 -19 -7 7 -19 10 -26 8 -7
-3 0 -11 17 -19 38 -18 40 -50 3 -63 -19 -7 -31 -6 -42 4 -26 21 -19 32 15 25
22 -5 29 -4 25 4 -4 6 -13 11 -20 11 -36 0 -42 55 -8 62 22 5 51 -2 58 -13z
m-106 -21 c0 -18 3 -43 6 -55 5 -19 2 -23 -18 -23 -23 0 -24 3 -24 55 1 45 4
55 19 55 13 0 17 -8 17 -32z m835 -38 c5 0 27 17 50 37 38 36 38 36 -5 -10
-24 -26 -45 -47 -45 -47 0 0 -21 21 -45 47 -43 46 -43 46 -5 10 23 -20 45 -37
50 -37z m282 23 c-3 -10 -5 -2 -5 17 0 19 2 27 5 18 2 -10 2 -26 0 -35z
m-1643 -38 c5 -22 4 -26 -4 -15 -5 8 -10 24 -10 34 0 26 6 18 14 -19z m1612
-48 c-13 -24 -32 -50 -41 -57 -9 -7 0 11 20 40 19 28 35 59 36 69 0 10 2 11 6
3 2 -7 -7 -32 -21 -55z m-3906 38 c0 -12 -4 -13 -19 -6 -10 6 -21 7 -25 4 -3
-3 -6 -1 -6 5 0 7 11 12 25 12 16 0 25 -6 25 -15z m-497 -12 c-7 -2 -21 -2
-30 0 -10 3 -4 5 12 5 17 0 24 -2 18 -5z m629 -45 c3 -46 6 -53 26 -56 35 -5
26 -22 -13 -22 l-35 0 0 65 c0 78 18 88 22 13z m158 42 c0 -5 -13 -10 -30 -10
-20 0 -30 -5 -30 -15 0 -9 9 -15 25 -15 14 0 25 -4 25 -10 0 -5 -11 -10 -25
-10 -18 0 -25 -5 -25 -20 0 -16 7 -20 30 -20 17 0 30 -4 30 -10 0 -5 -18 -10
-40 -10 l-40 0 0 65 0 65 40 0 c22 0 40 -4 40 -10z m94 -37 c9 -26 16 -55 16
-66 0 -19 -1 -19 -18 -4 -23 21 -36 21 -52 2 -24 -29 -28 -4 -8 55 11 33 26
60 33 60 7 0 20 -21 29 -47z m125 34 c14 -18 2 -30 -15 -16 -24 19 -44 2 -44
-36 0 -39 23 -57 43 -35 9 10 9 14 0 17 -20 7 -15 23 7 23 14 0 20 -7 20 -23
0 -29 -18 -47 -46 -47 -26 0 -40 15 -49 53 -14 54 51 103 84 64z m63 -39 c3
-45 6 -53 23 -53 17 0 21 8 23 45 4 62 19 72 24 15 4 -55 -12 -85 -46 -85 -34
0 -46 19 -46 77 0 69 18 69 22 1z m168 43 c0 -5 -10 -11 -22 -13 -13 -2 -23
-7 -23 -13 0 -5 10 -11 23 -13 12 -2 22 -7 22 -12 0 -5 -10 -10 -22 -12 -13
-2 -23 -10 -23 -18 0 -8 10 -16 23 -18 35 -5 26 -24 -10 -20 -33 3 -33 3 -36
66 l-3 62 36 0 c19 0 35 -4 35 -9z m1610 -66 c19 -19 32 -35 29 -35 -3 0 -20
16 -39 35 -19 19 -32 35 -29 35 3 0 20 -16 39 -35z m-2850 5 c0 -5 -2 -10 -4
-10 -3 0 -8 5 -11 10 -3 6 -1 10 4 10 6 0 11 -4 11 -10z m4326 -45 c-11 -8
-25 -15 -30 -15 -6 1 0 7 14 15 32 19 40 18 16 0z m-4286 -20 c0 -8 -7 -15
-15 -15 -16 0 -20 12 -8 23 11 12 23 8 23 -8z m398 -6 c-2 -6 -8 -10 -13 -10
-5 0 -11 4 -13 10 -2 6 4 11 13 11 9 0 15 -5 13 -11z m2519 5 c-3 -3 -12 -4
-19 -1 -8 3 -5 6 6 6 11 1 17 -2 13 -5z m971 -11 c-174 -2 -462 -2 -640 0
-178 1 -35 2 317 2 352 0 497 -1 323 -2z m-3858 -12 c0 -12 -20 -25 -27 -18
-7 7 6 27 18 27 5 0 9 -4 9 -9z m340 -17 c0 -9 -5 -14 -12 -12 -18 6 -21 28
-4 28 9 0 16 -7 16 -16z m-327 -19 c-3 -9 -8 -14 -10 -11 -3 3 -2 9 2 15 9 16
15 13 8 -4z m287 -1 c0 -8 -4 -12 -10 -9 -5 3 -10 10 -10 16 0 5 5 9 10 9 6 0
10 -7 10 -16z m-24 -31 c-7 -7 -26 7 -26 19 0 6 6 6 15 -2 9 -7 13 -15 11 -17z
m-200 -10 c-10 -10 -19 5 -10 18 6 11 8 11 12 0 2 -7 1 -15 -2 -18z m57 2 c1
-5 -6 -11 -15 -13 -11 -2 -18 3 -18 13 0 17 30 18 33 0z m77 0 c0 -8 -4 -15
-10 -15 -5 0 -10 7 -10 15 0 8 5 15 10 15 6 0 10 -7 10 -15z m4290 -3470 l0
-3325 -441 0 c-291 0 -438 3 -434 10 4 6 118 10 311 10 l304 0 0 475 0 475
-2130 0 -2130 0 0 -310 c0 -307 0 -310 21 -310 15 0 19 -5 16 -17 -12 -42 -17
-93 -11 -93 13 0 54 43 54 56 0 6 -7 17 -15 24 -26 21 -17 31 28 30 23 -1 54
2 70 5 34 9 36 -9 5 -42 l-22 -23 22 -30 c12 -16 22 -34 22 -40 0 -17 -36 -11
-62 10 -25 19 -26 19 -43 0 -11 -13 -31 -20 -52 -20 -29 0 -33 -3 -32 -23 1
-12 1 -59 1 -104 l-2 -83 -130 0 -130 0 0 3325 0 3325 2390 0 2390 0 0 -3325z
m-8110 332 c0 -14 -63 -77 -72 -71 -4 3 -8 -2 -8 -10 0 -9 -4 -16 -8 -16 -5 0
-9 -6 -9 -14 0 -8 5 -14 11 -13 6 1 10 -4 8 -11 -1 -8 1 -11 6 -8 4 2 25 -12
45 -33 l37 -38 -25 -21 c-14 -12 -29 -22 -33 -22 -15 0 -102 96 -95 105 5 4 3
5 -3 2 -6 -4 -22 5 -35 19 l-23 25 79 79 80 79 22 -21 c13 -12 23 -26 23 -31z
m11056 -112 c-2 -5 -9 -9 -15 -7 -6 1 -11 -4 -11 -10 0 -7 -28 -40 -62 -75
l-61 -62 -28 27 -28 26 46 47 c30 31 52 45 62 41 14 -5 14 -4 1 12 -8 9 -36
38 -61 63 -44 42 -46 46 -31 64 8 10 19 16 24 13 5 -3 8 -2 7 3 -5 27 9 18 81
-53 44 -43 78 -83 76 -89z m-6119 -2627 c4 -7 10 -87 11 -178 3 -137 1 -168
-11 -178 -11 -9 -96 -12 -343 -10 l-329 3 -5 169 c-3 105 -1 174 5 182 8 11
58 14 215 17 113 1 260 3 327 5 89 1 124 -1 130 -10z m2692 -52 c24 -24 40
-49 37 -55 -14 -22 -74 -12 -108 18 l-32 28 -24 -28 c-19 -23 -32 -29 -63 -29
-25 0 -39 5 -39 13 0 18 69 89 80 82 6 -3 10 -1 10 4 0 6 21 11 48 11 43 0 52
-4 91 -44z m-3714 14 c10 -11 24 -20 32 -20 19 0 16 -51 -5 -76 -48 -59 -107
-67 -160 -22 -60 51 -14 138 72 138 30 0 48 -6 61 -20z m1364 -39 c3 0 -8 -14
-23 -30 -24 -26 -26 -31 -14 -50 18 -30 26 -26 33 17 11 63 11 63 62 60 l48
-3 3 -53 c4 -61 -2 -65 -109 -76 -53 -6 -68 -4 -78 8 -17 21 -20 20 -56 -9
l-30 -25 170 2 c133 1 174 5 187 16 10 8 15 19 12 23 -8 13 -48 11 -62 -3 -6
-6 -15 -9 -18 -5 -10 10 52 122 70 125 22 5 39 -44 33 -95 -3 -31 -1 -43 10
-47 9 -4 17 1 20 14 5 19 6 19 22 -3 10 -12 20 -30 24 -39 5 -13 17 -18 44
-18 42 0 185 15 249 25 34 6 45 3 70 -18 16 -14 35 -44 42 -68 16 -51 29 -69
49 -69 11 0 13 7 9 25 -4 14 -2 25 3 25 13 0 21 -26 21 -65 0 -28 4 -34 28
-40 15 -3 44 -18 65 -32 46 -32 48 -62 7 -110 -17 -19 -28 -38 -25 -44 9 -13
41 -11 66 4 17 10 23 10 26 0 3 -7 20 -13 39 -13 27 0 34 -4 34 -19 0 -10 -7
-24 -15 -31 -9 -7 -13 -21 -10 -31 7 -20 -2 -23 -60 -19 -36 2 -44 13 -37 47
7 36 -19 26 -37 -15 -9 -19 -22 -32 -32 -32 -10 0 -23 -9 -29 -20 -13 -25 -36
-26 -49 -3 -16 30 -24 6 -24 -72 0 -41 -3 -73 -7 -70 -14 9 -40 -7 -40 -24 0
-14 -2 -14 -11 -1 -8 12 -9 11 -5 -5 19 -75 7 -163 -22 -158 -6 2 -9 -4 -6
-12 5 -13 36 -15 190 -15 l184 0 0 -25 0 -25 -209 0 c-184 0 -214 -2 -252 -19
-47 -21 -184 -27 -172 -7 4 5 -1 7 -10 3 -10 -3 -17 -2 -17 4 0 6 -4 7 -10 4
-5 -3 -10 -1 -10 4 0 8 -72 11 -220 11 l-220 0 0 25 0 25 184 0 183 0 -23 47
c-86 168 72 367 256 323 35 -8 66 -26 103 -59 49 -43 50 -44 26 -11 -14 19
-35 52 -47 73 -21 37 -21 37 -1 37 11 0 37 9 59 20 35 18 39 24 47 72 9 53 9
53 44 52 29 -1 38 4 52 28 11 19 24 28 42 28 14 0 25 4 25 8 0 14 -23 32 -42
32 -10 0 -18 7 -18 15 0 32 -28 14 -35 -22 -11 -62 -51 -71 -105 -23 -19 17
-45 30 -60 30 -25 0 -140 -27 -148 -35 -2 -2 2 -13 8 -25 13 -25 13 -25 -18
-35 -22 -6 -23 -4 -20 27 l3 33 -77 3 c-61 2 -83 -1 -104 -15 -20 -13 -29 -14
-32 -5 -2 6 -10 12 -18 12 -10 0 -15 13 -16 43 -3 70 -3 76 -11 84 -17 16 -24
-24 -23 -122 2 -94 1 -102 -16 -97 -15 3 -18 -2 -18 -29 0 -37 50 -151 57
-131 7 20 33 14 33 -8 0 -11 4 -20 10 -20 5 0 7 -7 4 -15 -5 -13 -40 -15 -230
-15 -212 0 -224 1 -234 20 -6 12 -9 81 -8 182 l3 163 150 6 c83 4 169 7 193 8
36 1 42 4 42 22 0 25 29 129 37 129 2 0 2 -18 -2 -40 -8 -48 -1 -51 20 -9 26
50 52 69 93 69 27 1 33 3 21 10 -8 5 -26 11 -40 13 -13 3 -28 6 -34 7 -22 5
-34 -1 -40 -21 -5 -16 -9 -18 -21 -8 -16 13 -263 17 -302 5 -31 -10 -82 2 -82
20 0 9 11 14 31 14 17 0 28 4 24 10 -3 6 -17 10 -31 10 -21 0 -24 4 -24 38 0
21 -6 44 -12 51 -11 10 -8 17 13 35 24 21 35 23 125 21 55 -1 101 -3 103 -4z
m1361 -6 c6 -8 8 -20 4 -26 -4 -8 -3 -9 4 -5 7 4 12 13 12 21 0 19 21 23 132
24 73 1 100 -2 111 -14 13 -13 19 -13 47 2 23 11 46 14 82 10 28 -4 53 -9 55
-11 3 -3 -5 -19 -17 -36 -20 -29 -24 -30 -39 -16 -24 22 -38 20 -56 -8 -24
-36 -6 -64 42 -68 20 -2 38 -7 40 -13 13 -45 -98 -57 -142 -15 -14 13 -25 30
-25 38 0 9 -6 12 -16 8 -9 -3 -24 -6 -35 -6 -14 0 -19 -7 -19 -29 0 -34 -15
-39 -102 -37 -38 1 -63 8 -76 19 -19 17 -20 17 -25 -3 -4 -16 -13 -20 -45 -20
-23 0 -44 4 -47 10 -3 5 1 30 10 55 8 25 15 63 15 84 0 21 3 41 7 44 12 13 70
7 83 -8z m-1000 -5 c0 -5 -7 -10 -16 -10 -8 0 -20 -14 -26 -31 -6 -16 -13 -28
-16 -25 -3 3 -11 1 -19 -5 -15 -13 -17 -5 -3 21 7 13 6 21 -5 30 -26 22 -16
30 35 30 28 0 50 -4 50 -10z m290 -20 c34 -17 40 -25 40 -51 0 -36 -21 -35
-30 1 -7 28 -39 39 -87 32 -40 -6 -42 2 -5 22 35 20 36 20 82 -4z m263 5 c74
0 77 -1 77 -22 0 -23 -2 -23 -110 -23 -60 0 -110 -4 -110 -9 0 -5 63 -8 140
-8 77 0 142 -2 144 -4 3 -2 6 -18 8 -34 l3 -30 -62 -3 c-55 -3 -63 -6 -63 -22
0 -19 -7 -20 -95 -19 -85 1 -95 4 -95 20 0 10 -5 21 -11 25 -13 8 -7 55 15
106 14 34 18 36 48 29 18 -4 68 -7 111 -6z m1565 -74 c4 -23 -4 -26 -27 -12
-9 6 -22 6 -34 -1 -27 -14 -42 4 -26 31 8 11 20 22 29 24 22 6 55 -17 58 -42z
m-298 13 c0 -27 -17 -41 -33 -25 -7 7 -14 7 -24 -1 -10 -8 -20 -8 -39 1 -19 9
-30 9 -40 0 -7 -6 -18 -8 -24 -4 -10 6 -14 38 -5 47 3 2 41 5 85 5 77 0 80 -1
80 -23z m120 17 c0 -17 -33 -51 -50 -51 -17 0 -50 34 -50 51 0 4 23 7 50 7 28
0 50 -3 50 -7z m58 -18 c-2 -17 -9 -28 -18 -28 -9 0 -16 11 -18 28 -3 22 1 27
18 27 17 0 21 -5 18 -27z m-3918 -18 c18 -21 -2 -44 -23 -27 -24 20 -27 0 -4
-28 l22 -27 10 25 c12 29 63 40 72 16 5 -13 8 -13 22 0 10 9 37 14 78 13 38 0
68 5 78 13 28 23 41 -3 21 -45 -23 -49 -10 -64 20 -23 14 18 20 34 14 36 -22
8 -9 22 20 22 33 0 38 -14 15 -44 -8 -11 -12 -28 -9 -39 5 -16 0 -18 -48 -15
l-53 3 3 38 c3 36 2 38 -18 27 -12 -6 -26 -25 -32 -41 -6 -19 -16 -29 -27 -28
-9 2 -27 -1 -40 -5 -18 -6 -28 -4 -36 8 -11 14 -14 15 -25 1 -7 -8 -20 -15
-30 -15 -10 0 -20 -7 -24 -15 -10 -26 -29 -17 -22 11 6 22 5 24 -13 15 -29
-16 -61 -13 -68 5 -7 19 11 41 21 25 4 -6 11 -11 17 -11 14 0 11 26 -6 40 -8
7 -15 23 -15 36 0 39 55 59 80 29z m3792 -62 l28 -26 20 26 c18 22 30 27 66
27 24 0 44 -3 44 -6 0 -16 -56 -71 -88 -86 -55 -28 -78 -23 -132 28 -28 26
-50 51 -50 55 0 5 19 9 42 9 32 0 49 -6 70 -27z m-762 -291 c0 -3 -10 -16 -22
-29 -19 -20 -20 -26 -8 -48 18 -33 27 -32 35 8 14 68 14 68 58 65 l42 -3 3
-47 c3 -39 0 -49 -18 -58 -12 -6 -36 -10 -55 -9 -18 2 -40 -3 -48 -10 -13 -10
-21 -10 -47 5 -28 17 -31 17 -59 1 -54 -32 -108 -18 -97 26 3 14 2 29 -4 32
-16 10 -12 47 8 61 17 13 212 18 212 6z m622 -24 c-4 -36 4 -35 22 1 l15 28
111 1 c103 2 112 0 117 -17 5 -19 5 -19 36 0 33 20 92 25 115 10 9 -5 11 -17
6 -34 -7 -31 -11 -33 -35 -11 -22 20 -56 4 -65 -31 -8 -34 11 -55 52 -55 18 0
35 -4 39 -9 11 -18 -26 -41 -66 -41 -51 0 -99 43 -99 87 0 33 -16 53 -43 53
-26 0 -16 -24 12 -28 30 -5 24 -34 -9 -42 -18 -4 -26 -14 -30 -35 -5 -30 -6
-30 -79 -32 -67 -2 -75 0 -97 24 l-24 26 0 -27 c0 -24 -3 -26 -45 -26 -25 0
-45 3 -45 8 0 4 7 27 16 51 8 25 14 59 13 76 -4 44 7 57 49 53 34 -3 37 -5 34
-30z m-396 -36 c11 -48 4 -77 -11 -52 -8 14 -48 13 -63 -2 -22 -22 -23 0 -1
44 43 85 58 87 75 10z m109 44 c-11 -7 -21 -31 -24 -56 -3 -24 -12 -45 -18
-47 -10 -4 -11 7 -7 41 5 30 2 51 -6 61 -11 13 -7 15 31 15 38 0 41 -1 24 -14z
m-1485 0 c0 -2 -11 -6 -25 -8 -13 -3 -22 -1 -19 3 5 9 44 13 44 5z m-1455 -23
c-26 -7 -32 -17 -40 -70 -3 -23 -10 -43 -15 -43 -6 0 -7 20 -3 45 4 29 1 50
-7 60 -11 13 -6 15 36 14 27 -1 40 -4 29 -6z m-122 -70 c5 -39 4 -41 -14 -30
-12 7 -14 14 -7 18 14 9 1 62 -15 56 -7 -2 -17 -19 -24 -38 -9 -27 -12 -29
-12 -11 -1 13 11 35 25 49 31 31 38 23 47 -44z m417 57 c8 -5 13 -10 10 -10
-37 -6 -80 -5 -80 1 0 17 47 24 70 9z m360 -15 c0 -21 -4 -22 -106 -22 -64 -1
-110 -5 -117 -12 -13 -13 -21 -13 158 -15 l140 -1 3 -27 c4 -32 16 -30 -158
-33 -76 -1 -128 2 -132 9 -4 6 -11 6 -21 -2 -31 -26 -36 16 -8 79 l20 44 110
1 c107 0 111 -1 111 -21z m1148 -22 c4 -45 -29 -65 -99 -61 -48 3 -56 6 -76
37 -25 38 -31 59 -10 44 8 -6 35 -5 77 2 94 18 104 16 108 -22z m-1576 -100
c25 -26 13 -30 -20 -7 -17 12 -22 25 -22 63 0 64 14 75 18 14 2 -32 10 -55 24
-70z m118 62 c0 -44 -4 -56 -20 -65 -14 -7 -20 -7 -20 0 0 5 5 10 10 10 6 0
10 25 10 55 0 30 5 55 10 55 6 0 10 -25 10 -55z m1253 11 c10 -24 25 -47 33
-50 8 -3 14 -11 14 -18 0 -18 -95 -21 -109 -4 -10 11 -9 20 15 104 7 25 30 10
47 -32z m-90 15 c17 -3 5 -41 -19 -60 -45 -36 -144 -22 -144 19 0 16 5 21 23
18 15 -2 22 2 21 13 -1 12 9 15 55 14 31 -1 59 -3 64 -4z m-192 -82 c-9 -22
-10 -22 -10 -3 -1 11 2 24 6 27 12 12 14 0 4 -24z m1198 15 c9 -9 -8 -15 -56
-21 -52 -6 -80 10 -52 28 13 9 98 3 108 -7z m149 4 c-3 -8 -23 -14 -49 -15
-24 0 -50 -3 -58 -5 -8 -1 -16 4 -18 13 -3 13 7 16 63 18 50 1 65 -1 62 -11z
m110 -5 c2 -9 -8 -13 -31 -13 -40 0 -67 8 -67 20 0 13 93 6 98 -7z m140 5 c-5
-15 -78 -24 -78 -9 0 12 18 19 53 20 19 1 27 -3 25 -11z m-3398 -43 c5 3 10 1
10 -4 0 -6 -11 -11 -25 -11 -16 0 -25 6 -25 16 0 13 3 14 15 4 8 -6 19 -9 25
-5z m125 5 c3 -5 0 -10 -9 -10 -8 0 -22 -3 -32 -7 -16 -6 -17 -5 -4 10 17 19
36 22 45 7z m55 -5 c0 -8 -6 -15 -14 -15 -8 0 -16 7 -20 15 -4 10 1 15 14 15
11 0 20 -7 20 -15z m114 6 c3 -5 0 -11 -8 -14 -18 -7 -56 3 -56 14 0 12 57 12
64 0z m156 0 c0 -12 -21 -19 -42 -13 -29 7 -21 22 12 22 17 0 30 -4 30 -9z
m638 -8 c3 -10 -13 -13 -57 -13 -43 0 -61 4 -61 13 0 17 112 17 118 0z m-143
-3 c-3 -5 -15 -10 -26 -10 -10 0 -19 5 -19 10 0 6 12 10 26 10 14 0 23 -4 19
-10z m989 -5 c-4 -8 -15 -15 -26 -15 -17 0 -18 3 -8 15 7 8 19 15 26 15 8 0
11 -6 8 -15z m1551 -154 c4 -8 -93 -10 -317 -9 l-323 2 245 6 c135 3 277 6
317 8 42 2 74 -1 78 -7z m-757 -8 c-16 -2 -40 -2 -55 0 -16 2 -3 4 27 4 30 0
43 -2 28 -4z m-1318 -238 l0 -25 -255 0 -255 0 0 25 0 25 255 0 255 0 0 -25z
m455 -305 l12 -35 12 38 13 37 74 0 c67 0 74 -2 74 -20 0 -21 -15 -27 -25 -10
-9 15 -25 12 -25 -4 0 -8 7 -13 16 -12 9 0 19 -5 21 -11 3 -8 -4 -13 -16 -13
-12 0 -21 -6 -21 -15 0 -17 16 -20 25 -5 10 17 25 11 25 -10 0 -19 -7 -20
-122 -19 l-123 0 0 60 c0 57 1 60 24 57 18 -2 28 -13 36 -38z m258 13 l18 -28
-6 28 c-5 27 -5 27 48 27 l53 0 0 -47 c-1 -36 3 -48 14 -48 11 0 15 12 14 48
0 42 2 47 22 47 20 0 21 -4 16 -47 -6 -58 -16 -73 -51 -73 -37 0 -51 17 -51
62 0 21 -4 38 -10 38 -5 0 -10 -22 -10 -50 0 -42 -3 -50 -18 -50 -10 0 -25 11
-32 25 -7 14 -17 25 -22 25 -11 0 -10 -18 2 -25 19 -12 10 -25 -17 -25 -27 0
-28 1 -28 60 0 54 2 60 20 60 11 0 28 -12 38 -27z"/>
<path d="M12754 9996 c-8 -22 3 -33 18 -18 9 9 9 15 0 24 -9 9 -13 7 -18 -6z"/>
<path d="M13180 9894 c0 -38 3 -45 18 -42 21 4 29 53 11 74 -20 25 -29 15 -29
-32z"/>
<path d="M13360 9890 c0 -11 5 -20 10 -20 6 0 10 9 10 20 0 11 -4 20 -10 20
-5 0 -10 -9 -10 -20z"/>
<path d="M12350 9700 c0 -5 5 -10 11 -10 5 0 7 5 4 10 -3 6 -8 10 -11 10 -2 0
-4 -4 -4 -10z"/>
<path d="M13237 9763 c-15 -14 -7 -43 12 -43 23 0 34 23 18 39 -13 13 -21 14
-30 4z"/>
<path d="M13456 9755 c-3 -9 1 -18 10 -22 19 -7 39 11 30 26 -10 16 -33 13
-40 -4z"/>
<path d="M15270 9710 c0 -15 7 -20 25 -20 14 0 25 -4 25 -10 0 -5 -11 -10 -25
-10 -18 0 -25 -5 -25 -20 0 -22 34 -28 46 -8 5 8 11 6 20 -7 12 -16 14 -16 20
-2 10 28 0 62 -23 72 -13 5 -23 13 -23 17 0 5 -9 8 -20 8 -13 0 -20 -7 -20
-20z"/>
<path d="M15500 9660 c0 -25 4 -31 18 -28 11 2 17 12 17 28 0 16 -6 26 -17 28
-14 3 -18 -3 -18 -28z"/>
<path d="M13206 9555 c-8 -22 3 -40 16 -27 7 7 7 16 1 27 -9 16 -10 16 -17 0z"/>
<path d="M12287 9163 c-4 -3 -7 -214 -7 -467 l0 -461 53 -55 c29 -30 124 -130
211 -222 l159 -168 168 0 169 0 0 31 c0 27 -2 30 -15 19 -12 -10 -21 -10 -44
0 -63 26 -92 88 -35 74 18 -5 24 -2 24 11 0 14 3 15 15 5 12 -10 16 -9 21 4 5
13 10 14 20 5 7 -6 19 -7 26 -3 7 4 31 8 54 9 24 0 63 12 94 28 48 25 54 26
70 12 20 -18 79 -10 87 12 4 11 10 10 25 -7 l19 -20 28 20 c45 32 81 42 87 26
3 -8 23 -26 44 -41 l39 -27 36 22 c20 13 45 31 55 42 18 19 18 19 69 -6 28
-15 51 -28 51 -30 0 -3 -23 -21 -51 -42 -34 -25 -58 -52 -71 -80 -10 -24 -24
-46 -30 -50 -7 -4 -8 -3 -4 4 4 7 2 12 -3 12 -6 0 -11 -7 -11 -15 0 -12 34
-14 223 -14 l224 -1 -19 73 c-10 39 -16 82 -13 95 3 13 26 36 52 52 l47 30 22
-21 c14 -13 24 -17 29 -10 3 6 10 9 15 6 5 -3 11 -1 14 4 3 4 25 7 48 5 32 -3
46 0 57 14 9 11 12 12 8 2 -25 -69 -48 -156 -51 -199 l-5 -51 48 0 c26 0 52 5
59 12 9 9 12 9 12 0 0 -19 116 -16 124 3 3 8 13 15 22 15 9 0 29 9 45 21 18
12 40 19 56 17 l28 -4 -29 -12 c-37 -16 -31 -21 26 -23 34 -2 45 -6 41 -16 -7
-18 83 -18 91 0 5 10 7 10 12 0 3 -8 26 -13 59 -13 l52 0 -2 38 c-3 49 -24 92
-41 85 -10 -4 -14 3 -14 23 0 16 -4 36 -10 44 -6 9 -5 17 2 22 9 5 9 13 0 32
-10 23 -9 27 16 38 36 18 44 81 13 110 -23 20 -27 43 -11 53 6 3 10 19 10 34
0 44 21 63 77 68 42 5 54 2 72 -16 12 -12 21 -34 21 -50 0 -16 6 -34 14 -40
17 -14 10 -48 -13 -61 -14 -7 -16 -18 -12 -49 5 -35 12 -44 48 -63 106 -58
124 -70 133 -93 10 -26 40 -39 69 -30 16 5 20 0 23 -22 4 -40 23 -29 22 12 -1
19 3 35 7 35 5 0 9 -7 9 -15 0 -8 10 -19 21 -26 20 -10 21 -9 17 25 -2 23 0
35 6 33 6 -2 12 -38 14 -79 2 -51 7 -78 16 -81 21 -8 22 118 1 150 -15 22 -15
26 -1 42 21 23 20 55 0 76 -15 15 -15 20 1 70 15 49 20 55 51 61 71 13 98 -9
108 -91 3 -21 -1 -38 -10 -46 -22 -18 -18 -66 6 -74 50 -16 7 -55 -70 -65 -38
-4 -46 -9 -48 -29 -3 -18 0 -22 12 -18 13 5 15 1 10 -21 -4 -15 -13 -37 -20
-49 -20 -32 -19 -33 27 -33 25 0 38 4 34 10 -10 17 -13 80 -4 74 5 -3 12 -23
15 -45 l7 -39 93 0 93 0 -6 53 c-5 42 -12 58 -40 84 -33 31 -34 32 -13 43 16
9 25 8 38 -2 15 -11 16 -11 4 4 -9 11 -10 18 -2 23 16 10 13 95 -5 101 -17 7
-20 49 -5 59 6 3 10 17 10 29 0 35 22 48 77 44 l48 -3 14 -56 c14 -54 14 -56
-10 -83 -46 -54 -51 -58 -77 -51 -22 5 -24 4 -13 -9 8 -9 26 -16 42 -16 21 0
29 5 31 23 3 17 7 13 16 -20 7 -24 16 -42 20 -40 4 1 23 -8 42 -19 19 -12 45
-25 58 -29 19 -5 22 -3 22 22 1 24 2 26 13 12 16 -21 58 -19 75 4 7 9 19 17
26 17 12 0 202 197 561 581 55 59 102 105 104 104 3 -4 -334 -364 -581 -621
-89 -92 -116 -134 -88 -134 6 0 10 7 10 15 0 48 144 -35 168 -97 l15 -38 105
0 105 0 -21 23 c-12 13 -22 28 -22 33 0 6 19 28 43 49 l42 40 -37 -40 c-21
-23 -38 -45 -38 -51 0 -6 10 -20 23 -32 21 -20 34 -22 132 -22 104 0 107 1 92
18 -25 27 -22 38 28 91 l45 48 0 612 0 611 -2253 0 c-1240 0 -2257 -3 -2260
-7z m1563 -96 c0 -6 -5 -50 -11 -99 -11 -84 -13 -88 -36 -88 -21 0 -24 4 -20
23 4 12 9 54 13 92 4 39 11 75 16 82 11 13 38 6 38 -10z m108 7 c28 -19 30
-54 2 -54 -10 0 -23 8 -29 18 -9 16 -10 16 -17 -1 -5 -13 2 -27 25 -47 36 -33
39 -62 11 -90 -36 -36 -100 -21 -100 22 0 26 30 35 45 15 7 -10 15 -17 19 -17
14 0 4 25 -24 57 -36 41 -37 57 -5 88 28 29 42 31 73 9z m1020 -11 c6 -9 12
-24 12 -34 0 -27 -39 -69 -65 -69 -20 0 -24 -6 -27 -37 -2 -31 -7 -39 -27 -41
-22 -4 -23 -2 -18 40 4 23 9 69 13 100 7 61 13 67 69 61 17 -2 36 -11 43 -20z
m422 8 c0 -22 -23 -34 -38 -19 -15 15 -3 38 19 38 12 0 19 -7 19 -19z m-2100
-31 c0 -40 13 -53 24 -24 3 9 6 27 6 40 0 19 5 24 26 24 22 0 25 -4 21 -22 -3
-13 -8 -50 -12 -83 -9 -84 -14 -95 -37 -95 -18 0 -20 5 -15 40 4 30 2 40 -9
40 -8 0 -16 -16 -20 -40 -5 -31 -11 -40 -26 -40 -19 0 -20 4 -13 78 9 106 14
122 36 122 15 0 19 -7 19 -40z m747 8 c-3 -18 -9 -54 -13 -80 l-6 -48 31 0
c24 0 31 -4 31 -20 0 -18 -7 -20 -55 -20 -36 0 -55 4 -55 12 0 6 5 51 11 100
11 84 13 88 36 88 23 0 25 -3 20 -32z m190 12 c3 -11 8 -20 12 -20 3 0 12 9
19 20 7 11 22 20 33 20 20 0 21 -3 15 -67 -12 -119 -16 -133 -39 -133 -18 0
-19 5 -14 60 4 51 3 59 -8 50 -8 -7 -19 -9 -24 -6 -9 6 -16 -20 -24 -84 -1 -8
-13 -17 -26 -18 -22 -4 -23 -1 -18 35 3 21 9 66 13 101 6 57 8 62 31 62 16 0
27 -7 30 -20z m493 -5 c0 -20 5 -25 24 -25 37 0 41 -26 20 -127 -3 -15 -12
-23 -25 -23 -19 0 -20 4 -14 55 5 37 4 55 -3 55 -10 0 -17 -28 -25 -90 -1 -8
-13 -17 -26 -18 -22 -3 -23 -1 -18 30 4 18 9 63 13 101 6 62 9 67 30 67 19 0
24 -5 24 -25z m605 -12 c-3 -21 -9 -65 -13 -98 l-7 -60 -50 0 -50 0 -3 46 c-4
68 11 99 48 99 25 0 30 4 30 25 0 20 5 25 25 25 23 0 25 -3 20 -37z m-815 8
c0 -11 6 -22 13 -25 8 -3 7 -9 -7 -20 -16 -13 -18 -24 -12 -71 l6 -56 -27 3
c-27 3 -28 5 -29 68 0 36 4 77 10 93 13 31 46 37 46 8z m1070 -1 c0 -11 5 -20
10 -20 16 0 11 -27 -6 -34 -14 -5 -16 -16 -10 -61 5 -48 4 -55 -11 -55 -34 0
-40 14 -38 80 2 36 6 75 10 88 9 28 45 30 45 2z m-2097 -41 c5 -9 7 -28 3 -42
-5 -23 -12 -27 -41 -27 -19 0 -35 -4 -35 -9 0 -6 16 -7 35 -4 38 6 45 -5 19
-31 -16 -16 -50 -21 -78 -10 -22 8 -22 92 0 122 12 18 24 22 51 20 20 -2 40
-10 46 -19z m107 7 c0 -7 -9 -20 -20 -27 -13 -9 -23 -31 -28 -59 -6 -36 -12
-46 -30 -48 -21 -3 -22 -1 -17 40 16 115 12 108 55 108 27 0 40 -4 40 -14z
m110 -1 c16 -19 5 -99 -16 -120 -18 -18 -65 -20 -82 -3 -17 17 -15 89 4 116
18 26 75 30 94 7z m737 -17 c-3 -18 -9 -52 -12 -75 -7 -43 -7 -43 -50 -43 -55
0 -69 16 -60 72 12 70 19 78 76 78 l51 0 -5 -32z m207 10 c16 -27 -8 -47 -35
-30 -25 16 -25 16 -34 -25 -6 -32 6 -46 20 -23 9 15 45 12 45 -4 0 -35 -51
-56 -94 -40 -22 8 -22 92 0 122 12 18 24 22 51 20 21 -2 41 -10 47 -20z m426
3 c0 -10 -9 -21 -19 -24 -14 -3 -21 -18 -26 -56 -6 -46 -10 -52 -29 -49 -11 2
-21 5 -20 8 1 3 4 35 8 73 l8 67 39 0 c32 0 39 -4 39 -19z m109 5 c7 -8 11
-27 9 -43 -2 -23 -8 -29 -35 -31 -18 -2 -33 -7 -33 -12 0 -5 14 -7 30 -3 33 6
39 -6 14 -31 -20 -20 -68 -21 -84 -1 -15 18 -8 98 10 120 16 19 74 19 89 1z
m204 -6 c-15 -136 -14 -131 -36 -128 -12 2 -22 5 -21 8 1 3 4 36 8 73 7 62 10
68 29 65 13 -2 21 -10 20 -18z m117 5 c7 -8 10 -22 6 -30 -6 -17 -36 -21 -36
-5 0 6 -7 10 -15 10 -10 0 -15 -11 -15 -35 0 -19 5 -35 10 -35 6 0 10 5 10 10
0 6 9 10 20 10 26 0 27 -36 1 -50 -28 -15 -67 -12 -81 5 -17 21 -5 106 17 123
23 17 68 15 83 -3z m210 0 c17 -21 5 -106 -17 -122 -23 -18 -68 -16 -83 2 -15
18 -8 98 10 120 16 19 74 19 90 0z m110 -4 c0 -10 -9 -21 -19 -24 -14 -3 -21
-18 -26 -56 -6 -46 -10 -52 -29 -49 -11 2 -21 5 -20 8 1 3 4 35 8 73 l8 67 39
0 c32 0 39 -4 39 -19z m-976 -263 c18 -26 22 -119 6 -149 -10 -18 -24 -19
-313 -19 -222 0 -306 3 -315 12 -7 7 -12 41 -12 83 0 42 5 76 12 83 9 9 91 12
309 12 296 0 298 0 313 -22z m-204 -342 c0 -21 -6 -36 -15 -40 -25 -9 -17 -33
16 -45 41 -14 42 -14 35 4 -6 18 2 45 15 45 5 0 9 -18 9 -41 0 -24 4 -38 10
-34 17 11 11 -10 -10 -32 -10 -12 -22 -33 -25 -46 -6 -22 -12 -25 -51 -25 -25
0 -51 -5 -58 -11 -7 -6 -16 -8 -19 -4 -4 3 -7 2 -7 -4 0 -6 7 -16 15 -23 8 -7
15 -10 15 -7 0 4 10 3 23 -2 16 -6 30 -3 50 11 l27 19 0 -28 c0 -33 -7 -43
-38 -61 -18 -10 -31 -11 -57 -2 -40 13 -47 28 -49 102 -1 45 -6 62 -25 82 -22
23 -23 29 -12 50 8 13 10 29 6 35 -9 15 37 69 54 63 8 -3 11 0 7 6 -8 13 10
20 52 21 30 1 32 -1 32 -33z m-374 -74 c21 -13 26 -49 8 -56 -12 -4 -15 -15
-12 -36 4 -25 1 -30 -16 -30 -15 0 -17 3 -8 12 17 17 15 45 -3 52 -18 7 -20
37 -3 54 14 14 19 14 34 4z m-250 -82 c30 -63 34 -93 18 -118 -10 -16 -14 -42
-12 -84 3 -55 1 -62 -26 -84 -15 -14 -30 -23 -33 -21 -2 3 3 24 11 48 8 24 14
44 13 45 -1 1 -18 7 -37 12 l-35 9 25 11 25 11 -25 1 c-20 0 -22 2 -10 10 8 5
11 10 6 10 -5 0 -3 7 4 15 10 13 9 15 -8 15 -15 0 -22 -9 -27 -30 -4 -16 -4
-34 -1 -38 3 -5 -3 -26 -13 -47 l-18 -38 -7 64 c-3 35 -8 89 -11 119 -9 91 19
121 110 117 31 -2 42 -7 51 -27z m323 3 c0 -25 -1 -25 -8 -8 -5 11 -7 23 -4
28 8 14 13 7 12 -20z m-692 2 c31 -22 39 -88 18 -139 -14 -33 -15 -43 -4 -64
12 -22 11 -26 -14 -48 -16 -13 -39 -24 -53 -24 -24 0 -74 40 -74 59 0 17 18
22 24 6 8 -21 50 -19 77 5 l24 21 -30 -2 c-47 -3 -81 16 -94 52 -18 51 -14
106 9 129 24 24 86 27 117 5z m530 -62 c-2 -16 -4 -3 -4 27 0 30 2 43 4 28 2
-16 2 -40 0 -55z m1128 38 c2 -24 -24 -44 -42 -33 -16 10 -11 46 7 54 23 10
33 4 35 -21z m-1941 -23 c26 -40 29 -90 7 -118 -17 -22 -22 -23 -44 -11 -21
11 -28 11 -50 -4 -30 -19 -41 -15 -61 24 -11 20 -12 38 -6 65 12 56 25 66 86
66 45 0 56 -4 68 -22z m854 4 c2 -7 -2 -10 -12 -6 -9 3 -16 11 -16 16 0 13 23
5 28 -10z m102 8 c0 -5 6 -10 14 -10 9 0 12 -7 9 -21 -6 -20 -6 -20 -16 -3
-15 28 -17 30 -27 14 -11 -18 -25 -6 -17 15 7 17 37 21 37 5z m1024 -127 l-19
-58 -3 39 c-2 21 1 43 7 49 20 20 11 30 -9 12 -20 -18 -20 -17 -20 8 0 20 5
27 20 27 14 0 20 7 21 23 1 18 3 16 11 -10 9 -26 7 -45 -8 -90z m-120 67 c6 0
17 5 24 12 9 9 12 8 12 -7 0 -11 -4 -26 -9 -33 -7 -11 -9 -11 -14 2 -9 24 -27
19 -28 -6 -1 -20 -2 -20 -9 4 -4 15 -5 38 -2 50 l7 23 3 -22 c2 -13 9 -23 16
-23z m-957 23 c-4 -3 -2 -12 4 -20 9 -10 6 -13 -16 -13 -22 0 -25 3 -16 14 9
11 9 15 -1 19 -7 3 -2 6 11 6 13 1 21 -2 18 -6z m1809 -1 c6 -4 17 -22 25 -39
8 -18 17 -33 21 -33 14 0 8 -47 -7 -60 -8 -7 -13 -16 -10 -20 12 -19 -28 -41
-69 -38 -34 3 -43 8 -55 33 -8 17 -19 33 -24 37 -7 4 -4 18 6 40 11 22 17 27
17 14 0 -12 5 -16 16 -12 9 3 20 6 25 6 5 0 9 5 9 10 0 6 -9 10 -19 10 -11 0
-21 8 -23 18 -6 29 58 55 88 34z m646 -59 c-33 -38 -89 -95 -123 -128 -34 -33
-9 -3 57 67 128 138 163 170 66 61z m-1432 25 c0 -5 -4 -8 -10 -8 -5 0 -10 10
-10 23 0 18 2 19 10 7 5 -8 10 -18 10 -22z m-2220 1 c0 -5 -8 -9 -17 -9 -15 0
-16 -2 -3 -10 10 -6 16 -6 18 0 8 22 22 8 22 -20 0 -22 4 -28 15 -24 22 9 19
-20 -5 -41 -11 -10 -20 -24 -20 -31 0 -20 -18 -27 -78 -28 -55 -2 -55 -1 -70
36 -8 21 -19 38 -24 38 -4 0 -8 7 -8 16 0 8 5 12 10 9 6 -3 11 1 11 9 1 9 3
21 4 26 1 6 3 13 4 18 1 4 5 1 9 -5 6 -10 19 -7 52 11 41 22 80 24 80 5z
m2160 -61 c0 -18 -2 -20 -9 -8 -6 8 -7 18 -5 22 9 14 14 9 14 -14z m-1899 -28
c17 0 9 -29 -13 -44 -20 -14 -24 -14 -40 1 -17 15 -17 17 -1 34 10 10 24 16
31 13 8 -2 18 -4 23 -4z m1264 -41 c4 -6 13 -8 20 -5 8 3 11 -2 8 -14 -5 -17
-7 -17 -20 -5 -8 8 -19 15 -24 15 -5 0 -9 5 -9 10 0 13 17 13 25 -1z m745 -14
c0 -8 -4 -15 -10 -15 -5 0 -10 7 -10 15 0 8 5 15 10 15 6 0 10 -7 10 -15z
m-607 -39 c-4 -5 3 -7 15 -4 12 4 22 2 22 -3 0 -5 -15 -10 -32 -10 l-33 -1 29
-7 c35 -7 43 -23 21 -41 -12 -10 -18 -10 -31 1 -35 29 -38 79 -4 76 10 -1 16
-5 13 -11z m-144 -22 c2 -2 1 -9 -2 -17 -4 -10 -26 -15 -73 -16 -37 -1 -74 -7
-81 -13 -9 -7 -14 -6 -19 7 -4 9 -3 20 2 25 20 20 153 31 173 14z m1062 -64
c21 -12 25 -50 7 -68 -19 -19 -28 -14 -44 23 -21 50 -6 68 37 45z m-1683 -8
c8 -6 10 -19 6 -40 -5 -25 -12 -32 -30 -32 -20 0 -23 5 -22 28 3 43 20 60 46
44z"/>
<path d="M14910 9020 c0 -11 7 -20 15 -20 8 0 15 9 15 20 0 11 -7 20 -15 20
-8 0 -15 -9 -15 -20z"/>
<path d="M15256 8958 c-3 -17 -4 -34 -1 -37 9 -8 25 21 25 47 0 33 -17 27 -24
-10z"/>
<path d="M13430 8980 c0 -5 5 -10 10 -10 6 0 10 5 10 10 0 6 -4 10 -10 10 -5
0 -10 -4 -10 -10z"/>
<path d="M13645 8959 c-7 -33 -3 -45 14 -34 13 8 15 65 2 65 -5 0 -12 -14 -16
-31z"/>
<path d="M14377 8983 c-11 -10 -8 -63 3 -63 6 0 10 6 10 13 0 6 3 22 6 35 6
21 -5 30 -19 15z"/>
<path d="M15130 8980 c0 -5 5 -10 10 -10 6 0 10 5 10 10 0 6 -4 10 -10 10 -5
0 -10 -4 -10 -10z"/>
<path d="M15660 8955 c0 -19 5 -35 10 -35 6 0 10 16 10 35 0 19 -4 35 -10 35
-5 0 -10 -16 -10 -35z"/>
<path d="M14322 8698 c-17 -17 -15 -58 3 -58 8 0 15 8 15 18 0 14 -2 15 -10 2
-8 -12 -10 -11 -10 7 0 13 7 23 18 25 10 2 13 6 6 10 -6 4 -16 2 -22 -4z"/>
<path d="M14364 8696 c-3 -8 -4 -25 -2 -38 3 -17 5 -13 9 15 5 38 2 47 -7 23z"/>
<path d="M14410 8700 c0 -5 5 -10 10 -10 6 0 10 5 10 10 0 6 -4 10 -10 10 -5
0 -10 -4 -10 -10z"/>
<path d="M14520 8700 c0 -5 4 -10 9 -10 6 0 13 5 16 10 3 6 -1 10 -9 10 -9 0
-16 -4 -16 -10z"/>
<path d="M14610 8701 c0 -5 6 -12 13 -14 7 -3 5 -6 -5 -6 -12 -1 -18 -9 -18
-23 0 -19 2 -20 10 -8 5 8 10 11 10 5 1 -5 5 1 11 13 9 25 5 42 -12 42 -5 0
-9 -4 -9 -9z"/>
<path d="M14660 8673 c0 -43 5 -41 13 5 4 18 2 32 -3 32 -6 0 -10 -16 -10 -37z"/>
<path d="M14704 8695 c-3 -8 -4 -20 -2 -27 3 -7 7 -1 10 15 6 29 1 36 -8 12z"/>
<path d="M14746 8703 c-3 -4 -6 -19 -6 -35 0 -20 5 -28 18 -27 10 0 12 3 5 6
-7 2 -13 16 -13 30 0 21 2 24 15 13 9 -7 15 -8 15 -2 0 12 -26 23 -34 15z"/>
<path d="M14470 8686 c0 -8 5 -18 11 -22 8 -4 7 -9 -2 -15 -10 -6 -10 -9 -2
-9 18 0 26 19 13 34 -8 11 -8 15 2 19 8 4 7 6 -4 6 -10 1 -18 -5 -18 -13z"/>
<path d="M14566 8691 c-4 -7 -5 -15 -2 -18 9 -9 19 4 14 18 -4 11 -6 11 -12 0z"/>
<path d="M14411 8654 c0 -11 3 -14 6 -6 3 7 2 16 -1 19 -3 4 -6 -2 -5 -13z"/>
<path d="M14550 8652 c0 -4 9 -8 20 -9 11 -1 18 2 15 8 -7 11 -35 12 -35 1z"/>
<path d="M14542 8353 c4 -24 16 -32 40 -25 28 7 18 36 -15 40 -23 3 -28 0 -25
-15z"/>
<path d="M14585 8281 c-11 -10 -3 -16 20 -16 14 0 25 5 25 10 0 10 -37 15 -45
6z"/>
<path d="M14603 8253 c-38 -5 -39 -8 -17 -31 14 -14 19 -14 42 -1 24 13 32 32
15 35 -4 0 -23 -1 -40 -3z"/>
<path d="M13880 8190 c0 -28 28 -37 48 -16 15 15 15 18 2 26 -26 17 -50 12
-50 -10z"/>
<path d="M13952 8188 c7 -20 48 -23 48 -4 0 11 -9 16 -26 16 -16 0 -24 -5 -22
-12z"/>
<path d="M13616 8203 c-11 -11 -6 -23 8 -23 8 0 17 4 20 9 7 10 -19 23 -28 14z"/>
<path d="M13550 8190 c0 -5 9 -10 20 -10 11 0 20 5 20 10 0 6 -9 10 -20 10
-11 0 -20 -4 -20 -10z"/>
<path d="M13587 8120 c-3 -11 -1 -23 4 -26 5 -3 9 -1 9 5 0 5 3 16 6 25 3 9 2
16 -4 16 -5 0 -12 -9 -15 -20z"/>
<path d="M13258 8153 c6 -2 18 -2 25 0 6 3 1 5 -13 5 -14 0 -19 -2 -12 -5z"/>
<path d="M13320 8156 c0 -2 7 -6 15 -10 8 -3 15 -1 15 4 0 6 -7 10 -15 10 -8
0 -15 -2 -15 -4z"/>
<path d="M16078 8133 c-26 -7 -22 -23 5 -23 14 0 24 6 24 15 0 8 -3 14 -6 14
-3 -1 -14 -3 -23 -6z"/>
<path d="M12955 8110 c-4 -6 3 -10 14 -10 25 0 27 6 6 13 -8 4 -17 2 -20 -3z"/>
<path d="M13048 8103 c6 -2 18 -2 25 0 6 3 1 5 -13 5 -14 0 -19 -2 -12 -5z"/>
<path d="M12986 8031 c-4 -5 -2 -12 3 -15 5 -4 12 -2 15 3 4 5 2 12 -3 15 -5
4 -12 2 -15 -3z"/>
<path d="M13025 8020 c4 -6 11 -8 16 -5 14 9 11 15 -7 15 -8 0 -12 -5 -9 -10z"/>
<path d="M14930 8283 c0 -5 5 -15 11 -23 8 -11 12 -12 16 -2 2 6 9 10 14 6 5
-3 9 -1 9 4 0 10 -23 22 -41 22 -5 0 -9 -3 -9 -7z"/>
<path d="M15007 8283 c-11 -10 -8 -25 3 -18 6 3 10 1 10 -4 0 -6 5 -11 10 -11
6 0 10 9 10 20 0 19 -20 27 -33 13z"/>
<path d="M12280 8200 c0 -8 80 -101 179 -205 98 -105 177 -191 176 -193 -2 -2
-47 43 -101 100 -55 57 -134 139 -176 183 l-78 80 0 -188 0 -188 200 1 200 1
-20 27 c-43 58 -379 396 -380 382z"/>
<path d="M14973 8173 c9 -2 23 -2 30 0 6 3 -1 5 -18 5 -16 0 -22 -2 -12 -5z"/>
<path d="M15460 8171 c0 -14 28 -33 40 -26 20 12 10 35 -15 35 -14 0 -25 -4
-25 -9z"/>
<path d="M15537 8174 c-16 -16 -6 -35 16 -32 12 2 22 10 22 18 0 16 -26 25
-38 14z"/>
<path d="M15760 8160 c0 -5 5 -10 10 -10 6 0 10 5 10 10 0 6 -4 10 -10 10 -5
0 -10 -4 -10 -10z"/>
<path d="M15810 8160 c0 -5 7 -10 15 -10 8 0 15 5 15 10 0 6 -7 10 -15 10 -8
0 -15 -4 -15 -10z"/>
<path d="M14978 8153 c7 -3 16 -2 19 1 4 3 -2 6 -13 5 -11 0 -14 -3 -6 -6z"/>
<path d="M14950 8119 c0 -5 10 -19 22 -31 20 -20 22 -20 35 -3 22 31 16 43
-22 43 -19 0 -35 -4 -35 -9z"/>
<path d="M15507 8104 c7 -3 9 -12 6 -20 -4 -10 2 -14 21 -14 24 0 25 2 14 20
-7 11 -22 20 -33 19 -11 0 -15 -3 -8 -5z"/>
<path d="M15815 8080 c3 -5 8 -10 11 -10 2 0 4 5 4 10 0 6 -5 10 -11 10 -5 0
-7 -4 -4 -10z"/>
<path d="M15470 8030 c1 -8 37 -50 44 -50 9 0 46 39 46 48 0 4 -20 7 -45 7
-25 0 -45 -2 -45 -5z"/>
<path d="M13380 7908 c-2 -10 -3 -31 -3 -48 0 -70 0 -70 42 -70 l40 0 -15 28
c-7 15 -14 35 -14 45 0 10 -8 17 -19 17 -12 0 -21 8 -24 23 -3 16 -5 18 -7 5z
m30 -99 c0 -6 -4 -7 -10 -4 -5 3 -10 11 -10 16 0 6 5 7 10 4 6 -3 10 -11 10
-16z"/>
<path d="M13450 7916 c0 -2 9 -6 20 -9 11 -3 18 -1 14 4 -5 9 -34 13 -34 5z"/>
<path d="M16755 7880 l-39 -40 24 -25 c13 -14 28 -25 33 -25 6 0 0 11 -13 25
l-24 26 29 27 c16 15 22 18 12 6 -22 -27 -21 -47 3 -69 21 -19 21 -19 19 48
-1 37 -3 67 -3 67 -1 0 -19 -18 -41 -40z"/>
<path d="M13077 7888 c-5 -16 1 -30 18 -48 l25 -25 0 31 c0 18 -8 38 -19 48
-17 16 -19 16 -24 -6z"/>
<path d="M16140 7884 c0 -8 5 -12 10 -9 6 3 10 10 10 16 0 5 -4 9 -10 9 -5 0
-10 -7 -10 -16z"/>
<path d="M15380 7870 c0 -5 7 -7 15 -4 8 4 15 8 15 10 0 2 -7 4 -15 4 -8 0
-15 -4 -15 -10z"/>
<path d="M16009 7868 c-1 -5 -3 -12 -4 -18 -1 -5 -3 -19 -4 -31 -1 -18 -3 -19
-16 -5 -8 8 -15 19 -15 25 0 6 -4 11 -8 11 -5 0 -9 -13 -9 -30 0 -27 3 -30 33
-30 28 0 32 4 36 30 4 25 -9 70 -13 48z"/>
<path d="M13270 7840 c0 -5 4 -10 9 -10 6 0 13 5 16 10 3 6 -1 10 -9 10 -9 0
-16 -4 -16 -10z"/>
<path d="M15875 7839 c-4 -6 -4 -13 0 -17 4 -4 10 -1 12 6 7 20 22 14 20 -9
-1 -14 -7 -19 -19 -16 -10 3 -18 1 -18 -4 0 -15 57 -10 70 6 10 12 10 18 0 30
-14 17 -56 20 -65 4z"/>
<path d="M13328 7833 c7 -3 16 -2 19 1 4 3 -2 6 -13 5 -11 0 -14 -3 -6 -6z"/>
<path d="M13503 7817 c-10 -20 -8 -23 14 -25 21 -2 23 0 13 13 -6 8 -9 19 -5
25 3 5 2 10 -3 10 -5 0 -13 -10 -19 -23z"/>
<path d="M13551 7824 c0 -11 3 -14 6 -6 3 7 2 16 -1 19 -3 4 -6 -2 -5 -13z"/>
<path d="M15330 7815 c0 -16 6 -25 15 -25 9 0 15 9 15 25 0 16 -6 25 -15 25
-9 0 -15 -9 -15 -25z"/>
<path d="M13278 7813 c6 -2 18 -2 25 0 6 3 1 5 -13 5 -14 0 -19 -2 -12 -5z"/>
<path d="M13570 7805 c-11 -13 -8 -15 19 -15 29 0 31 2 17 15 -8 8 -17 15 -19
15 -3 0 -10 -7 -17 -15z"/>
<path d="M16212 7804 c-11 -12 -9 -14 8 -14 11 0 20 4 20 9 0 17 -15 19 -28 5z"/>
<path d="M12410 6310 l0 -1060 2130 0 2130 0 0 1060 0 1060 -302 0 -303 0 -17
-40 c-9 -23 -30 -48 -50 -60 -33 -20 -42 -20 -1465 -20 l-1433 0 -39 35 c-21
20 -42 47 -45 60 l-6 25 -300 0 -300 0 0 -1060z m3024 751 c3 -5 15 -7 25 -4
21 5 37 -12 21 -22 -13 -8 -13 -92 0 -100 20 -12 9 -25 -20 -25 -31 0 -37 9
-19 27 5 5 9 30 7 54 -4 54 -28 60 -42 11 -8 -30 -2 -64 20 -119 10 -24 -14
-13 -31 13 -10 16 -17 46 -17 74 0 62 37 122 56 91z m346 -91 c0 -38 -6 -55
-25 -77 -17 -19 -24 -23 -25 -12 0 8 5 20 11 26 14 14 14 112 0 126 -8 8 -11
7 -11 -2 0 -9 -8 -11 -25 -7 -24 6 -25 5 -25 -44 0 -28 5 -50 11 -50 5 0 7 -4
4 -10 -3 -5 -16 -10 -29 -10 -21 0 -22 3 -18 62 4 49 2 60 -9 56 -41 -16 -58
-18 -64 -8 -9 14 -45 13 -45 -2 0 -7 15 -20 33 -28 43 -20 51 -66 13 -76 -39
-10 -76 3 -76 26 0 24 6 25 27 5 17 -17 34 -16 41 3 2 7 -5 15 -15 19 -29 10
-53 35 -53 55 0 26 47 43 78 28 16 -7 28 -7 36 -1 6 5 36 11 66 13 73 4 100
-20 100 -92z m-2406 80 c28 -10 36 -40 11 -40 -8 0 -15 5 -15 10 0 13 -37 13
-44 1 -4 -5 11 -18 31 -28 59 -28 54 -83 -8 -83 -34 0 -65 28 -50 43 8 8 15 5
25 -8 8 -11 19 -16 30 -12 26 10 19 26 -19 41 -27 12 -35 21 -35 40 0 14 8 30
18 35 22 13 25 13 56 1z m456 -40 c0 -21 4 -41 9 -44 5 -3 9 -17 9 -31 0 -21
-5 -25 -30 -25 -23 0 -29 4 -24 15 4 11 -1 15 -19 15 -33 0 -31 16 5 74 34 54
50 52 50 -4z m171 -10 c-4 -75 -15 -92 -54 -88 -24 2 -33 8 -35 26 -4 26 6 29
23 5 7 -9 17 -13 23 -9 15 9 16 93 1 102 -14 8 10 25 31 21 12 -2 14 -14 11
-57z m400 50 c25 -14 24 -51 -2 -84 -21 -27 -19 -50 3 -28 18 18 28 15 28 -8
0 -17 -7 -20 -50 -20 -27 0 -50 4 -50 9 0 5 16 28 35 51 19 23 32 46 29 51 -7
12 -34 11 -34 -1 0 -5 -7 -10 -15 -10 -19 0 -19 14 1 34 18 19 28 20 55 6z
m110 0 c15 -9 19 -22 19 -63 0 -57 -12 -77 -45 -77 -33 0 -45 20 -45 71 0 66
27 92 71 69z m111 -7 c24 -22 23 -36 -8 -73 -25 -29 -27 -57 -2 -32 18 18 28
15 28 -8 0 -17 -7 -20 -43 -20 -24 0 -46 3 -50 6 -3 4 9 26 28 49 40 48 44 65
15 65 -11 0 -20 -4 -20 -10 0 -5 -7 -10 -15 -10 -22 0 -18 17 7 34 28 20 37
20 60 -1z m98 7 c14 -7 18 -22 18 -62 0 -29 -5 -59 -10 -65 -23 -28 -91 -2
-73 27 5 8 12 6 24 -4 18 -17 31 -12 31 11 0 7 -6 13 -14 13 -24 0 -30 21 -7
27 12 3 21 12 21 19 0 16 -26 19 -35 4 -9 -15 -25 -12 -25 5 0 13 26 34 43 35
5 0 16 -4 27 -10z m110 -81 c0 -64 -3 -79 -15 -79 -12 0 -15 15 -15 78 0 43 3
82 6 85 17 16 24 -10 24 -84z m234 83 c3 -5 -6 -30 -19 -57 -14 -27 -25 -57
-25 -67 0 -10 -7 -18 -15 -18 -17 0 -11 47 12 94 l15 29 -31 -6 c-30 -6 -43 8
-24 26 9 10 81 9 87 -1z m126 -12 c15 -15 18 -25 11 -38 -6 -11 -6 -24 0 -35
7 -11 6 -24 -1 -37 -14 -26 -65 -27 -79 -1 -14 25 -2 35 20 15 19 -17 39 -11
39 12 0 8 -9 14 -20 14 -26 0 -25 14 3 33 21 14 21 16 3 23 -11 4 -21 2 -27
-7 -6 -10 -11 -11 -19 -3 -9 9 -6 16 11 28 30 21 35 20 59 -4z m101 10 c15 -9
19 -22 19 -63 0 -57 -12 -77 -45 -77 -33 0 -45 20 -45 71 0 66 27 92 71 69z
m-1571 -60 c0 -33 4 -60 10 -60 6 0 10 -4 10 -10 0 -5 -16 -10 -35 -10 -19 0
-35 5 -35 10 0 6 5 10 10 10 6 0 10 23 10 50 0 28 -4 50 -10 50 -5 0 -10 5
-10 10 0 6 11 10 25 10 24 0 25 -3 25 -60z m1220 6 c0 -30 5 -58 10 -61 6 -3
10 -10 10 -16 0 -12 -57 -12 -65 1 -3 6 -1 10 4 10 6 0 11 21 11 50 0 29 -5
50 -11 50 -5 0 -7 5 -4 10 3 6 15 10 26 10 16 0 19 -7 19 -54z m-1382 27 c12
-12 13 -18 4 -21 -15 -5 -16 -54 0 -70 15 -15 4 -26 -17 -19 -9 4 -15 19 -15
40 0 18 -5 38 -12 45 -8 8 -8 15 2 27 16 19 18 19 38 -2z m-70 -15 c7 -7 12
-32 12 -56 l0 -43 -42 3 c-36 2 -44 7 -46 26 -3 17 4 25 29 36 20 8 27 16 20
20 -7 4 -18 3 -26 -4 -15 -12 -31 3 -20 20 9 14 58 13 73 -2z m612 -7 c5 -11
10 -31 10 -45 0 -14 5 -26 11 -26 8 0 10 15 6 46 l-5 45 47 -3 c45 -3 46 -4
49 -38 2 -19 8 -39 13 -44 16 -18 10 -26 -21 -26 -31 0 -37 9 -19 27 15 15 7
58 -11 58 -11 0 -15 -11 -14 -42 l1 -42 -71 2 c-65 2 -71 4 -74 25 -3 17 4 25
29 36 20 8 27 16 20 20 -7 4 -19 2 -27 -5 -17 -14 -29 -6 -21 16 9 22 64 20
77 -4z m1000 4 c0 -8 -4 -15 -10 -15 -5 0 -10 7 -10 15 0 8 5 15 10 15 6 0 10
-7 10 -15z m-1490 -79 c0 -22 -11 -46 -21 -46 -10 0 -12 43 -2 53 11 12 23 8
23 -7z m660 -10 c0 -26 -15 -43 -24 -28 -7 12 4 52 15 52 5 0 9 -11 9 -24z
m830 9 c0 -8 -4 -15 -10 -15 -5 0 -10 7 -10 15 0 8 5 15 10 15 6 0 10 -7 10
-15z m1410 -382 l0 -238 -30 -62 c-16 -35 -49 -82 -74 -106 -52 -51 -172 -117
-211 -117 -46 0 -152 58 -210 115 -33 32 -67 78 -83 112 -27 57 -27 61 -30
296 l-4 237 321 0 321 0 0 -237z m-1822 183 c100 -46 179 -148 197 -253 l7
-43 64 0 c62 0 64 -1 64 -25 0 -24 -2 -25 -65 -25 l-64 0 -7 -37 c-18 -103
-92 -196 -192 -245 -59 -29 -76 -33 -152 -33 -71 0 -94 4 -141 26 -31 15 -74
43 -96 63 -45 40 -97 132 -107 189 l-7 37 -64 0 c-63 0 -65 1 -65 25 0 24 2
25 64 25 l64 0 7 43 c28 167 181 290 355 284 57 -2 90 -9 138 -31z m-1773 -46
c8 0 15 -4 15 -10 0 -5 -5 -10 -11 -10 -6 0 -9 -8 -7 -18 4 -15 -1 -18 -27
-18 -26 0 -31 3 -27 18 2 10 -1 18 -7 18 -6 0 -11 5 -11 10 0 6 7 10 15 10 9
0 18 7 22 16 5 15 7 15 15 0 5 -9 16 -16 23 -16z m-161 5 c3 -8 13 -15 22 -15
13 0 14 -3 5 -14 -6 -7 -8 -22 -4 -32 6 -16 5 -17 -9 -6 -11 9 -18 10 -23 2
-10 -16 -19 -12 -32 16 -9 20 -9 26 3 31 8 3 14 11 14 19 0 19 16 18 24 -1z
m306 -33 c-6 -2 -10 -12 -10 -23 0 -20 -15 -26 -25 -9 -5 8 -12 7 -22 -2 -13
-10 -14 -9 -12 7 2 11 0 26 -4 33 -5 8 -3 12 8 12 8 0 18 7 21 15 5 12 10 11
30 -7 13 -13 19 -24 14 -26z m-205 -121 c6 -1 1 -6 -9 -10 -19 -7 -19 -8 2
-13 17 -5 22 -2 22 13 0 26 19 24 30 -3 l9 -23 0 23 c1 33 24 22 32 -14 6 -28
7 -28 8 -3 1 32 7 38 32 32 13 -4 19 -14 19 -34 0 -36 -5 -38 -65 -30 -28 4
-62 4 -75 1 -15 -4 11 -9 65 -13 50 -3 106 -9 125 -13 20 -3 30 -2 24 3 -7 4
-14 19 -17 33 l-4 25 -2 -27 c-1 -21 -5 -25 -21 -21 -15 4 -20 14 -20 39 0 33
21 47 35 24 3 -5 12 -7 20 -3 11 4 15 -3 16 -23 l1 -29 9 30 c7 25 8 22 5 -17
-3 -41 -1 -48 15 -48 11 0 19 -5 19 -11 0 -6 -8 -8 -19 -4 -105 33 -346 33
-453 -1 -10 -3 -18 -1 -18 5 0 5 19 13 43 16 l42 7 -3 44 c-3 34 -1 44 11 44
12 0 15 -9 12 -40 -3 -39 -2 -40 28 -40 18 0 39 5 47 11 11 7 5 8 -22 4 -38
-5 -38 -5 -38 31 0 28 3 35 15 30 8 -3 15 -2 15 2 0 7 40 9 65 3z m-145 -41
c0 -18 -7 -33 -19 -39 -23 -13 -31 -5 -31 29 0 31 7 40 32 40 13 0 18 -8 18
-30z m218 -97 c3 -26 8 -32 32 -35 20 -3 30 0 32 10 2 10 9 9 28 -8 16 -14 32
-19 47 -15 19 4 23 1 23 -19 0 -61 -52 -128 -144 -188 l-59 -38 -48 26 c-65
36 -128 98 -151 152 -21 47 -16 61 25 62 9 0 17 7 17 15 0 8 7 15 15 15 8 0
15 -4 15 -10 0 -5 7 -10 16 -10 8 0 12 5 9 10 -8 13 25 26 34 13 3 -5 23 -8
44 -5 34 4 38 7 33 27 -3 12 -3 25 1 29 14 13 28 -1 31 -31z m-120 -665 c14
-19 14 -111 -1 -120 -7 -4 -33 -8 -59 -8 l-47 0 5 38 c3 20 7 45 9 54 2 10 -1
21 -6 24 -5 3 -9 9 -9 15 0 14 96 11 108 -3z m132 -5 c0 -15 2 -15 19 1 13 12
32 16 58 14 31 -2 39 -7 41 -25 2 -16 -2 -23 -12 -23 -9 0 -16 5 -16 11 0 6
-10 9 -22 7 -19 -2 -23 -9 -23 -38 0 -29 4 -36 23 -38 12 -2 22 1 22 7 0 6 7
11 15 11 20 0 19 -36 -1 -44 -51 -20 -104 14 -104 66 0 15 -3 28 -7 28 -5 0
-18 3 -30 6 -13 4 -23 2 -23 -4 0 -6 10 -12 22 -14 33 -5 35 -28 3 -28 -25 0
-27 -3 -21 -30 5 -27 3 -30 -22 -30 -27 0 -27 0 -27 70 l0 70 53 0 c42 0 52
-3 52 -17z m3184 1 c21 -20 20 -83 -1 -106 -16 -18 -58 -24 -80 -10 -31 20
-37 86 -11 120 15 17 74 15 92 -4z m136 -1 c0 -15 1 -15 18 0 19 17 57 22 86
11 20 -8 21 -44 1 -44 -8 0 -15 5 -15 11 0 6 -10 9 -22 7 -19 -2 -23 -9 -23
-38 0 -29 4 -36 23 -38 12 -2 22 1 22 7 0 6 7 11 15 11 8 0 15 -6 15 -13 0
-39 -67 -50 -100 -17 -11 11 -20 33 -20 49 0 21 -6 30 -22 35 -32 8 -38 7 -38
-4 0 -5 9 -10 20 -10 11 0 20 -7 20 -15 0 -9 -9 -15 -21 -15 -19 0 -21 -4 -15
-30 5 -27 3 -30 -22 -30 -27 0 -27 0 -27 70 l0 70 53 0 c42 0 52 -3 52 -17z"/>
<path d="M13790 6985 c-10 -12 -10 -15 4 -15 9 0 16 7 16 15 0 8 -2 15 -4 15
-2 0 -9 -7 -16 -15z"/>
<path d="M14470 6986 c0 -49 11 -64 30 -42 17 22 9 80 -12 84 -15 3 -18 -4
-18 -42z"/>
<path d="M15250 6987 c0 -50 7 -62 27 -46 23 20 14 89 -13 89 -10 0 -14 -13
-14 -43z"/>
<path d="M13445 6950 c-3 -5 1 -10 9 -10 9 0 16 5 16 10 0 6 -4 10 -9 10 -6 0
-13 -4 -16 -10z"/>
<path d="M14057 6953 c-12 -12 -7 -22 8 -17 8 4 15 10 15 15 0 11 -14 12 -23
2z"/>
<path d="M15882 6542 l3 -228 33 -66 c21 -42 51 -83 83 -112 53 -47 159 -106
192 -106 38 0 148 62 200 113 29 29 64 75 78 102 23 48 24 59 27 288 l3 237
-311 0 -312 0 4 -228z m137 154 c24 -29 -14 -65 -50 -46 -20 11 -23 19 -13 44
8 20 47 21 63 2z m99 -13 c4 -25 -27 -46 -52 -37 -16 6 -22 45 -9 58 16 15 58
1 61 -21z m52 -3 c0 -16 -4 -30 -10 -30 -5 0 -10 14 -10 30 0 17 5 30 10 30 6
0 10 -13 10 -30z m65 21 c-18 -7 -18 -8 -1 -18 12 -7 17 -17 13 -27 -7 -18
-32 -22 -42 -6 -3 6 2 10 12 10 17 1 17 1 1 11 -28 16 -22 39 10 38 23 0 24
-2 7 -8z m65 -1 c0 -5 7 -10 15 -10 8 0 15 5 15 11 0 5 5 7 10 4 6 -3 10 -17
10 -31 0 -13 -4 -24 -10 -24 -5 0 -10 5 -10 10 0 6 -7 10 -15 10 -8 0 -15 -4
-15 -10 0 -5 -4 -10 -10 -10 -5 0 -10 14 -10 30 0 17 5 30 10 30 6 0 10 -4 10
-10z m128 -15 c7 -14 12 -27 12 -28 0 -2 -15 -3 -34 -3 l-34 0 14 28 c18 35
27 35 42 3z m-244 -376 c-5 -8 -1 -8 14 0 26 14 42 14 22 0 -11 -8 -12 -12 -2
-16 6 -2 9 -9 6 -14 -3 -6 -11 -6 -20 2 -7 6 -21 9 -29 5 -10 -4 -15 1 -15 14
0 11 7 20 16 20 8 0 12 -5 8 -11z"/>
<path d="M15977 6694 c-14 -14 -7 -35 11 -32 9 2 17 10 17 17 0 16 -18 25 -28
15z"/>
<path d="M16076 6693 c-12 -12 -6 -33 9 -33 8 0 15 6 15 14 0 17 -14 28 -24
19z"/>
<path d="M14436 6705 c-208 -79 -273 -338 -125 -499 70 -77 125 -101 229 -101
104 0 159 24 229 101 139 152 90 394 -99 486 -57 28 -176 35 -234 13z m238
-29 c98 -48 166 -157 166 -266 0 -64 -31 -146 -75 -198 -84 -97 -239 -127
-357 -69 -184 90 -223 333 -78 478 92 92 225 113 344 55z"/>
<path d="M14430 6443 c6 -10 16 -36 24 -58 18 -55 40 -57 59 -3 8 24 18 51 22
61 5 13 2 17 -14 17 -16 0 -21 -6 -21 -27 0 -31 -15 -61 -25 -51 -3 3 -7 22
-8 42 -2 30 -6 36 -25 36 -18 0 -20 -3 -12 -17z"/>
<path d="M14573 6453 c-26 -10 -13 -43 22 -60 19 -9 35 -21 35 -25 0 -18 -32
-19 -52 -2 -20 19 -20 19 -17 0 8 -41 89 -37 89 4 0 15 -11 26 -35 36 -20 8
-33 19 -30 24 9 14 43 12 48 -2 2 -7 8 -10 12 -6 4 4 5 14 2 23 -6 14 -47 19
-74 8z"/>
<path d="M12861 6309 c10 -10 21 -19 24 -19 3 0 14 9 24 19 19 19 19 19 -24
19 -43 0 -43 0 -24 -19z"/>
<path d="M12800 6275 c-7 -19 -6 -36 5 -60 15 -36 31 -49 21 -17 -4 10 1 33
10 50 8 18 13 36 9 42 -11 18 -35 10 -45 -15z"/>
<path d="M12920 6288 c0 -7 7 -26 15 -42 9 -16 13 -37 10 -48 -11 -32 5 -19
20 17 18 42 6 85 -25 85 -11 0 -20 -6 -20 -12z"/>
<path d="M12862 6250 c0 -14 2 -19 5 -12 2 6 2 18 0 25 -3 6 -5 1 -5 -13z"/>
<path d="M12840 6210 c0 -5 5 -10 11 -10 5 0 7 5 4 10 -3 6 -8 10 -11 10 -2 0
-4 -4 -4 -10z"/>
<path d="M12915 6210 c-3 -5 -1 -10 4 -10 6 0 11 5 11 10 0 6 -2 10 -4 10 -3
0 -8 -4 -11 -10z"/>
<path d="M12861 6182 c-7 -13 -6 -23 1 -30 26 -26 64 -2 47 30 -5 10 -16 18
-24 18 -8 0 -19 -8 -24 -18z"/>
<path d="M12750 5700 c0 -5 7 -10 15 -10 8 0 15 5 15 10 0 6 -7 10 -15 10 -8
0 -15 -4 -15 -10z"/>
<path d="M12750 5645 c0 -10 7 -15 18 -13 21 4 19 22 -2 26 -10 2 -16 -3 -16
-13z"/>
<path d="M16054 5696 c-11 -29 1 -61 23 -64 24 -4 38 25 28 58 -7 23 -43 27
-51 6z"/>
<path d="M14626 4438 c-13 -19 -14 -25 -2 -43 26 -39 76 -26 76 19 0 46 -48
62 -74 24z"/>
<path d="M13940 4435 c-19 -23 -3 -55 30 -55 30 0 44 21 35 51 -8 23 -47 25
-65 4z m52 -9 c14 -20 8 -30 -6 -11 -13 18 -14 18 -21 -4 -4 -14 -11 -19 -16
-14 -5 5 -7 16 -4 25 7 17 37 20 47 4z"/>
<path d="M14165 4431 c-6 -21 3 -51 16 -51 14 0 11 28 -3 33 -7 3 -3 6 9 6 12
1 23 7 26 14 3 8 7 5 12 -7 6 -13 3 -23 -10 -32 -16 -12 -16 -14 -3 -14 19 0
31 26 23 51 -4 13 -16 19 -35 19 -19 0 -31 -6 -35 -19z"/>
<path d="M14395 4439 c-4 -5 -4 -21 -1 -35 5 -18 13 -24 36 -24 37 0 51 34 24
59 -17 15 -17 15 -5 -1 12 -16 11 -18 -5 -18 -15 0 -16 -2 -5 -9 10 -7 7 -9
-12 -8 -31 2 -33 9 -11 31 13 14 14 16 0 16 -8 0 -18 -5 -21 -11z"/>
<path d="M14854 4436 c-12 -31 0 -51 30 -51 36 0 56 26 37 49 -17 20 -60 21
-67 2z m62 -18 c1 -11 -7 -17 -27 -20 -23 -4 -29 -1 -24 9 3 8 5 19 5 25 0 16
43 4 46 -14z"/>
<path d="M15084 4436 c-12 -31 0 -51 30 -51 36 0 56 26 37 49 -17 20 -60 21
-67 2z m52 -24 c1 -24 -12 -28 -36 -11 -11 8 -12 12 -2 16 6 2 9 9 6 15 -4 6
2 8 12 6 11 -2 19 -12 20 -26z"/>
<path d="M16569 4022 l63 -59 -61 -53 c-34 -29 -59 -55 -56 -58 2 -3 35 21 71
54 l67 58 -44 39 c-76 66 -107 81 -40 19z"/>
<path d="M12360 4041 c0 -5 5 -13 10 -16 6 -3 10 -37 10 -76 0 -39 -4 -69 -10
-69 -5 0 -10 -4 -10 -10 0 -5 18 -10 40 -10 38 0 52 12 30 25 -5 3 -10 24 -10
46 0 49 10 44 47 -21 21 -37 34 -50 51 -50 21 0 22 4 22 79 0 44 5 83 10 86
22 13 8 25 -30 25 -28 0 -40 -4 -40 -14 0 -8 5 -16 11 -18 6 -2 9 -23 7 -48
l-3 -45 -35 60 c-31 51 -41 60 -68 63 -18 2 -32 -1 -32 -7z"/>
<path d="M15868 3960 c2 -33 7 -60 10 -60 4 0 5 27 4 60 -2 33 -7 60 -10 60
-4 0 -5 -27 -4 -60z"/>
<path d="M15915 3960 c0 -33 3 -60 8 -60 4 0 7 27 7 60 0 33 -3 60 -7 60 -5 0
-8 -27 -8 -60z"/>
<path d="M15325 3970 c27 -76 32 -80 50 -35 8 22 20 48 25 58 6 10 6 17 1 17
-5 0 -15 -17 -21 -37 -19 -58 -28 -60 -42 -10 -7 26 -16 47 -20 47 -4 0 -1
-18 7 -40z"/>
<path d="M15780 4001 c0 -5 4 -11 9 -13 4 -1 12 -13 15 -25 6 -19 4 -23 -14
-23 -18 0 -20 4 -14 23 10 33 -2 18 -19 -25 -9 -21 -12 -38 -6 -38 5 0 9 7 9
15 0 10 10 15 30 15 20 0 30 -5 30 -15 0 -8 4 -15 9 -15 5 0 0 25 -12 55 -17
48 -37 72 -37 46z"/>
<path d="M16010 3955 c0 -30 3 -55 8 -55 4 0 6 18 4 40 -2 22 0 40 5 40 4 0
19 -18 33 -40 14 -22 28 -40 32 -40 5 0 8 25 8 55 0 30 -4 55 -8 55 -4 0 -6
-15 -4 -34 7 -58 -3 -61 -34 -13 -16 26 -32 47 -36 47 -5 0 -8 -25 -8 -55z"/>
<path d="M12586 3978 c-9 -12 -16 -37 -16 -54 0 -42 28 -66 74 -62 45 4 48 21
5 28 -49 8 -49 30 0 30 37 0 41 3 41 24 0 54 -74 78 -104 34z m64 -23 c0 -8
-9 -15 -20 -15 -20 0 -26 11 -13 23 12 13 33 7 33 -8z"/>
<path d="M12707 3993 c-4 -3 -2 -12 4 -19 6 -7 16 -35 23 -61 15 -60 43 -66
61 -14 12 37 18 34 29 -11 4 -18 13 -28 25 -28 13 0 21 13 31 55 7 31 17 58
22 61 18 11 6 24 -23 24 -27 0 -30 -3 -26 -23 4 -12 2 -28 -2 -36 -6 -10 -12
-3 -21 23 -15 46 -37 47 -46 1 -3 -19 -11 -35 -16 -35 -6 0 -8 14 -5 35 5 33
4 35 -22 35 -15 0 -31 -3 -34 -7z"/>
<path d="M12940 3985 c-19 -23 -7 -49 33 -68 21 -10 35 -22 32 -27 -9 -15 -31
-12 -45 5 -18 22 -32 18 -28 -7 3 -25 40 -35 84 -24 43 11 28 68 -20 77 -27 5
-33 29 -7 29 12 0 21 -4 21 -10 0 -5 7 -10 15 -10 20 0 19 36 -1 44 -28 11
-71 6 -84 -9z"/>
<path d="M15430 3940 c0 -22 3 -40 8 -40 4 0 6 18 4 40 -2 22 -6 40 -8 40 -2
0 -4 -18 -4 -40z"/>
<path d="M15487 3973 c-10 -10 -8 -61 2 -67 5 -4 7 3 4 14 -5 17 0 20 26 20
35 0 40 11 14 31 -16 13 -17 12 -4 -3 12 -16 11 -18 -13 -18 -27 0 -35 15 -13
23 6 3 7 6 1 6 -6 1 -14 -2 -17 -6z"/>
<path d="M15571 3958 c16 -32 17 -32 15 -4 0 14 -7 26 -14 26 -10 0 -10 -5 -1
-22z"/>
<path d="M15617 3974 c-4 -4 -7 -14 -7 -23 0 -14 2 -14 10 -1 8 12 10 12 10 1
0 -8 3 -12 6 -8 3 3 2 13 -3 22 -5 8 -12 12 -16 9z"/>
<path d="M15663 3953 c-1 -24 -1 -25 7 -8 11 26 12 35 2 35 -4 0 -8 -12 -9
-27z"/>
<path d="M16137 3973 c-10 -10 -8 -61 2 -67 5 -4 7 3 4 13 -4 15 1 20 24 24
l28 4 -27 2 c-29 1 -38 15 -15 24 6 3 7 6 1 6 -6 1 -14 -2 -17 -6z"/>
<path d="M16221 3953 c5 -16 12 -35 15 -43 4 -13 6 -13 14 0 6 8 9 22 9 30 0
10 -3 8 -9 -5 -7 -18 -9 -16 -15 13 -4 17 -11 32 -16 32 -5 0 -4 -12 2 -27z"/>
<path d="M16260 3977 c0 -2 9 -21 19 -43 13 -27 21 -34 25 -24 3 8 10 27 15
43 6 15 7 27 2 27 -5 0 -12 -15 -16 -32 l-7 -33 -11 33 c-5 17 -14 32 -18 32
-5 0 -9 -1 -9 -3z"/>
<path d="M16355 3970 c-8 -13 3 -30 18 -30 8 0 7 3 -2 9 -7 5 -10 14 -7 20 4
6 5 11 2 11 -3 0 -8 -4 -11 -10z"/>
<path d="M16395 3970 c3 -5 8 -10 11 -10 2 0 4 5 4 10 0 6 -5 10 -11 10 -5 0
-7 -4 -4 -10z"/>
<path d="M16394 3919 c0 -10 4 -19 8 -19 4 0 8 6 8 14 0 8 -4 17 -8 20 -4 2
-8 -4 -8 -15z"/>
<path d="M15597 3923 c-4 -3 -7 -11 -7 -17 0 -6 5 -5 12 2 6 6 9 14 7 17 -3 3
-9 2 -12 -2z"/>
<path d="M15640 3916 c0 -9 5 -16 10 -16 6 0 10 4 10 9 0 6 -4 13 -10 16 -5 3
-10 -1 -10 -9z"/>
<path d="M16350 3910 c0 -5 5 -10 11 -10 5 0 7 5 4 10 -3 6 -8 10 -11 10 -2 0
-4 -4 -4 -10z"/>
<path d="M19738 6063 c7 -3 16 -2 19 1 4 3 -2 6 -13 5 -11 0 -14 -3 -6 -6z"/>
<path d="M13190 3365 c0 -33 2 -35 20 -25 23 12 26 30 8 48 -20 20 -28 14 -28
-23z"/>
<path d="M13110 3307 c0 -37 5 -59 16 -67 13 -12 15 -6 12 50 -2 40 -8 65 -15
68 -9 3 -13 -12 -13 -51z"/>
<path d="M13397 3339 c-3 -12 -2 -31 3 -42 7 -18 9 -14 9 21 1 46 -4 54 -12
21z"/>
<path d="M13574 3346 c-3 -8 -4 -27 -2 -43 3 -23 5 -20 9 15 5 43 2 53 -7 28z"/>
<path d="M13320 3316 c0 -19 4 -37 9 -40 10 -7 21 42 14 61 -10 25 -23 13 -23
-21z"/>
<path d="M13447 3343 c-12 -11 -8 -40 6 -52 11 -9 13 -5 12 19 -2 33 -8 44
-18 33z"/>
<path d="M13642 3325 c0 -16 2 -22 5 -12 2 9 2 23 0 30 -3 6 -5 -1 -5 -18z"/>
<path d="M13515 3330 c-3 -5 -1 -10 4 -10 6 0 11 5 11 10 0 6 -2 10 -4 10 -3
0 -8 -4 -11 -10z"/>
<path d="M13207 3284 c-8 -8 1 -24 14 -24 5 0 9 7 9 15 0 15 -12 20 -23 9z"/>
<path d="M12628 3441 c-10 -10 -18 -26 -18 -37 1 -16 2 -17 13 -4 7 8 30 16
51 18 47 3 53 7 36 27 -17 20 -61 18 -82 -4z"/>
<path d="M12750 3421 c0 -5 5 -13 10 -16 6 -3 10 -2 10 4 0 5 -4 13 -10 16 -5
3 -10 2 -10 -4z"/>
<path d="M12620 3370 c0 -4 5 -11 12 -18 14 -14 68 -16 68 -4 0 5 10 14 23 19
17 8 9 10 -40 9 -35 -1 -63 -3 -63 -6z"/>
<path d="M13935 3388 c-4 -9 -5 -29 -3 -44 l3 -28 18 28 c17 26 18 30 3 44
-14 14 -16 14 -21 0z"/>
<path d="M14135 3389 c-4 -6 -2 -15 5 -19 17 -10 42 -1 37 14 -5 16 -34 19
-42 5z"/>
<path d="M14275 3350 c-3 -5 1 -10 9 -10 9 0 16 5 16 10 0 6 -4 10 -9 10 -6 0
-13 -4 -16 -10z"/>
<path d="M14130 3330 c0 -16 5 -21 23 -18 12 2 22 10 22 18 0 8 -10 16 -22 18
-18 3 -23 -2 -23 -18z"/>
<path d="M14936 2941 c-8 -13 4 -42 15 -35 12 7 12 44 0 44 -6 0 -12 -4 -15
-9z"/>
<path d="M13940 2910 c0 -25 4 -31 18 -28 11 2 17 12 17 28 0 16 -6 26 -17 28
-14 3 -18 -3 -18 -28z"/>
<path d="M13870 2840 c0 -47 3 -60 15 -60 16 0 20 34 9 89 -11 51 -24 35 -24
-29z"/>
<path d="M14147 2879 c-3 -12 -2 -31 3 -42 7 -18 9 -14 9 21 1 46 -4 54 -12
21z"/>
<path d="M14081 2855 c0 -35 1 -37 10 -17 6 15 5 30 -1 40 -7 13 -9 8 -9 -23z"/>
<path d="M14942 2870 c0 -14 2 -19 5 -12 2 6 2 18 0 25 -3 6 -5 1 -5 -13z"/>
<path d="M14884 2835 c1 -25 4 -45 8 -45 12 0 38 31 38 45 0 15 -26 45 -39 45
-4 0 -7 -20 -7 -45z"/>
<path d="M13962 2827 c-9 -11 -10 -17 -2 -22 15 -9 23 -1 18 21 -3 15 -4 16
-16 1z"/>
<path d="M15048 2805 c-16 -35 -3 -43 21 -14 25 29 26 39 6 39 -9 0 -21 -11
-27 -25z"/>
<path d="M14460 2658 c-11 -18 -20 -45 -20 -60 0 -20 -5 -28 -17 -28 -10 0
-26 -7 -37 -15 -34 -26 -2 -137 49 -171 28 -18 80 -11 94 13 7 13 11 12 24 -8
11 -15 13 -25 6 -30 -7 -4 -5 -8 4 -12 25 -9 87 41 66 54 -11 6 -1 39 12 39 4
0 11 16 15 35 4 21 15 40 28 47 40 21 49 60 17 78 -26 13 -50 3 -62 -26 -5
-14 -17 -24 -28 -24 -32 0 -51 -11 -51 -30 0 -27 -19 -35 -38 -16 -15 14 -14
18 8 41 13 14 28 24 34 23 20 -3 46 14 46 30 0 9 -12 33 -26 54 -23 33 -32 38
-66 38 -33 0 -41 -5 -58 -32z"/>
<path d="M14610 2671 c0 -12 29 -41 40 -41 17 0 20 19 4 34 -17 17 -44 21 -44
7z"/>
<path d="M14406 2623 c-6 -14 -5 -15 5 -6 7 7 10 15 7 18 -3 3 -9 -2 -12 -12z"/>
<path d="M14682 2468 c-16 -16 -15 -38 1 -38 17 0 37 20 37 37 0 16 -22 17
-38 1z"/>
<path d="M15529 3362 l-31 -28 25 -30 c14 -16 28 -26 31 -23 11 10 24 99 15
104 -4 3 -22 -7 -40 -23z"/>
<path d="M15655 3370 c-3 -6 6 -15 20 -20 37 -14 40 -13 20 10 -20 22 -31 25
-40 10z"/>
<path d="M14860 3260 c0 -5 5 -10 10 -10 6 0 10 5 10 10 0 6 -4 10 -10 10 -5
0 -10 -4 -10 -10z"/>
<path d="M14900 3250 c0 -5 5 -10 10 -10 6 0 10 5 10 10 0 6 -4 10 -10 10 -5
0 -10 -4 -10 -10z"/>
<path d="M12574 3244 c-4 -10 -9 -22 -11 -26 -2 -5 0 -8 5 -8 10 0 24 41 17
48 -3 3 -8 -4 -11 -14z"/>
<path d="M12657 3254 c-4 -4 -7 -17 -7 -28 1 -19 1 -20 11 -3 11 19 8 43 -4
31z"/>
<path d="M15417 2944 c-4 -4 -7 -23 -7 -42 0 -34 0 -35 20 -17 11 10 20 21 20
25 0 14 -26 41 -33 34z"/>
<path d="M15611 2936 c-8 -10 -9 -16 -2 -21 7 -4 7 -12 -1 -25 -16 -25 1 -45
31 -35 23 7 28 29 10 41 -8 5 -7 9 1 14 16 10 6 40 -13 40 -8 0 -20 -6 -26
-14z"/>
<path d="M16256 2907 c-31 -25 -29 -43 12 -80 24 -22 28 -17 37 51 8 60 -2 66
-49 29z"/>
<path d="M15746 2903 c-9 -22 10 -41 25 -26 13 13 5 43 -10 43 -5 0 -12 -8
-15 -17z"/>
<path d="M14395 2830 c-3 -5 1 -10 9 -10 8 0 18 5 21 10 3 6 -1 10 -9 10 -8 0
-18 -4 -21 -10z"/>
<path d="M14420 2020 c0 -22 5 -40 10 -40 6 0 10 18 10 40 0 22 -4 40 -10 40
-5 0 -10 -18 -10 -40z"/>
<path d="M14320 1990 c0 -5 5 -10 11 -10 5 0 7 5 4 10 -3 6 -8 10 -11 10 -2 0
-4 -4 -4 -10z"/>
<path d="M10197 186 c-7 -17 18 -40 33 -31 5 3 10 15 10 26 0 23 -35 27 -43 5z"/>
<path d="M8620 95 c0 -88 1 -95 20 -95 19 0 20 7 20 95 0 88 -1 95 -20 95 -19
0 -20 -7 -20 -95z"/>
<path d="M8820 95 c0 -88 1 -95 20 -95 19 0 20 7 20 95 0 88 -1 95 -20 95 -19
0 -20 -7 -20 -95z"/>
<path d="M9590 97 l0 -93 78 0 c71 0 79 3 105 29 21 22 27 37 27 72 0 66 -29
85 -131 85 l-79 0 0 -93z m155 43 c18 -15 20 -61 3 -78 -7 -7 -36 -12 -65 -12
l-53 0 0 48 c0 27 3 52 8 56 10 11 89 1 107 -14z"/>
<path d="M10080 140 c0 -20 -5 -30 -15 -30 -8 0 -15 -7 -15 -15 0 -8 7 -15 15
-15 11 0 15 -11 15 -40 0 -33 3 -40 20 -40 17 0 20 7 20 40 0 36 3 40 25 40
32 0 34 27 3 32 -17 2 -24 11 -26 31 -2 19 -9 27 -23 27 -14 0 -19 -7 -19 -30z"/>
<path d="M8938 105 c-35 -20 -44 -50 -24 -80 14 -22 24 -25 74 -24 60 0 60 1
-16 30 -15 6 -22 16 -20 27 4 23 66 30 74 8 7 -19 44 -21 44 -3 0 41 -85 68
-132 42z"/>
<path d="M9161 106 c-28 -16 -50 -52 -51 -83 0 -22 3 -23 99 -23 l99 0 -9 38
c-15 68 -80 100 -138 68z m89 -45 c18 -35 12 -41 -45 -41 -59 0 -68 10 -38 42
22 24 69 24 83 -1z"/>
<path d="M9412 111 c-7 -4 -24 -6 -38 -3 -23 4 -24 2 -24 -52 0 -49 3 -56 19
-56 15 0 21 8 23 32 2 27 9 35 36 43 21 6 32 15 32 27 0 19 -25 24 -48 9z"/>
<path d="M9900 113 c-24 -9 -50 -35 -50 -50 0 -18 25 -17 40 2 16 19 64 19 80
0 21 -25 4 -45 -37 -46 -21 0 -47 -4 -58 -9 -13 -6 7 -9 63 -9 l82 -1 0 34 c0
19 -8 43 -17 55 -18 22 -75 35 -103 24z"/>
<path d="M10352 104 c-12 -8 -22 -10 -22 -5 0 6 -9 11 -20 11 -18 0 -20 -7
-20 -55 0 -48 2 -55 20 -55 15 0 20 7 20 24 0 31 24 56 54 56 30 0 46 -18 46
-52 0 -21 5 -28 20 -28 17 0 20 7 20 39 0 66 -66 102 -118 65z"/>
<path d="M10549 91 c-36 -36 -41 -91 -9 -91 14 0 20 7 20 23 0 53 75 77 104
35 9 -12 16 -30 16 -40 0 -11 8 -18 20 -18 18 0 20 7 20 55 0 48 -2 55 -20 55
-11 0 -20 -4 -20 -9 0 -6 -12 -3 -27 5 -42 21 -71 17 -104 -15z"/>
<path d="M10200 55 c0 -48 2 -55 20 -55 18 0 20 7 20 55 0 48 -2 55 -20 55
-18 0 -20 -7 -20 -55z"/>
</g>
</svg>
