<?xml version="1.0" standalone="no"?>
<!DOCTYPE svg PUBLIC "-//W3C//DTD SVG 20010904//EN"
 "http://www.w3.org/TR/2001/REC-SVG-20010904/DTD/svg10.dtd">
<svg version="1.0" xmlns="http://www.w3.org/2000/svg"
 width="2880.000000pt" height="1800.000000pt" viewBox="0 0 2880.000000 1800.000000"
 preserveAspectRatio="xMidYMid meet">

<g transform="translate(0.000000,1800.000000) scale(0.100000,-0.100000)"
fill="#000000" stroke="none">
<path d="M0 17475 l0 -525 14400 0 14400 0 0 525 0 525 -14400 0 -14400 0 0
-525z m26834 176 c24 -27 13 -40 -14 -16 -20 18 -20 18 -20 -78 0 -53 -4 -99
-10 -102 -6 -4 -10 30 -10 94 0 100 -6 115 -30 86 -7 -8 -17 -15 -23 -15 -6 0
4 16 23 35 35 37 48 36 84 -4z m-18659 -24 l60 -22 3 -87 c2 -51 -2 -97 -8
-108 -6 -12 -36 -37 -66 -56 l-55 -36 -56 34 c-30 18 -61 45 -69 60 -15 28
-19 164 -6 184 7 11 108 53 127 53 6 0 37 -10 70 -22z m17946 0 c58 -39 81
-83 77 -148 -7 -102 -88 -169 -186 -154 -65 10 -127 72 -137 137 -11 75 35
154 105 181 38 14 108 6 141 -16z m-25333 1 c8 -8 12 -54 12 -140 0 -116 -2
-128 -19 -138 -11 -6 -87 -10 -175 -10 -127 0 -157 3 -170 16 -23 23 -23 245
0 268 13 13 44 16 178 16 113 0 166 -4 174 -12z m27456 -4 c9 -23 7 -87 -3
-102 -5 -9 -26 -12 -67 -10 l-59 3 -3 39 c-2 22 -1 50 2 63 6 21 12 23 65 23
44 0 60 -4 65 -16z m161 -49 l0 -60 -62 -3 -63 -3 0 59 c0 32 3 62 7 66 4 4
32 6 63 4 l55 -3 0 -60z m-26515 48 c0 -4 -28 -36 -62 -70 l-62 -63 64 -59
c45 -41 62 -62 55 -70 -7 -7 -33 10 -85 58 l-75 69 70 71 c62 63 95 85 95 64z
m25640 -58 l0 -54 55 -3 c71 -4 72 -22 1 -26 l-55 -3 -3 -55 c-2 -30 -7 -54
-13 -54 -5 0 -11 24 -13 54 l-3 55 -55 3 c-71 4 -70 22 1 26 l55 3 0 53 c0 29
3 56 6 59 15 15 24 -7 24 -58z m-7517 17 l27 -28 -30 -29 c-16 -16 -32 -26
-35 -23 -3 3 1 11 10 18 21 17 19 30 -6 30 -32 0 -79 -53 -79 -90 0 -74 86
-105 141 -51 16 16 29 37 29 45 0 9 5 16 10 16 30 0 -18 -86 -56 -100 -46 -18
-74 -12 -111 25 -32 32 -35 40 -30 76 6 49 21 67 70 89 22 10 34 21 28 24 -13
8 -15 26 -3 26 5 0 20 -13 35 -28z m6717 -11 c0 -5 -12 -11 -27 -13 l-28 -3
-3 -103 -3 -103 118 3 118 3 3 80 c4 109 -1 125 -38 125 -17 0 -30 5 -30 10 0
14 64 12 78 -2 8 -8 12 -48 12 -114 0 -135 2 -134 -145 -134 -146 0 -145 0
-145 126 0 115 8 134 55 134 19 0 35 -4 35 -9z m-12730 -106 c0 -78 -3 -95
-15 -95 -12 0 -15 15 -15 75 0 72 -1 75 -20 63 -32 -20 -37 2 -7 28 50 43 57
35 57 -71z m148 83 c23 -23 13 -66 -24 -107 l-35 -40 37 -3 c21 -2 39 -9 42
-15 3 -10 -14 -13 -62 -13 -80 0 -83 9 -21 70 46 45 58 83 30 94 -9 3 -24 -3
-35 -14 -36 -36 -53 -23 -24 18 17 25 71 31 92 10z m172 2 c0 -22 -85 -180
-97 -180 -20 0 -16 19 22 87 19 35 35 66 35 68 0 3 -20 5 -45 5 -33 0 -45 4
-45 15 0 12 14 15 65 15 36 0 65 -4 65 -10z m176 -15 c20 -31 20 -109 -1 -141
-22 -35 -83 -31 -103 6 -16 30 -11 122 7 144 21 26 78 20 97 -9z m220 0 c20
-31 20 -109 -1 -141 -22 -35 -83 -31 -103 6 -16 30 -11 122 7 144 21 26 78 20
97 -9z m184 -70 c0 -78 -3 -95 -15 -95 -12 0 -15 15 -15 75 0 41 -3 75 -7 75
-3 0 -15 -7 -25 -17 -17 -15 -18 -15 -18 4 0 23 35 52 63 52 15 1 17 -10 17
-94z m-13731 39 c45 43 52 12 7 -32 l-36 -37 -36 37 c-45 44 -38 75 7 32 l29
-28 29 28z m27065 -40 c18 -18 21 -76 6 -105 -8 -15 -21 -19 -58 -19 -27 0
-53 5 -60 12 -19 19 -15 105 6 117 26 16 89 13 106 -5z m160 10 c12 -5 16 -21
16 -65 0 -53 -2 -59 -23 -65 -13 -3 -41 -4 -63 -2 l-39 3 -3 59 c-2 41 1 62
10 67 15 10 79 12 102 3z m-14039 -85 c0 -7 -8 -15 -17 -17 -18 -3 -25 18 -11
32 10 10 28 1 28 -15z m220 0 c0 -7 -8 -15 -17 -17 -18 -3 -25 18 -11 32 10
10 28 1 28 -15z m213 -2 c2 -10 -3 -17 -12 -17 -18 0 -29 16 -21 31 9 14 29 6
33 -14z"/>
<path d="M8110 17484 l0 -135 31 18 c62 36 79 67 79 144 l0 70 -42 19 c-70 32
-68 35 -68 -116z"/>
<path d="M25985 17616 c-50 -22 -77 -60 -83 -114 -8 -90 48 -152 140 -152 38
0 54 6 82 30 81 71 67 189 -28 234 -41 19 -71 20 -111 2z m65 -108 c0 -61 0
-61 20 -43 34 31 36 6 2 -27 l-32 -32 -35 34 c-19 18 -33 36 -30 39 3 2 16 -6
30 -19 l25 -23 0 66 c0 38 4 67 10 67 6 0 10 -27 10 -62z"/>
<path d="M457 17613 c-4 -3 -7 -60 -7 -125 l0 -118 50 0 50 0 0 125 0 125 -43
0 c-24 0 -47 -3 -50 -7z m56 -50 c-7 -2 -21 -2 -30 0 -10 3 -4 5 12 5 17 0 24
-2 18 -5z m7 -43 c0 -5 -9 -10 -20 -10 -11 0 -20 5 -20 10 0 6 9 10 20 10 11
0 20 -4 20 -10z m-7 -47 c-7 -2 -21 -2 -30 0 -10 3 -4 5 12 5 17 0 24 -2 18
-5z"/>
<path d="M577 17613 c-4 -3 -7 -60 -7 -125 l0 -119 103 3 102 3 3 114 c2 85
-1 117 -10 123 -16 9 -182 11 -191 1z"/>
<path d="M28130 17576 l0 -46 51 0 50 0 -3 43 -3 42 -47 3 -48 3 0 -45z"/>
<path d="M28300 17575 l0 -45 45 0 45 0 0 45 0 45 -45 0 -45 0 0 -45z"/>
<path d="M14426 17518 c-22 -31 -20 -81 4 -109 20 -24 20 -24 35 -5 20 26 19
100 -1 120 -20 20 -20 20 -38 -6z"/>
<path d="M14646 17518 c-22 -31 -20 -81 4 -109 20 -24 20 -24 35 -5 20 26 19
100 -1 120 -20 20 -20 20 -38 -6z"/>
<path d="M28134 17447 c-3 -9 -4 -30 -2 -49 3 -32 4 -33 48 -33 l45 0 0 45 0
45 -43 3 c-30 2 -44 -1 -48 -11z"/>
<path d="M28300 17411 l0 -51 46 0 45 0 -3 48 -3 47 -42 3 -43 3 0 -50z"/>
<path d="M26993 16590 c-12 -5 -26 -18 -32 -29 -7 -13 -11 -121 -11 -299 0
-261 1 -281 19 -303 l19 -24 622 0 622 0 19 24 c18 22 19 42 19 306 0 264 -1
284 -19 306 l-19 24 -609 2 c-338 1 -618 -2 -630 -7z m227 -295 l0 -85 50 0
c38 0 50 -4 50 -15 0 -12 -14 -15 -65 -15 l-65 0 0 100 c0 82 3 100 15 100 12
0 15 -16 15 -85z m790 55 c0 -11 7 -20 15 -20 8 0 15 -7 15 -15 0 -8 -7 -15
-15 -15 -11 0 -15 -12 -15 -45 0 -33 4 -45 15 -45 8 0 15 -7 15 -15 0 -22 -47
-19 -60 4 -5 11 -10 38 -10 60 0 23 -4 41 -10 41 -5 0 -10 7 -10 15 0 8 4 15
9 15 5 0 11 9 14 20 3 11 12 20 21 20 9 0 16 -8 16 -20z m-561 -46 c25 -32 26
-57 4 -95 -16 -27 -34 -34 -73 -30 -23 3 -60 49 -60 75 0 39 37 76 75 76 24 0
39 -7 54 -26z m171 -59 c0 -68 -3 -85 -19 -99 -24 -22 -90 -18 -105 6 -14 23
0 35 24 20 28 -17 48 -15 60 8 9 18 8 19 -12 11 -65 -24 -115 56 -72 117 13
18 24 22 70 21 l54 -2 0 -82z m149 59 c25 -32 26 -57 4 -95 -16 -27 -34 -34
-73 -30 -23 3 -60 49 -60 75 0 39 37 76 75 76 24 0 39 -7 54 -26z m71 -11 c0
-62 10 -84 34 -81 18 3 21 11 24 61 3 49 6 57 22 57 18 0 20 -7 20 -74 l0 -74
-41 -4 c-70 -6 -84 7 -87 85 -2 55 0 67 13 67 11 0 15 -10 15 -37z"/>
<path d="M27372 16288 c-6 -6 -12 -21 -12 -33 0 -47 55 -63 66 -18 11 44 -26
79 -54 51z"/>
<path d="M27524 16286 c-3 -8 -4 -25 -2 -38 2 -17 9 -23 28 -23 22 0 25 4 25
35 0 29 -4 36 -23 38 -13 2 -24 -3 -28 -12z"/>
<path d="M27692 16288 c-6 -6 -12 -21 -12 -33 0 -47 55 -63 66 -18 11 44 -26
79 -54 51z"/>
<path d="M4700 16580 c0 -5 5 -10 10 -10 6 0 10 5 10 10 0 6 -4 10 -10 10 -5
0 -10 -4 -10 -10z"/>
<path d="M6590 16490 c0 -60 4 -100 10 -100 6 0 10 40 10 100 0 60 -4 100 -10
100 -6 0 -10 -40 -10 -100z"/>
<path d="M3710 16560 c-31 -31 -28 -113 5 -145 13 -14 33 -25 44 -25 28 0 69
20 75 36 7 19 -8 18 -24 -1 -18 -21 -64 -19 -85 5 -27 29 -24 99 5 122 29 23
41 23 74 -3 33 -26 45 -18 17 10 -28 28 -84 28 -111 1z"/>
<path d="M5630 16485 c0 -114 18 -128 22 -17 l3 77 54 -77 c30 -43 58 -78 63
-78 4 0 8 43 8 95 0 57 -4 95 -10 95 -6 0 -10 -31 -10 -72 l-1 -73 -22 26
c-12 14 -37 47 -54 72 -18 26 -37 47 -43 47 -6 0 -10 -37 -10 -95z"/>
<path d="M6270 16485 c0 -57 4 -95 10 -95 6 0 10 18 10 40 0 36 3 40 25 40 19
0 29 -10 45 -40 11 -22 25 -40 30 -40 6 0 1 18 -10 41 -20 38 -20 42 -4 53 22
17 21 66 -2 83 -10 7 -37 13 -61 13 l-43 0 0 -95z m100 60 c22 -23 1 -49 -44
-53 l-36 -3 0 42 c0 41 0 41 32 35 18 -4 39 -13 48 -21z"/>
<path d="M7950 16570 c0 -5 14 -10 30 -10 l30 0 0 -85 c0 -69 3 -85 15 -85 12
0 15 16 15 85 l0 85 30 0 c17 0 30 5 30 10 0 6 -32 10 -75 10 -43 0 -75 -4
-75 -10z"/>
<path d="M4040 16551 c0 -11 -6 -22 -12 -24 -10 -4 -10 -6 0 -6 8 -1 12 -19
12 -56 0 -43 4 -56 19 -65 25 -13 31 -13 31 0 0 6 -7 10 -15 10 -24 0 -21 107
3 113 16 4 16 5 0 6 -11 1 -18 9 -18 21 0 11 -4 20 -10 20 -5 0 -10 -9 -10
-19z"/>
<path d="M8120 16518 c-43 -46 -15 -128 44 -128 42 0 66 26 66 73 0 68 -66
101 -110 55z m79 -30 c16 -44 -22 -94 -52 -70 -20 17 -26 43 -16 70 11 30 57
30 68 0z"/>
<path d="M8270 16440 c0 -60 4 -100 10 -100 6 0 10 17 10 37 0 29 3 34 12 25
7 -7 25 -12 41 -12 23 0 31 7 43 35 17 41 11 76 -17 101 -17 15 -25 16 -50 7
-16 -6 -29 -7 -29 -2 0 5 -4 9 -10 9 -6 0 -10 -40 -10 -100z m94 54 c12 -31 6
-63 -13 -74 -25 -13 -27 -13 -45 6 -19 18 -21 55 -4 72 17 17 55 15 62 -4z"/>
<path d="M3890 16520 c-8 -5 -12 -12 -8 -15 3 -4 15 -1 26 6 25 16 52 5 52
-21 0 -16 -6 -20 -34 -20 -39 0 -60 -20 -51 -49 8 -25 38 -35 65 -21 13 7 20
7 20 0 0 -5 5 -10 10 -10 14 0 12 114 -2 128 -14 14 -57 16 -78 2z m68 -82
c-3 -25 -43 -37 -60 -20 -19 19 0 42 32 42 27 0 31 -3 28 -22z"/>
<path d="M4129 16514 c-19 -23 -16 -80 6 -104 23 -26 57 -26 80 0 10 11 13 20
7 20 -6 0 -14 -4 -17 -10 -9 -15 -51 -12 -65 5 -19 22 -3 35 46 35 35 0 44 3
44 18 -1 46 -71 72 -101 36z m69 -6 c22 -22 13 -38 -22 -38 -41 0 -52 12 -30
34 18 19 36 20 52 4z"/>
<path d="M4282 16510 c-35 -56 9 -126 64 -101 24 11 25 10 22 -16 -2 -22 -9
-29 -31 -31 -16 -2 -35 3 -44 10 -14 11 -15 11 -11 -2 6 -19 74 -26 94 -9 17
14 21 169 4 169 -5 0 -10 -5 -10 -12 0 -9 -3 -9 -12 0 -19 19 -62 14 -76 -8z
m76 -2 c13 -13 16 -47 6 -72 -4 -9 -18 -16 -34 -16 -29 0 -40 15 -40 54 0 26
17 46 40 46 9 0 21 -5 28 -12z"/>
<path d="M4446 16508 c-23 -32 -20 -65 9 -93 31 -32 58 -32 84 1 40 51 16 114
-44 114 -24 0 -39 -7 -49 -22z m78 -4 c19 -18 21 -65 4 -82 -7 -7 -21 -12 -33
-12 -29 0 -45 19 -45 51 0 29 23 59 45 59 7 0 21 -7 29 -16z"/>
<path d="M4590 16458 c0 -39 4 -68 10 -68 6 0 10 21 10 48 0 52 5 63 35 79 16
10 14 11 -18 10 l-37 -1 0 -68z"/>
<path d="M4700 16460 c0 -40 4 -70 10 -70 6 0 10 30 10 70 0 40 -4 70 -10 70
-6 0 -10 -30 -10 -70z"/>
<path d="M4777 16512 c-35 -38 -8 -122 39 -122 22 0 54 19 54 32 0 9 -3 9 -12
0 -17 -17 -65 -15 -72 4 -11 30 -6 34 45 34 48 0 50 1 43 23 -3 12 -11 28 -16
35 -15 18 -63 15 -81 -6z m73 -7 c17 -21 3 -35 -36 -35 -35 0 -44 16 -22 38
16 16 43 15 58 -3z"/>
<path d="M4919 16514 c-18 -22 -2 -44 41 -58 52 -16 46 -41 -9 -40 -39 1 -42
-1 -26 -13 33 -23 85 -8 85 26 0 22 -16 36 -52 45 -31 7 -37 33 -12 43 9 3 25
1 36 -6 11 -7 23 -10 26 -6 10 10 -20 25 -49 25 -15 0 -32 -7 -40 -16z"/>
<path d="M5223 16493 l37 -38 37 38 38 37 -75 0 -75 0 38 -37z"/>
<path d="M5839 16514 c-19 -23 -16 -80 6 -104 23 -26 57 -26 80 0 10 11 13 20
7 20 -6 0 -14 -4 -17 -10 -9 -15 -51 -12 -65 5 -19 22 -3 35 46 35 35 0 44 3
44 18 -1 46 -71 72 -101 36z m69 -6 c22 -22 13 -38 -22 -38 -41 0 -52 12 -30
34 18 19 36 20 52 4z"/>
<path d="M5993 16460 c11 -38 24 -70 28 -70 4 0 15 25 24 55 8 30 18 55 20 55
2 0 12 -25 20 -55 9 -30 20 -55 24 -55 4 0 17 32 28 70 12 39 17 70 12 70 -4
0 -13 -19 -19 -42 -19 -74 -22 -75 -38 -15 -9 31 -21 57 -27 57 -7 0 -17 -25
-24 -55 -7 -30 -17 -53 -22 -50 -5 4 -9 12 -9 18 0 24 -21 87 -29 87 -5 0 0
-31 12 -70z"/>
<path d="M6449 16514 c-19 -23 -16 -80 6 -104 23 -26 57 -26 80 0 10 11 13 20
7 20 -6 0 -14 -4 -17 -10 -9 -15 -51 -12 -65 5 -19 22 -3 35 46 35 35 0 44 3
44 18 -1 46 -71 72 -101 36z m69 -6 c22 -22 13 -38 -22 -38 -41 0 -52 12 -30
34 18 19 36 20 52 4z"/>
<path d="M6667 16512 c-35 -38 -8 -122 39 -122 22 0 54 19 54 32 0 9 -3 9 -12
0 -17 -17 -65 -15 -72 4 -11 30 -6 34 45 34 48 0 50 1 43 23 -3 12 -11 28 -16
35 -15 18 -63 15 -81 -6z m73 -7 c17 -21 3 -35 -36 -35 -35 0 -44 16 -22 38
16 16 43 15 58 -3z"/>
<path d="M6820 16520 c-8 -5 -12 -12 -8 -15 3 -4 15 -1 26 6 25 16 52 5 52
-21 0 -16 -6 -20 -34 -20 -39 0 -60 -20 -51 -49 8 -25 38 -35 65 -21 13 7 20
7 20 0 0 -5 5 -10 10 -10 14 0 12 114 -2 128 -14 14 -57 16 -78 2z m68 -82
c-3 -25 -43 -37 -60 -20 -19 19 0 42 32 42 27 0 31 -3 28 -22z"/>
<path d="M6973 16524 c-7 -3 -13 -16 -13 -29 0 -20 8 -27 40 -36 55 -17 51
-45 -5 -43 -35 2 -37 0 -20 -12 24 -18 35 -18 63 2 33 23 27 44 -18 61 -41 17
-52 39 -24 50 9 3 26 1 36 -6 16 -10 19 -10 16 1 -5 13 -53 21 -75 12z"/>
<path d="M7109 16514 c-19 -23 -16 -80 6 -104 23 -26 57 -26 80 0 10 11 13 20
7 20 -6 0 -14 -4 -17 -10 -9 -15 -51 -12 -65 5 -19 22 -3 35 46 35 35 0 44 3
44 18 -1 46 -71 72 -101 36z m69 -6 c22 -22 13 -38 -22 -38 -41 0 -52 12 -30
34 18 19 36 20 52 4z"/>
<path d="M7263 16524 c-7 -3 -13 -16 -13 -29 0 -19 8 -27 40 -36 41 -13 53
-35 24 -46 -10 -3 -31 -1 -48 5 l-31 11 24 -19 c28 -24 40 -25 69 -4 33 23 27
44 -18 61 -41 17 -52 39 -24 50 9 3 26 1 36 -6 16 -10 19 -10 16 1 -5 13 -53
21 -75 12z"/>
<path d="M7553 16493 l37 -38 37 38 38 37 -75 0 -75 0 38 -37z"/>
<path d="M1822 16448 c-8 -8 -12 -52 -12 -130 l0 -118 170 0 170 0 0 118 c0
78 -4 122 -12 130 -17 17 -299 17 -316 0z m288 -118 l0 -91 -127 3 -128 3 -3
74 c-2 41 -1 80 2 88 4 10 35 13 131 13 l125 0 0 -90z"/>
<path d="M1920 16355 l-23 -25 23 -25 c26 -28 54 -19 30 10 -10 12 -10 19 -2
27 14 14 16 38 4 38 -5 0 -19 -11 -32 -25z"/>
<path d="M2005 16370 c-4 -6 -1 -17 5 -25 10 -12 10 -18 0 -30 -22 -26 4 -43
30 -20 25 23 26 47 2 68 -22 20 -28 21 -37 7z"/>
<path d="M555 16402 c-3 -3 -5 -59 -5 -124 0 -96 3 -118 14 -118 10 0 16 14
18 43 l3 42 47 3 c79 5 114 73 66 126 -18 19 -35 25 -81 28 -31 3 -59 2 -62 0z
m113 -44 c17 -17 15 -65 -4 -72 -9 -3 -31 -6 -50 -6 -34 0 -34 0 -34 45 l0 45
38 0 c21 0 43 -5 50 -12z"/>
<path d="M2562 16397 c-6 -7 -27 -56 -46 -108 -19 -52 -37 -102 -41 -111 -5
-14 -2 -18 12 -18 14 0 23 10 29 33 9 31 12 32 59 32 47 0 50 -1 59 -32 6 -23
15 -33 29 -33 14 0 17 4 12 18 -4 9 -23 60 -42 112 -38 107 -53 129 -71 107z
m31 -92 l16 -45 -36 0 c-29 0 -34 3 -28 18 4 9 12 29 17 45 5 15 11 27 13 27
2 0 10 -20 18 -45z"/>
<path d="M1110 16370 c0 -10 -8 -24 -17 -30 -17 -10 -17 -10 0 -20 13 -9 17
-25 17 -73 0 -68 10 -87 47 -87 28 0 31 26 3 33 -17 4 -20 14 -20 66 0 54 2
61 20 61 11 0 20 5 20 10 0 6 -9 10 -20 10 -15 0 -20 7 -20 25 0 16 -6 25 -15
25 -8 0 -15 -9 -15 -20z"/>
<path d="M9190 16357 c-28 -14 -38 -51 -20 -72 7 -8 30 -20 52 -25 43 -12 57
-32 38 -55 -17 -20 -67 -19 -78 1 -5 9 -15 15 -22 12 -23 -7 26 -48 58 -48 37
0 72 26 72 54 0 28 -13 39 -63 56 -45 14 -58 37 -32 56 24 18 40 18 59 -1 19
-19 37 -19 30 -1 -4 11 -56 38 -68 36 -1 0 -12 -6 -26 -13z"/>
<path d="M9880 16270 c0 -60 4 -100 10 -100 6 0 10 24 10 54 0 59 16 82 50 71
17 -5 20 -15 20 -66 0 -33 4 -59 10 -59 6 0 10 28 10 65 0 59 -2 67 -22 74
-13 5 -33 5 -45 0 -21 -8 -23 -6 -23 26 0 19 -4 35 -10 35 -6 0 -10 -40 -10
-100z"/>
<path d="M26350 16346 c0 -8 -6 -16 -12 -19 -10 -4 -10 -7 0 -18 6 -7 12 -30
12 -52 0 -48 15 -77 40 -77 23 0 27 15 5 24 -10 4 -15 20 -15 51 0 33 4 45 15
45 8 0 15 7 15 15 0 8 -7 15 -15 15 -8 0 -15 7 -15 15 0 8 -7 15 -15 15 -8 0
-15 -6 -15 -14z"/>
<path d="M26740 16345 c0 -8 -4 -15 -10 -15 -5 0 -10 -7 -10 -15 0 -8 5 -15
10 -15 6 0 10 -25 10 -55 0 -50 2 -55 25 -61 32 -8 46 4 22 17 -24 14 -24 94
1 104 16 6 16 7 0 19 -10 7 -18 18 -18 25 0 6 -7 11 -15 11 -8 0 -15 -7 -15
-15z"/>
<path d="M971 16337 c-61 -31 -52 -72 20 -97 25 -9 44 -22 44 -30 0 -18 -53
-26 -68 -11 -16 16 -37 13 -37 -4 0 -36 95 -48 124 -16 30 33 17 63 -34 82
-46 17 -64 44 -36 55 9 3 27 -1 41 -10 28 -18 47 -14 39 9 -4 10 -56 37 -68
35 -1 0 -12 -6 -25 -13z"/>
<path d="M1254 16336 c-36 -16 -44 -32 -44 -90 0 -54 30 -86 81 -86 51 0 79
33 79 93 0 45 -24 87 -49 87 -5 0 -15 2 -23 5 -7 2 -27 -2 -44 -9z m84 -74 c5
-49 -13 -74 -51 -70 -36 3 -54 37 -43 82 14 58 88 48 94 -12z"/>
<path d="M1477 16343 c-4 -3 -20 -6 -37 -5 l-30 1 0 -90 c0 -72 3 -89 15 -89
12 0 15 14 15 63 0 65 11 87 42 87 11 0 18 7 18 20 0 20 -11 26 -23 13z"/>
<path d="M1564 16336 c-36 -16 -44 -32 -44 -90 0 -32 6 -48 23 -64 30 -29 87
-29 112 -2 22 24 12 39 -15 22 -30 -18 -68 -15 -80 7 -5 11 -10 22 -10 25 0 3
30 6 66 6 l67 0 -7 32 c-12 60 -59 86 -112 64z m71 -43 c8 -22 3 -25 -46 -21
l-44 3 22 22 c24 24 58 21 68 -4z"/>
<path d="M2776 16335 c-14 -8 -26 -10 -26 -4 0 5 -7 9 -15 9 -12 0 -15 -20
-15 -120 0 -100 3 -120 15 -120 11 0 15 11 15 42 0 33 3 39 12 30 22 -22 75
-14 97 14 57 73 -7 188 -83 149z m48 -30 c37 -38 23 -107 -24 -113 -49 -7 -71
82 -28 112 28 20 33 20 52 1z"/>
<path d="M2966 16335 c-14 -8 -26 -10 -26 -4 0 5 -7 9 -15 9 -12 0 -15 -20
-15 -120 0 -100 3 -120 15 -120 11 0 15 11 15 42 0 33 3 39 12 30 22 -22 75
-14 97 14 57 73 -7 188 -83 149z m48 -30 c37 -38 23 -107 -24 -113 -49 -7 -71
82 -28 112 28 20 33 20 52 1z"/>
<path d="M3141 16337 c-61 -31 -52 -72 20 -97 25 -9 44 -22 44 -30 0 -18 -53
-26 -68 -11 -16 16 -37 13 -37 -4 0 -36 95 -48 124 -16 30 33 17 63 -34 82
-46 17 -64 44 -36 55 9 3 27 -1 41 -10 28 -18 47 -14 39 9 -4 10 -56 37 -68
35 -1 0 -12 -6 -25 -13z"/>
<path d="M750 16337 c0 -1 14 -38 30 -80 35 -92 37 -117 10 -124 -23 -6 -27
-33 -6 -33 34 0 48 18 86 116 45 117 46 124 26 124 -9 0 -24 -28 -39 -72 l-24
-73 -23 73 c-18 54 -28 72 -42 72 -10 0 -18 -1 -18 -3z"/>
<path d="M26460 16312 c-28 -23 -31 -83 -5 -112 22 -24 67 -26 90 -4 22 22 11
30 -19 15 -18 -10 -28 -10 -45 -1 -31 16 -21 35 20 37 19 1 40 2 47 2 19 1 14
39 -8 61 -25 25 -51 25 -80 2z m68 -29 c2 -9 -8 -13 -33 -13 -33 0 -36 2 -25
15 15 18 51 16 58 -2z"/>
<path d="M26609 16312 c-30 -25 -19 -50 31 -69 22 -9 40 -20 40 -25 0 -16 -31
-21 -56 -8 -28 16 -42 7 -24 -15 15 -18 71 -20 88 -3 25 25 14 56 -23 68 -19
6 -38 16 -41 22 -11 17 17 27 43 15 30 -13 44 0 19 19 -27 19 -49 18 -77 -4z"/>
<path d="M9351 16303 c-68 -57 3 -171 75 -119 10 8 16 18 11 22 -4 4 -13 2
-19 -4 -18 -18 -56 -14 -67 7 -14 25 -5 31 46 31 39 0 43 2 43 24 0 43 -55 67
-89 39z m57 -15 c22 -22 13 -38 -21 -38 -43 0 -51 9 -30 32 19 21 34 23 51 6z"/>
<path d="M9514 16309 c-12 -4 -25 -12 -29 -18 -8 -14 -2 -14 29 0 20 9 29 9
41 -1 24 -20 13 -34 -31 -40 -33 -4 -39 -9 -42 -31 -4 -37 22 -56 59 -42 16 6
29 7 29 2 0 -5 5 -9 10 -9 14 0 12 103 -2 122 -18 21 -39 27 -64 17z m49 -75
c11 -12 -13 -44 -33 -44 -22 0 -34 15 -26 35 5 15 47 21 59 9z"/>
<path d="M9680 16310 c-8 -5 -23 -7 -32 -4 -16 5 -18 -3 -18 -65 0 -41 4 -71
10 -71 6 0 10 22 10 49 0 48 13 73 42 84 7 2 11 7 8 10 -3 3 -12 2 -20 -3z"/>
<path d="M9745 16296 c-14 -14 -25 -36 -25 -49 0 -31 36 -77 60 -77 20 0 72
39 53 40 -6 0 -15 -4 -18 -10 -10 -17 -41 -11 -60 10 -15 16 -17 26 -9 47 14
40 39 51 63 28 24 -21 43 -12 20 9 -29 28 -57 29 -84 2z"/>
<path d="M1770 16162 c0 -38 18 -42 206 -42 100 0 189 3 198 6 9 3 16 17 16
30 0 23 -2 24 -84 24 -47 0 -88 -4 -91 -10 -3 -5 -19 -10 -35 -10 -16 0 -32 5
-35 10 -3 6 -44 10 -91 10 -74 0 -84 -2 -84 -18z"/>
<path d="M7985 16145 c-20 -19 -25 -34 -25 -73 0 -68 27 -102 81 -102 38 0 79
26 79 50 0 16 -18 12 -40 -10 -53 -53 -117 19 -85 97 11 26 20 33 41 33 15 0
38 -10 51 -22 27 -25 40 -19 23 12 -23 44 -89 52 -125 15z"/>
<path d="M8160 16070 c0 -60 4 -100 10 -100 6 0 10 21 10 48 0 58 10 75 41 70
22 -3 24 -9 27 -60 2 -43 7 -58 17 -58 11 0 15 12 15 44 0 83 -32 122 -80 96
-18 -10 -20 -8 -20 25 0 19 -4 35 -10 35 -6 0 -10 -40 -10 -100z"/>
<path d="M8570 16136 c0 -8 -6 -16 -12 -19 -10 -4 -10 -7 0 -18 6 -7 12 -30
12 -52 0 -48 15 -77 40 -77 23 0 27 15 5 24 -10 4 -15 20 -15 51 0 33 4 45 15
45 8 0 15 7 15 15 0 8 -7 15 -15 15 -8 0 -15 7 -15 15 0 8 -7 15 -15 15 -8 0
-15 -6 -15 -14z"/>
<path d="M8328 16109 c-31 -18 -20 -30 21 -23 29 5 39 2 44 -9 4 -11 -4 -16
-33 -21 -46 -7 -67 -35 -50 -66 9 -16 20 -20 60 -18 l50 2 0 58 c0 47 -4 59
-22 72 -26 18 -46 20 -70 5z m62 -88 c0 -20 -32 -37 -50 -26 -5 3 -10 12 -10
20 0 12 9 16 53 24 4 0 7 -8 7 -18z"/>
<path d="M8460 16043 c0 -57 3 -73 15 -73 10 0 15 15 17 58 3 50 6 57 26 60
40 6 25 30 -18 28 l-40 -1 0 -72z"/>
<path d="M8669 16101 c-30 -25 -18 -51 32 -67 18 -6 35 -16 37 -23 6 -18 -27
-25 -54 -11 -28 16 -42 7 -24 -15 15 -18 71 -20 88 -3 25 25 14 56 -23 68 -19
6 -38 16 -41 22 -11 17 17 27 43 15 30 -13 44 0 19 19 -27 19 -49 18 -77 -5z"/>
<path d="M4990 15255 l0 -195 125 0 125 0 0 30 0 30 -90 0 -90 0 0 55 0 55 85
0 85 0 0 30 0 30 -85 0 -85 0 0 50 0 50 90 0 90 0 0 30 0 30 -125 0 -125 0 0
-195z"/>
<path d="M5490 15379 l0 -70 -26 20 c-45 35 -119 24 -149 -23 -44 -67 -37
-172 14 -218 40 -35 106 -39 139 -8 l22 21 0 -21 c0 -16 6 -20 30 -20 l30 0 0
195 0 195 -30 0 -30 0 0 -71z m-28 -109 c28 -28 30 -36 25 -78 -6 -51 -33 -82
-72 -82 -72 0 -90 152 -22 180 33 13 36 12 69 -20z"/>
<path d="M5617 15436 c-13 -33 16 -62 49 -49 9 3 14 15 12 32 -2 20 -9 27 -29
29 -17 2 -29 -3 -32 -12z"/>
<path d="M5757 15414 c-4 -4 -7 -22 -7 -41 0 -26 -4 -33 -20 -33 -13 0 -20 -7
-20 -20 0 -13 7 -20 20 -20 18 0 20 -7 20 -84 0 -85 11 -134 33 -148 7 -4 29
-8 50 -8 34 0 38 3 35 23 -2 14 -11 23 -25 25 -22 3 -23 8 -23 98 0 94 0 94
25 94 18 0 25 5 25 20 0 15 -7 20 -24 20 -21 0 -25 5 -28 38 -3 31 -7 37 -28
40 -14 2 -29 0 -33 -4z"/>
<path d="M9007 15414 c-4 -4 -7 -22 -7 -41 0 -26 -4 -33 -20 -33 -13 0 -20 -7
-20 -20 0 -13 7 -20 20 -20 18 0 20 -7 20 -84 0 -85 11 -134 33 -148 7 -4 29
-8 50 -8 34 0 38 3 35 23 -2 14 -11 23 -25 25 -22 3 -23 8 -23 98 0 94 0 94
25 94 18 0 25 5 25 20 0 15 -7 20 -24 20 -21 0 -25 5 -28 38 -3 31 -7 37 -28
40 -14 2 -29 0 -33 -4z"/>
<path d="M6364 15335 c-43 -22 -66 -66 -66 -130 -1 -94 44 -145 130 -145 92 0
138 57 130 162 -4 50 -9 64 -35 90 -38 38 -110 48 -159 23z m91 -41 c44 -17
59 -114 24 -158 -46 -59 -119 -15 -119 71 0 65 45 106 95 87z"/>
<path d="M6997 15333 c-11 -11 -17 -13 -17 -5 0 7 -13 12 -30 12 l-30 0 0
-140 0 -140 30 0 30 0 0 98 c0 107 11 132 58 132 18 0 22 6 22 30 0 25 -4 30
-23 30 -12 0 -30 -8 -40 -17z"/>
<path d="M7274 15340 c-24 -9 -54 -47 -54 -67 0 -20 48 -15 70 7 33 33 85 19
92 -25 2 -15 -3 -21 -22 -23 -124 -13 -150 -29 -150 -91 0 -51 32 -81 86 -81
22 0 49 7 60 15 25 19 34 19 34 0 0 -10 10 -15 30 -15 l30 0 0 99 c0 122 -12
159 -56 177 -37 16 -88 17 -120 4z m108 -175 c-6 -34 -33 -55 -69 -55 -62 0
-56 59 8 71 51 10 64 6 61 -16z"/>
<path d="M7564 15334 c-43 -21 -66 -65 -66 -129 -1 -61 24 -113 63 -132 30
-16 100 -17 132 -2 23 11 57 57 57 78 0 21 -52 11 -72 -14 -45 -58 -118 -13
-118 72 0 33 6 50 25 68 31 32 60 32 89 0 25 -26 76 -35 76 -12 0 21 -29 56
-60 72 -37 19 -86 19 -126 -1z"/>
<path d="M7854 15334 c-43 -21 -66 -65 -66 -129 -1 -61 24 -113 63 -132 30
-16 100 -17 132 -2 23 11 57 57 57 78 0 21 -52 11 -72 -14 -45 -58 -118 -13
-118 72 0 33 6 50 25 68 31 32 60 32 89 0 25 -26 76 -35 76 -12 0 21 -29 56
-60 72 -37 19 -86 19 -126 -1z"/>
<path d="M8144 15335 c-43 -22 -66 -66 -66 -130 -1 -94 44 -145 130 -145 92 0
138 57 130 162 -4 50 -9 64 -35 90 -38 38 -110 48 -159 23z m91 -41 c44 -17
59 -114 24 -158 -46 -59 -119 -15 -119 71 0 65 45 106 95 87z"/>
<path d="M8778 15336 c-16 -8 -28 -11 -28 -5 0 5 -13 9 -30 9 l-30 0 0 -140 0
-140 30 0 30 0 0 99 c0 96 1 100 27 120 28 23 59 20 81 -7 8 -10 12 -51 12
-114 l0 -98 30 0 30 0 0 116 c0 114 0 116 -29 145 -33 33 -78 38 -123 15z"/>
<path d="M5620 15200 l0 -140 30 0 30 0 0 140 0 140 -30 0 -30 0 0 -140z"/>
<path d="M6061 15208 c27 -73 49 -140 49 -148 0 -23 -20 -40 -47 -40 -18 0
-23 -6 -23 -25 0 -23 4 -25 40 -25 61 0 79 25 139 195 30 83 56 156 59 163 3
8 -7 12 -29 12 l-34 0 -29 -98 c-16 -53 -32 -100 -36 -104 -3 -4 -20 38 -36
95 l-31 102 -36 3 -35 3 49 -133z"/>
<path d="M6620 15225 c0 -110 1 -117 25 -140 29 -30 97 -34 133 -9 20 14 22
14 22 0 0 -11 10 -16 30 -16 l30 0 0 140 0 140 -30 0 -30 0 0 -89 c0 -74 -3
-92 -21 -115 -23 -29 -60 -34 -83 -10 -12 12 -16 38 -16 115 l0 99 -30 0 -30
0 0 -115z"/>
<path d="M8390 15225 c0 -110 1 -117 25 -140 29 -30 97 -34 133 -9 20 14 22
14 22 0 0 -11 10 -16 30 -16 l30 0 0 140 0 140 -30 0 -30 0 0 -89 c0 -74 -3
-92 -21 -115 -23 -29 -60 -34 -83 -10 -12 12 -16 38 -16 115 l0 99 -30 0 -30
0 0 -115z"/>
<path d="M6310 14665 c0 -32 -2 -35 -19 -25 -30 15 -48 12 -71 -12 -24 -26
-26 -75 -4 -106 12 -18 23 -22 65 -20 l49 2 0 98 c0 59 -4 98 -10 98 -5 0 -10
-16 -10 -35z m-11 -67 c16 -44 -22 -94 -52 -70 -20 17 -26 43 -16 70 11 30 57
30 68 0z"/>
<path d="M6370 14684 c0 -17 22 -14 28 4 2 7 -3 12 -12 12 -9 0 -16 -7 -16
-16z"/>
<path d="M8620 14684 c0 -17 22 -14 28 4 2 7 -3 12 -12 12 -9 0 -16 -7 -16
-16z"/>
<path d="M9180 14600 c0 -60 4 -100 10 -100 6 0 10 21 10 48 0 58 10 75 41 70
22 -3 24 -9 27 -60 2 -43 7 -58 17 -58 11 0 15 12 15 44 0 83 -32 122 -80 96
-18 -10 -20 -8 -20 25 0 19 -4 35 -10 35 -6 0 -10 -40 -10 -100z"/>
<path d="M9574 14675 c-3 -14 -10 -25 -15 -25 -5 0 -9 -7 -9 -15 0 -8 5 -15
10 -15 6 0 10 -27 10 -60 0 -33 4 -60 10 -60 6 0 10 26 10 59 0 51 3 59 21 64
22 6 17 27 -6 27 -9 0 -12 6 -9 15 4 8 12 15 20 15 8 0 14 5 14 10 0 6 -11 10
-25 10 -18 0 -26 -7 -31 -25z"/>
<path d="M9810 14600 c0 -82 3 -100 15 -100 12 0 15 18 15 100 0 82 -3 100
-15 100 -12 0 -15 -18 -15 -100z"/>
<path d="M9880 14600 c0 -60 4 -100 10 -100 6 0 10 40 10 100 0 60 -4 100 -10
100 -6 0 -10 -40 -10 -100z"/>
<path d="M10397 14693 c-4 -3 -7 -15 -7 -25 0 -10 -7 -18 -15 -18 -8 0 -15 -5
-15 -10 0 -6 7 -13 15 -16 11 -5 15 -22 15 -65 0 -33 4 -59 10 -59 6 0 10 27
10 60 0 47 3 60 15 60 8 0 15 7 15 15 0 8 -7 15 -15 15 -8 0 -15 5 -15 10 0 6
7 13 15 16 8 4 15 10 15 15 0 10 -33 12 -43 2z"/>
<path d="M4980 14685 c0 -3 14 -27 30 -53 21 -34 30 -62 30 -91 0 -30 4 -41
15 -41 11 0 15 12 15 46 0 29 7 56 19 72 35 51 43 72 27 72 -8 0 -25 -19 -38
-42 l-25 -41 -23 41 c-13 23 -30 42 -37 42 -7 0 -13 -2 -13 -5z"/>
<path d="M6433 14655 c-6 -14 -7 -27 -2 -31 5 -3 9 -20 9 -39 0 -50 16 -85 40
-85 23 0 27 15 5 24 -10 4 -15 20 -15 51 0 33 4 45 15 45 8 0 15 7 15 15 0 8
-7 15 -15 15 -8 0 -15 7 -15 15 0 24 -24 17 -37 -10z"/>
<path d="M8153 14655 c-6 -14 -7 -27 -2 -31 5 -3 9 -20 9 -39 0 -50 16 -85 40
-85 23 0 27 15 5 24 -10 4 -15 20 -15 51 0 33 4 45 15 45 8 0 15 7 15 15 0 8
-7 15 -15 15 -8 0 -15 7 -15 15 0 24 -24 17 -37 -10z"/>
<path d="M9090 14665 c0 -8 -4 -15 -10 -15 -5 0 -10 -7 -10 -15 0 -8 5 -15 10
-15 6 0 10 -22 10 -48 0 -51 12 -72 42 -72 22 0 24 16 3 24 -23 8 -21 92 3
101 16 6 16 7 0 19 -10 7 -18 18 -18 25 0 6 -7 11 -15 11 -8 0 -15 -7 -15 -15z"/>
<path d="M5152 14627 c-45 -48 -18 -127 43 -127 60 0 88 81 45 128 -27 28 -61
28 -88 -1z m79 -33 c17 -46 -31 -96 -58 -61 -30 38 -18 87 22 87 18 0 28 -7
36 -26z"/>
<path d="M5297 14644 c-12 -12 -8 -87 6 -114 11 -21 20 -25 60 -26 l47 -1 0
74 c0 42 -4 73 -10 73 -5 0 -10 -24 -10 -54 0 -57 -15 -80 -47 -74 -14 2 -19
15 -21 58 -3 54 -12 77 -25 64z"/>
<path d="M5542 14627 c-26 -28 -28 -73 -6 -105 12 -18 24 -22 51 -20 20 2 41
10 47 20 16 25 -1 34 -25 13 -15 -14 -24 -17 -36 -9 -40 25 -32 94 11 94 14 0
28 -4 31 -10 9 -15 25 -12 25 5 0 15 -37 35 -64 35 -7 0 -22 -10 -34 -23z"/>
<path d="M5689 14630 c-26 -21 -15 -26 25 -11 18 8 28 6 37 -5 14 -18 15 -17
-38 -33 -35 -9 -43 -16 -43 -35 0 -34 21 -46 71 -43 l44 3 0 58 c-1 45 -5 61
-20 72 -26 19 -49 18 -76 -6z m71 -74 c0 -19 -26 -38 -46 -34 -27 5 -28 27 -2
37 33 14 48 13 48 -3z"/>
<path d="M5820 14575 c0 -60 3 -75 15 -75 12 0 15 13 15 55 0 42 4 56 18 63
32 17 42 3 42 -59 0 -46 3 -59 15 -59 22 0 21 112 -1 134 -18 19 -45 21 -61 5
-8 -8 -13 -8 -17 0 -17 27 -26 5 -26 -64z"/>
<path d="M6070 14632 c-28 -23 -31 -83 -5 -112 22 -24 67 -26 90 -4 22 23 10
30 -21 14 -29 -16 -57 -5 -62 24 -3 15 3 17 35 16 58 -3 63 -1 63 20 0 25 -34
60 -59 60 -10 0 -29 -8 -41 -18z m68 -29 c2 -9 -8 -13 -32 -13 -28 0 -34 3
-29 16 7 18 54 16 61 -3z"/>
<path d="M6370 14576 c0 -62 3 -76 15 -76 13 0 15 12 13 72 -2 46 -7 73 -15
76 -10 3 -13 -16 -13 -72z"/>
<path d="M6600 14635 c0 -8 9 -37 20 -65 24 -61 25 -89 5 -96 -8 -4 -15 -10
-15 -15 0 -15 26 -10 42 9 19 21 73 170 65 178 -11 12 -25 -6 -37 -51 -7 -25
-16 -47 -20 -50 -4 -2 -14 20 -24 50 -16 51 -36 74 -36 40z"/>
<path d="M6762 14627 c-45 -48 -18 -127 43 -127 60 0 88 81 45 128 -27 28 -61
28 -88 -1z m79 -33 c17 -46 -31 -96 -58 -61 -30 38 -18 87 22 87 18 0 28 -7
36 -26z"/>
<path d="M6907 14644 c-12 -12 -8 -87 6 -114 11 -21 20 -25 60 -26 l47 -1 0
74 c0 42 -4 73 -10 73 -5 0 -10 -24 -10 -54 0 -57 -15 -80 -47 -74 -14 2 -19
15 -21 58 -3 54 -12 77 -25 64z"/>
<path d="M7060 14573 c0 -57 3 -73 15 -73 10 0 15 15 17 58 3 50 6 57 26 60
40 6 25 30 -18 28 l-40 -1 0 -72z"/>
<path d="M7249 14630 c-26 -21 -15 -26 25 -11 18 8 28 6 37 -5 14 -18 15 -17
-38 -33 -34 -9 -43 -16 -43 -34 0 -13 5 -28 12 -35 15 -15 55 -16 64 -1 5 8 9
8 14 -1 17 -28 32 3 28 58 -7 79 -48 105 -99 62z m71 -74 c0 -19 -26 -38 -46
-34 -27 5 -28 27 -2 37 33 14 48 13 48 -3z"/>
<path d="M7402 14627 c-26 -28 -28 -73 -6 -105 12 -18 24 -22 51 -20 20 2 41
10 47 20 16 25 -1 34 -25 13 -15 -14 -24 -17 -36 -9 -40 25 -32 94 11 94 14 0
28 -4 31 -10 9 -15 25 -12 25 5 0 15 -37 35 -64 35 -7 0 -22 -10 -34 -23z"/>
<path d="M7552 14627 c-26 -28 -28 -73 -6 -105 12 -18 24 -22 51 -20 20 2 41
10 47 20 16 25 -1 34 -25 13 -15 -14 -24 -17 -36 -9 -40 25 -32 94 11 94 14 0
28 -4 31 -10 9 -15 25 -12 25 5 0 15 -37 35 -64 35 -7 0 -22 -10 -34 -23z"/>
<path d="M7702 14627 c-45 -48 -18 -127 43 -127 60 0 88 81 45 128 -27 28 -61
28 -88 -1z m79 -33 c17 -46 -31 -96 -58 -61 -30 38 -18 87 22 87 18 0 28 -7
36 -26z"/>
<path d="M7840 14586 c0 -76 9 -86 74 -84 l47 1 -3 71 c-4 84 -22 92 -26 12
-2 -46 -7 -56 -24 -62 -30 -9 -48 19 -48 78 0 26 -4 48 -10 48 -6 0 -10 -28
-10 -64z"/>
<path d="M8000 14575 c0 -43 4 -75 10 -75 6 0 10 22 10 49 0 59 20 87 51 71
15 -9 19 -22 19 -65 0 -30 5 -55 10 -55 6 0 10 28 10 65 0 55 -3 66 -21 76
-16 8 -28 8 -45 0 -15 -6 -24 -7 -24 -1 0 6 -4 10 -10 10 -6 0 -10 -32 -10
-75z"/>
<path d="M8327 14644 c-12 -12 -8 -87 6 -114 11 -21 20 -25 60 -26 l47 -1 0
74 c0 42 -4 73 -10 73 -5 0 -10 -24 -10 -54 0 -57 -15 -80 -47 -74 -14 2 -19
15 -21 58 -3 54 -12 77 -25 64z"/>
<path d="M8502 14639 c-37 -14 -27 -59 17 -74 19 -6 37 -17 39 -23 6 -18 -28
-27 -49 -14 -24 16 -29 15 -29 -3 0 -35 94 -30 105 6 6 19 -9 49 -26 49 -4 0
-20 5 -35 10 -25 10 -26 12 -12 26 13 13 20 14 38 4 28 -15 41 -3 16 16 -23
16 -32 16 -64 3z"/>
<path d="M8620 14576 c0 -62 3 -76 15 -76 13 0 15 12 13 72 -2 46 -7 73 -15
76 -10 3 -13 -16 -13 -72z"/>
<path d="M8690 14575 c0 -43 4 -75 10 -75 6 0 10 22 10 49 0 59 20 87 51 71
15 -9 19 -22 19 -65 0 -30 5 -55 10 -55 6 0 10 28 10 65 0 55 -3 66 -21 76
-16 8 -28 8 -45 0 -15 -6 -24 -7 -24 -1 0 6 -4 10 -10 10 -6 0 -10 -32 -10
-75z"/>
<path d="M8858 14633 c-24 -28 -28 -50 -17 -83 12 -34 51 -50 81 -31 15 9 18
8 18 -8 0 -32 -25 -45 -60 -31 -36 15 -47 9 -25 -14 19 -18 57 -21 86 -6 17 9
19 22 19 100 0 53 -4 90 -10 90 -5 0 -10 -5 -10 -10 0 -7 -6 -7 -19 0 -28 14
-46 12 -63 -7z m70 -25 c28 -28 3 -84 -34 -76 -43 8 -44 88 -1 88 13 0 28 -5
35 -12z"/>
<path d="M9352 14627 c-26 -27 -29 -73 -6 -105 18 -26 75 -30 94 -7 18 22 7
28 -23 14 -21 -9 -30 -9 -42 1 -28 23 -18 42 23 40 61 -3 64 -2 57 23 -8 27
-41 57 -64 57 -10 0 -27 -10 -39 -23z m76 -24 c2 -9 -8 -13 -32 -13 -34 0 -44
8 -29 24 11 11 56 2 61 -11z"/>
<path d="M9669 14631 c-16 -13 -23 -29 -23 -54 0 -72 71 -104 113 -51 28 35
26 69 -4 99 -29 30 -55 32 -86 6z m77 -35 c8 -34 2 -57 -18 -70 -38 -23 -78
43 -47 80 19 23 58 18 65 -10z"/>
<path d="M9959 14631 c-16 -13 -23 -29 -23 -54 0 -72 71 -104 113 -51 28 35
26 69 -4 99 -29 30 -55 32 -86 6z m77 -35 c8 -34 2 -57 -18 -70 -38 -23 -78
43 -47 80 19 23 58 18 65 -10z"/>
<path d="M10090 14635 c0 -36 34 -135 46 -135 8 0 19 20 25 45 6 25 15 47 18
50 4 2 13 -18 20 -45 7 -28 19 -50 26 -50 10 0 55 129 47 138 -9 11 -19 -4
-33 -50 l-16 -53 -12 45 c-7 25 -14 51 -16 58 -9 27 -25 9 -41 -45 l-17 -58
-15 58 c-13 53 -32 77 -32 42z"/>
<path d="M10482 14627 c-45 -48 -18 -127 43 -127 60 0 88 81 45 128 -27 28
-61 28 -88 -1z m79 -33 c17 -46 -31 -96 -58 -61 -30 38 -18 87 22 87 18 0 28
-7 36 -26z"/>
<path d="M10630 14575 c0 -43 4 -75 10 -75 6 0 10 20 10 44 0 57 8 76 31 76
10 0 19 7 19 15 0 18 -5 18 -31 5 -13 -7 -19 -7 -19 0 0 5 -4 10 -10 10 -6 0
-10 -32 -10 -75z"/>
<path d="M10730 14573 c0 -57 3 -73 15 -73 10 0 15 15 17 57 2 47 6 58 22 61
26 5 36 -15 36 -70 0 -68 18 -60 22 10 3 54 4 57 31 60 27 3 27 3 27 -57 0
-48 3 -61 15 -61 21 0 21 98 -1 128 -16 23 -48 29 -59 11 -4 -6 -14 -7 -24 -3
-9 4 -35 8 -58 9 l-43 2 0 -74z"/>
<path d="M5132 13998 c6 -18 28 -21 28 -4 0 9 -7 16 -16 16 -9 0 -14 -5 -12
-12z"/>
<path d="M4990 13905 c0 -57 4 -95 10 -95 6 0 10 18 10 40 l0 40 45 0 c33 0
45 4 45 15 0 11 -12 15 -45 15 -43 0 -45 1 -45 30 0 29 1 30 50 30 28 0 50 5
50 10 0 6 -27 10 -60 10 l-60 0 0 -95z"/>
<path d="M5450 13975 c0 -8 -4 -15 -10 -15 -5 0 -10 -7 -10 -15 0 -8 5 -15 10
-15 6 0 10 -22 10 -48 0 -51 12 -72 42 -72 22 0 24 16 3 24 -23 8 -21 92 3
101 16 6 16 7 0 19 -10 7 -18 18 -18 25 0 6 -7 11 -15 11 -8 0 -15 -7 -15 -15z"/>
<path d="M5140 13885 c0 -43 4 -75 10 -75 6 0 10 32 10 75 0 43 -4 75 -10 75
-6 0 -10 -32 -10 -75z"/>
<path d="M5200 13883 c0 -57 3 -73 15 -73 10 0 15 15 17 58 3 50 6 57 26 60
40 6 25 30 -18 28 l-40 -1 0 -72z"/>
<path d="M5316 13947 c-29 -21 -17 -58 23 -72 19 -6 37 -17 39 -23 6 -18 -28
-27 -49 -14 -24 16 -29 15 -29 -3 0 -35 94 -30 105 6 6 19 -9 49 -26 49 -4 0
-20 5 -35 10 -25 10 -26 12 -12 26 13 13 20 14 38 4 28 -15 41 -3 16 16 -25
17 -47 18 -70 1z"/>
<path d="M5610 13885 c0 -60 3 -75 15 -75 12 0 15 13 15 55 0 42 4 56 18 63
32 17 42 3 42 -59 0 -46 3 -59 15 -59 22 0 21 112 -1 134 -18 19 -45 21 -61 5
-8 -8 -13 -8 -17 0 -17 27 -26 5 -26 -64z"/>
<path d="M5779 13940 c-26 -21 -15 -26 25 -11 18 8 28 6 37 -5 14 -18 15 -17
-38 -33 -34 -9 -43 -16 -43 -34 0 -13 5 -28 12 -35 15 -15 55 -16 64 -1 5 8 9
8 14 -1 17 -28 32 3 28 58 -7 79 -48 105 -99 62z m71 -74 c0 -19 -26 -38 -46
-34 -27 5 -28 27 -2 37 33 14 48 13 48 -3z"/>
<path d="M5910 13883 c0 -57 3 -73 15 -73 10 0 15 15 17 57 2 47 6 58 22 61
26 5 36 -15 36 -70 0 -27 5 -48 10 -48 6 0 10 25 10 55 0 42 4 56 18 63 32 17
42 3 42 -59 0 -46 3 -59 15 -59 21 0 21 98 -1 128 -16 23 -48 29 -59 11 -4 -6
-14 -7 -24 -3 -9 4 -35 8 -58 9 l-43 2 0 -74z"/>
<path d="M6162 13937 c-26 -27 -29 -73 -6 -105 18 -26 75 -30 94 -7 18 22 7
28 -23 14 -21 -9 -30 -9 -42 1 -28 23 -18 42 23 40 61 -3 64 -2 57 23 -8 27
-41 57 -64 57 -10 0 -27 -10 -39 -23z m76 -24 c2 -9 -8 -13 -32 -13 -34 0 -44
8 -29 24 11 11 56 2 61 -11z"/>
<path d="M5360 13320 c0 -5 7 -10 15 -10 8 0 15 5 15 10 0 6 -7 10 -15 10 -8
0 -15 -4 -15 -10z"/>
<path d="M5210 13225 c0 -57 4 -95 10 -95 6 0 10 20 10 45 l0 45 48 2 47 1
-45 6 c-42 6 -45 8 -48 39 -3 32 -3 32 42 32 25 0 46 5 46 10 0 6 -25 10 -55
10 l-55 0 0 -95z"/>
<path d="M5670 13291 c0 -11 -6 -22 -12 -24 -10 -4 -10 -6 0 -6 8 -1 12 -19
12 -56 0 -45 4 -56 21 -65 27 -15 36 -6 15 15 -23 24 -22 105 2 105 16 1 16 1
0 11 -10 5 -18 17 -18 24 0 8 -4 15 -10 15 -5 0 -10 -9 -10 -19z"/>
<path d="M5471 13271 c-8 -5 -20 -7 -28 -4 -10 4 -13 -11 -13 -66 0 -41 4 -71
10 -71 6 0 10 25 10 55 0 49 3 57 25 67 14 6 25 15 25 20 0 10 -11 10 -29 -1z"/>
<path d="M5552 13269 c-14 -5 -22 -17 -22 -32 0 -19 9 -27 41 -40 25 -10 39
-21 37 -29 -6 -18 -46 -22 -64 -7 -21 17 -28 5 -9 -15 29 -29 95 -13 95 23 0
22 -16 36 -52 45 -31 7 -37 33 -12 43 9 3 25 1 35 -5 25 -16 34 -15 20 2 -16
19 -42 25 -69 15z"/>
<path d="M5880 13270 c-8 -5 -23 -7 -32 -4 -16 5 -18 -3 -18 -65 0 -41 4 -71
10 -71 6 0 10 22 10 49 0 32 6 55 16 65 36 37 64 7 64 -68 0 -25 5 -46 10 -46
6 0 10 25 10 55 0 42 -5 60 -20 75 -23 23 -29 24 -50 10z"/>
<path d="M6024 13269 c-24 -9 -41 -29 -24 -29 5 0 19 5 29 12 15 9 23 9 36 -2
24 -20 13 -34 -31 -40 -33 -4 -39 -9 -42 -31 -4 -37 22 -56 59 -42 16 6 29 7
29 2 0 -5 5 -9 10 -9 14 0 12 103 -2 122 -18 21 -39 27 -64 17z m49 -75 c11
-12 -13 -44 -33 -44 -22 0 -34 15 -26 35 5 15 47 21 59 9z"/>
<path d="M6181 13271 c-8 -5 -20 -7 -28 -4 -10 4 -13 -11 -13 -66 0 -41 4 -71
10 -71 6 0 10 24 10 54 0 56 17 83 45 72 11 -4 15 -21 15 -66 0 -33 4 -60 10
-60 6 0 10 22 10 48 0 59 20 92 47 76 13 -8 19 -26 21 -68 4 -78 22 -71 22 9
0 59 -2 67 -22 74 -13 5 -33 5 -46 0 -14 -6 -31 -5 -42 1 -22 12 -21 12 -39 1z"/>
<path d="M6410 13273 c-45 -16 -56 -100 -18 -127 30 -21 51 -20 79 4 26 21 10
27 -21 8 -23 -15 -53 -2 -58 26 -3 13 6 16 47 16 59 0 66 15 26 55 -25 26 -29
27 -55 18z m44 -29 c21 -21 12 -34 -24 -34 -34 0 -47 15 -30 35 16 19 35 19
54 -1z"/>
<path d="M5360 13200 c0 -40 4 -70 10 -70 6 0 10 30 10 70 0 40 -4 70 -10 70
-6 0 -10 -30 -10 -70z"/>
<path d="M4990 12425 l0 -95 60 0 c71 0 81 18 13 22 l-48 3 -3 83 c-4 114 -22
104 -22 -13z"/>
<path d="M5430 12495 c0 -8 -4 -15 -10 -15 -5 0 -10 -7 -10 -15 0 -8 5 -15 10
-15 6 0 10 -22 10 -48 0 -51 12 -72 42 -72 22 0 24 16 3 24 -23 8 -21 92 3
101 16 6 16 7 0 19 -10 7 -18 18 -18 25 0 6 -7 11 -15 11 -8 0 -15 -7 -15 -15z"/>
<path d="M5149 12460 c-26 -21 -15 -26 25 -11 18 8 28 6 37 -5 14 -18 15 -17
-38 -33 -34 -9 -43 -16 -43 -34 0 -13 5 -28 12 -35 15 -15 55 -16 64 -1 5 8 9
8 14 -1 17 -28 32 3 28 58 -7 79 -48 105 -99 62z m71 -74 c0 -19 -26 -38 -46
-34 -27 5 -28 27 -2 37 33 14 48 13 48 -3z"/>
<path d="M5302 12469 c-37 -14 -27 -59 17 -74 19 -6 37 -17 39 -23 6 -18 -28
-27 -49 -14 -24 16 -29 15 -29 -3 0 -35 94 -30 105 6 6 19 -9 49 -26 49 -4 0
-20 5 -35 10 -25 10 -26 12 -12 26 13 13 20 14 38 4 28 -15 41 -3 16 16 -23
16 -32 16 -64 3z"/>
<path d="M5590 12405 c0 -60 3 -75 15 -75 12 0 15 13 15 55 0 42 4 56 18 63
32 17 42 3 42 -59 0 -46 3 -59 15 -59 22 0 21 112 -1 134 -18 19 -45 21 -61 5
-8 -8 -13 -8 -17 0 -17 27 -26 5 -26 -64z"/>
<path d="M5773 12470 c-23 -10 -32 -30 -12 -30 6 0 19 4 29 10 14 7 23 6 36
-7 16 -17 15 -18 -25 -28 -49 -12 -67 -35 -51 -65 9 -16 20 -20 60 -18 l50 2
0 58 c0 47 -4 59 -22 72 -25 18 -33 19 -65 6z m57 -89 c0 -20 -32 -37 -50 -26
-16 10 -12 33 8 38 34 9 42 7 42 -12z"/>
<path d="M5900 12405 c0 -88 18 -102 22 -17 3 53 5 57 28 57 23 0 25 -4 28
-57 2 -42 7 -58 17 -58 10 0 15 16 17 58 3 53 5 57 28 57 23 0 25 -4 28 -57 4
-80 22 -73 22 7 0 59 -2 66 -24 76 -17 8 -29 8 -45 -1 -17 -9 -26 -9 -37 1
-11 9 -21 9 -39 1 -15 -7 -25 -8 -25 -2 0 6 -4 10 -10 10 -6 0 -10 -32 -10
-75z"/>
<path d="M6150 12462 c-28 -23 -31 -83 -5 -112 22 -24 67 -26 90 -4 22 23 10
30 -21 14 -29 -16 -57 -5 -62 24 -3 15 3 17 35 16 58 -3 63 -1 63 20 0 25 -34
60 -59 60 -10 0 -29 -8 -41 -18z m68 -29 c2 -9 -8 -13 -32 -13 -28 0 -34 3
-29 16 7 18 54 16 61 -3z"/>
<path d="M5210 11745 l0 -95 55 0 c30 0 55 5 55 10 0 6 -20 10 -45 10 l-45 0
0 85 c0 50 -4 85 -10 85 -6 0 -10 -38 -10 -95z"/>
<path d="M5660 11815 c0 -7 -8 -19 -17 -24 -17 -10 -17 -10 0 -11 14 0 17 -10
17 -59 0 -52 3 -61 21 -66 27 -9 39 4 16 16 -25 14 -25 106 1 112 16 4 16 5 0
6 -11 1 -18 9 -18 21 0 11 -4 20 -10 20 -5 0 -10 -7 -10 -15z"/>
<path d="M5394 11789 c-24 -9 -41 -29 -24 -29 5 0 19 5 29 12 15 9 23 9 36 -2
24 -20 13 -34 -31 -40 -33 -4 -39 -9 -42 -31 -4 -37 22 -56 59 -42 16 6 29 7
29 2 0 -5 5 -9 10 -9 14 0 12 103 -2 122 -18 21 -39 27 -64 17z m49 -75 c11
-12 -13 -44 -33 -44 -22 0 -34 15 -26 35 5 15 47 21 59 9z"/>
<path d="M5533 11790 c-15 -6 -23 -18 -23 -33 0 -19 9 -27 41 -40 25 -10 39
-21 37 -29 -6 -18 -46 -22 -64 -7 -21 17 -28 5 -9 -15 29 -29 95 -13 95 23 0
22 -16 36 -52 45 -31 7 -37 33 -12 43 9 3 25 1 35 -5 30 -19 36 -13 10 8 -26
22 -27 22 -58 10z"/>
<path d="M5865 11790 c-11 -4 -26 -5 -32 -3 -10 4 -13 -13 -13 -66 0 -41 4
-71 10 -71 6 0 10 24 10 54 0 59 16 82 50 71 17 -5 20 -15 20 -66 0 -33 4 -59
10 -59 11 0 13 109 2 126 -11 16 -35 22 -57 14z"/>
<path d="M6004 11789 c-12 -4 -25 -12 -29 -18 -8 -14 -2 -14 29 0 20 9 29 9
41 -1 24 -20 13 -34 -31 -40 -33 -4 -39 -9 -42 -31 -4 -37 22 -56 59 -42 16 6
29 7 29 2 0 -5 5 -9 10 -9 14 0 12 103 -2 122 -18 21 -39 27 -64 17z m49 -75
c11 -12 -13 -44 -33 -44 -22 0 -34 15 -26 35 5 15 47 21 59 9z"/>
<path d="M6169 11789 c-8 -5 -22 -6 -31 -3 -16 5 -18 -3 -18 -65 0 -41 4 -71
10 -71 6 0 10 22 10 48 0 59 20 92 47 76 13 -8 19 -26 21 -68 2 -31 7 -56 12
-56 5 0 10 25 12 56 2 41 8 60 20 68 26 16 39 -4 48 -71 l7 -58 2 67 c1 58 -2
69 -19 78 -14 7 -26 8 -39 0 -13 -6 -28 -7 -44 -1 -14 5 -30 6 -38 0z"/>
<path d="M6381 11783 c-68 -57 3 -171 75 -119 10 8 16 18 11 22 -4 4 -13 2
-19 -4 -18 -18 -56 -14 -67 7 -14 25 -5 31 46 31 39 0 43 2 43 24 0 43 -55 67
-89 39z m57 -15 c22 -22 13 -38 -21 -38 -43 0 -51 9 -30 32 19 21 34 23 51 6z"/>
<path d="M5522 11038 c6 -18 28 -21 28 -4 0 9 -7 16 -16 16 -9 0 -14 -5 -12
-12z"/>
<path d="M5590 10950 c0 -82 3 -100 15 -100 12 0 15 18 15 100 0 82 -3 100
-15 100 -12 0 -15 -18 -15 -100z"/>
<path d="M5980 11015 c0 -32 -2 -35 -19 -25 -30 15 -48 12 -71 -12 -24 -26
-26 -75 -4 -106 12 -18 23 -22 65 -20 l49 2 0 98 c0 59 -4 98 -10 98 -5 0 -10
-16 -10 -35z m-11 -67 c16 -44 -22 -94 -52 -70 -20 17 -26 43 -16 70 11 30 57
30 68 0z"/>
<path d="M6140 11016 c0 -34 0 -34 -30 -23 -26 10 -33 9 -51 -10 -27 -27 -29
-85 -4 -113 20 -22 60 -27 71 -9 4 8 9 7 15 -2 4 -7 10 -11 13 -9 6 6 9 68 7
143 -1 60 -21 82 -21 23z m-7 -67 c25 -40 -24 -97 -58 -69 -18 15 -20 61 -3
78 16 16 48 11 61 -9z"/>
<path d="M4990 10945 l0 -95 60 0 c71 0 81 18 13 22 -46 3 -48 4 -48 33 0 28
3 30 43 33 23 2 42 7 42 12 0 5 -19 10 -42 12 -39 3 -43 6 -46 31 -3 26 -2 27
47 27 28 0 51 5 51 10 0 6 -27 10 -60 10 l-60 0 0 -95z"/>
<path d="M5140 10923 c0 -57 3 -73 15 -73 10 0 15 15 17 57 2 47 6 58 22 61
26 5 36 -15 36 -70 0 -27 5 -48 10 -48 6 0 10 25 10 55 0 42 4 56 18 63 32 17
42 3 42 -59 0 -46 3 -59 15 -59 21 0 21 98 -1 128 -16 23 -48 29 -59 11 -4 -6
-14 -7 -24 -3 -9 4 -35 8 -58 9 l-43 2 0 -74z"/>
<path d="M5389 10980 c-26 -21 -15 -26 25 -11 18 8 28 6 37 -5 14 -18 15 -17
-38 -33 -34 -9 -43 -16 -43 -34 0 -13 5 -28 12 -35 15 -15 55 -16 64 -1 5 8 9
8 14 -1 17 -28 32 3 28 58 -7 79 -48 105 -99 62z m71 -74 c0 -19 -26 -38 -46
-34 -27 5 -28 27 -2 37 33 14 48 13 48 -3z"/>
<path d="M5530 10925 c0 -43 4 -75 10 -75 6 0 10 32 10 75 0 43 -4 75 -10 75
-6 0 -10 -32 -10 -75z"/>
<path d="M5753 10990 c-23 -10 -32 -30 -12 -30 6 0 19 4 29 10 14 7 23 6 36
-7 16 -17 15 -18 -25 -28 -49 -12 -67 -35 -51 -65 9 -16 20 -20 60 -18 l50 2
0 58 c0 47 -4 59 -22 72 -25 18 -33 19 -65 6z m57 -89 c0 -20 -32 -37 -50 -26
-16 10 -12 33 8 38 34 9 42 7 42 -12z"/>
<path d="M6210 10925 c0 -43 4 -75 10 -75 6 0 10 20 10 44 0 57 8 76 31 76 10
0 19 7 19 15 0 18 -5 18 -31 5 -13 -7 -19 -7 -19 0 0 5 -4 10 -10 10 -6 0 -10
-32 -10 -75z"/>
<path d="M6322 10977 c-26 -27 -29 -73 -6 -105 18 -26 75 -30 94 -7 18 22 7
28 -23 14 -21 -9 -30 -9 -42 1 -28 23 -18 42 23 40 61 -3 64 -2 57 23 -8 27
-41 57 -64 57 -10 0 -27 -10 -39 -23z m76 -24 c2 -9 -8 -13 -32 -13 -34 0 -44
8 -29 24 11 11 56 2 61 -11z"/>
<path d="M6470 10980 c-32 -32 -23 -48 34 -67 17 -5 32 -15 34 -21 6 -19 -27
-26 -54 -12 -28 16 -42 7 -24 -15 15 -18 71 -20 88 -3 25 25 14 56 -23 68 -19
6 -38 16 -41 22 -11 17 17 27 43 15 30 -13 44 0 19 19 -27 19 -52 18 -76 -6z"/>
<path d="M6610 10980 c-32 -32 -23 -48 34 -67 17 -5 32 -15 34 -21 6 -19 -27
-26 -54 -12 -28 16 -42 7 -24 -15 15 -18 71 -20 88 -3 25 25 14 56 -23 68 -19
6 -38 16 -41 22 -11 17 17 27 43 15 30 -13 44 0 19 19 -27 19 -52 18 -76 -6z"/>
<path d="M6482 10369 c2 -6 8 -10 13 -10 5 0 11 4 13 10 2 6 -4 11 -13 11 -9
0 -15 -5 -13 -11z"/>
<path d="M6550 10280 c0 -60 4 -100 10 -100 6 0 10 40 10 100 0 60 -4 100 -10
100 -6 0 -10 -40 -10 -100z"/>
<path d="M5738 10355 c-53 -29 -61 -130 -15 -173 26 -25 110 -41 121 -23 5 7
-7 11 -39 11 -59 0 -95 32 -95 85 0 49 15 74 56 91 67 28 138 -29 116 -95 -14
-42 -37 -32 -40 17 l-3 43 -42 -3 c-35 -3 -43 -7 -45 -27 -2 -12 -1 -34 2 -47
6 -21 12 -24 44 -23 21 2 43 0 48 -4 6 -3 20 1 32 9 17 12 22 25 22 57 0 23
-6 49 -13 58 -30 40 -99 51 -149 24z m80 -89 c4 -30 -12 -48 -35 -39 -14 5
-18 54 -6 67 15 15 38 -1 41 -28z"/>
<path d="M5220 10345 c0 -9 -7 -18 -16 -22 -15 -5 -15 -7 0 -15 12 -7 16 -24
16 -63 0 -46 3 -55 21 -60 27 -9 39 4 16 16 -25 14 -25 106 1 112 16 4 16 5 0
6 -11 1 -18 9 -18 21 0 11 -4 20 -10 20 -5 0 -10 -7 -10 -15z"/>
<path d="M5600 10341 c0 -11 -6 -22 -12 -24 -10 -4 -10 -6 0 -6 8 -1 12 -19
12 -54 0 -29 5 -58 12 -65 15 -15 48 -16 48 -2 0 6 -6 10 -14 10 -17 0 -26 22
-26 66 0 27 5 37 23 44 18 7 19 9 4 9 -11 1 -21 10 -24 21 -7 25 -23 26 -23 1z"/>
<path d="M5322 10314 c-29 -20 -31 -93 -4 -117 25 -23 65 -21 87 3 20 22 6 27
-25 8 -23 -15 -53 -2 -58 26 -3 13 6 16 47 16 28 0 51 4 51 10 0 23 -24 59
-44 64 -29 8 -29 8 -54 -10z m56 -16 c21 -21 13 -38 -17 -38 -37 0 -50 19 -26
37 23 16 28 16 43 1z"/>
<path d="M5484 10320 c-45 -18 -36 -57 18 -76 40 -13 43 -38 6 -42 -16 -2 -28
1 -28 7 0 6 -7 11 -16 11 -24 0 -11 -24 19 -34 34 -12 77 6 77 33 0 23 -16 37
-53 46 -15 4 -27 14 -27 21 0 19 29 29 43 15 6 -6 18 -11 27 -11 11 1 9 6 -9
20 -26 22 -27 22 -57 10z"/>
<path d="M5968 10323 c-24 -6 -43 -59 -32 -90 13 -38 37 -50 74 -36 24 9 30 9
30 -2 0 -8 -7 -21 -16 -30 -16 -16 -28 -16 -66 0 -25 10 -23 -12 3 -25 27 -15
77 -3 89 20 6 10 10 50 10 88 0 66 -1 70 -22 69 -13 0 -30 2 -38 5 -8 3 -22 4
-32 1z m63 -45 c12 -22 -11 -68 -34 -68 -39 1 -57 50 -28 79 23 23 46 19 62
-11z"/>
<path d="M6150 10320 c-8 -5 -23 -7 -32 -4 -16 5 -18 -3 -18 -65 0 -41 4 -71
10 -71 6 0 10 20 10 44 0 56 29 98 54 77 11 -9 16 -30 16 -67 0 -30 5 -54 10
-54 6 0 10 25 10 55 0 42 4 56 18 63 32 17 42 3 42 -59 0 -46 3 -59 15 -59 25
0 21 104 -6 131 -13 13 -26 18 -37 13 -21 -9 -42 -9 -62 -1 -8 4 -22 2 -30 -3z"/>
<path d="M6363 10320 c-13 -5 -23 -14 -23 -20 0 -13 6 -13 30 0 24 13 52 2 48
-19 -2 -10 -17 -18 -37 -21 -41 -6 -61 -32 -45 -57 14 -22 50 -29 70 -13 10 9
14 9 14 1 0 -6 5 -11 10 -11 6 0 10 28 10 65 0 61 -2 66 -26 75 -14 6 -26 10
-27 9 -1 0 -12 -4 -24 -9z m57 -83 c0 -31 -51 -50 -66 -25 -8 13 22 38 48 38
10 0 18 -6 18 -13z"/>
<path d="M6707 10309 c-71 -55 6 -168 79 -115 27 20 9 32 -22 15 -24 -12 -28
-12 -45 10 -24 30 -24 46 2 72 19 19 22 20 46 4 28 -19 45 -12 22 9 -26 26
-55 27 -82 5z"/>
<path d="M6856 10309 c-50 -39 -23 -129 39 -129 62 0 89 90 39 129 -15 12 -32
21 -39 21 -7 0 -24 -9 -39 -21z m79 -39 c17 -52 -34 -91 -67 -50 -23 29 -23
45 2 70 24 24 54 14 65 -20z"/>
<path d="M7041 10321 c-8 -5 -20 -7 -28 -4 -10 4 -13 -11 -13 -66 0 -41 4 -71
10 -71 6 0 10 25 10 55 0 42 4 56 18 63 32 17 42 3 42 -59 0 -33 4 -59 10 -59
6 0 10 17 10 38 0 51 9 80 27 86 28 11 43 -14 43 -70 0 -30 5 -54 10 -54 6 0
10 28 10 65 0 59 -2 67 -22 74 -13 5 -33 5 -46 0 -14 -6 -31 -5 -42 1 -22 12
-21 12 -39 1z"/>
<path d="M6480 10250 c0 -40 4 -70 10 -70 6 0 10 30 10 70 0 40 -4 70 -10 70
-6 0 -10 -30 -10 -70z"/>
<path d="M6620 10195 c0 -8 7 -15 15 -15 8 0 15 7 15 15 0 8 -7 15 -15 15 -8
0 -15 -7 -15 -15z"/>
<path d="M5012 9660 c-39 -16 -43 -49 -40 -336 3 -247 5 -275 21 -291 17 -17
56 -18 642 -18 586 0 625 1 642 18 16 16 18 43 18 307 0 264 -2 291 -18 307
-17 17 -57 18 -630 20 -355 1 -621 -2 -635 -7z m321 -233 c23 -26 6 -49 -21
-29 -28 20 -41 24 -57 18 -27 -10 -16 -35 21 -45 46 -13 74 -38 74 -66 0 -57
-103 -83 -141 -36 -10 13 -19 27 -19 32 0 15 37 10 50 -7 17 -20 64 -14 68 8
2 12 -5 19 -25 24 -58 14 -83 33 -83 63 0 64 88 90 133 38z m237 4 c0 -27 3
-29 35 -28 44 1 64 -24 64 -78 0 -67 -20 -82 -106 -77 l-33 2 0 105 c0 98 1
105 20 105 15 0 20 -7 20 -29z m400 9 c0 -13 -7 -20 -20 -20 -13 0 -20 7 -20
20 0 13 7 20 20 20 13 0 20 -7 20 -20z m67 -20 c3 -11 12 -20 19 -20 19 0 18
-19 -1 -26 -10 -4 -15 -20 -15 -50 0 -32 4 -44 15 -44 8 0 15 -7 15 -16 0 -11
-8 -14 -32 -12 -33 3 -33 4 -36 61 -2 31 -7 57 -12 57 -6 0 -10 7 -10 15 0 8
5 15 10 15 6 0 10 9 10 20 0 12 7 20 16 20 9 0 18 -9 21 -20z m-207 -20 c12 7
28 7 44 0 25 -9 26 -14 26 -80 0 -56 -3 -70 -15 -70 -11 0 -15 12 -15 48 0 55
-11 77 -34 69 -12 -5 -16 -20 -16 -62 0 -48 -2 -55 -20 -55 -18 0 -20 7 -20
55 0 42 -4 57 -16 62 -23 8 -34 -14 -34 -69 0 -41 -3 -48 -20 -48 -18 0 -20 7
-20 74 l0 75 38 3 c20 2 47 0 60 -4 13 -5 32 -4 42 2z m-422 -63 c3 -54 5 -58
25 -55 19 3 22 10 25 61 3 49 6 57 22 57 18 0 20 -7 20 -74 l0 -73 -42 -6
c-70 -9 -88 9 -88 89 0 57 2 65 18 62 13 -2 18 -15 20 -61z m562 -12 c0 -68
-2 -75 -20 -75 -18 0 -20 7 -20 75 0 68 2 75 20 75 18 0 20 -7 20 -75z"/>
<path d="M5582 9358 c-13 -13 -15 -37 -6 -62 9 -24 43 -19 53 7 16 43 -18 84
-47 55z"/>
</g>
</svg>
